<svg xmlns="http://www.w3.org/2000/svg" xmlns:xlink="http://www.w3.org/1999/xlink" width="187.119" height="62.373" viewBox="0 0 187.119 62.373"><defs><style>.a{fill:none;}.b{clip-path:url(#a);}.c{opacity:0;}.d{fill:#fff;}.e{fill:#ee306f;}.e,.f{fill-rule:evenodd;}.f{fill:#202020;}</style><clipPath id="a"><rect class="a" width="187.119" height="62.373"/></clipPath></defs><g transform="translate(93.559 31.186)"><g class="b" transform="translate(-93.559 -31.186)"><g class="c"><g class="b"><rect class="d" width="187.119" height="62.373"/></g></g><path class="e" d="M81.664,30C76.549,30,73.056,33.18,70,37.172l1.809,2.62c2.807-3.8,5.738-6.8,9.917-6.8a9.543,9.543,0,0,1,9.481,7.984H79.356V43.97H94.263A12.475,12.475,0,0,0,81.664,30" transform="translate(-26.339 -11.287)"/><path class="e" d="M64.807,51.893c-5.052,0-8.42-4.366-12.662-10.791S43.912,30,37.675,30a12.475,12.475,0,1,0,0,24.949c5.115,0,8.67-3.181,11.664-7.173l-1.809-2.682c-2.807,3.8-5.738,6.8-9.917,6.8a9.481,9.481,0,1,1,0-18.9c5.052,0,8.233,4.179,12.662,10.791s8.358,11.165,14.533,11.165a12.6,12.6,0,0,0,11.727-7.986l-3.369,0a9.605,9.605,0,0,1-8.42,4.927" transform="translate(-9.482 -11.288)"/><path class="f" d="M139.179,52.7a6.362,6.362,0,0,1-5.052-2.058,5.426,5.426,0,0,1-2.245,1.559,8.42,8.42,0,0,1-3.119.561,5.177,5.177,0,0,1-3.555-1.123,3.992,3.992,0,0,1-1.31-3.119,3.68,3.68,0,0,1,1.559-3.119,7.745,7.745,0,0,1,4.553-1.123h2.433v-1a2.62,2.62,0,0,0-.624-1.809,2.245,2.245,0,0,0-1.746-.686,3.056,3.056,0,0,0-1.934.561,1.747,1.747,0,0,0-.748,1.435l-3.119-.249a3.68,3.68,0,0,1,1.622-3.056,6.861,6.861,0,0,1,4.179-1.185,5.34,5.34,0,0,1,4.3,1.684,5.614,5.614,0,0,1,4.241-1.684,5.489,5.489,0,0,1,4.241,1.684,6.623,6.623,0,0,1,1.559,4.678V46.4h-8.857a4.3,4.3,0,0,0,1.123,2.807,3.555,3.555,0,0,0,2.682,1,6.487,6.487,0,0,0,3.119-.748l.811-.437.936,2.121a6.674,6.674,0,0,1-2.245,1.123,9.481,9.481,0,0,1-2.807.437m-9.793-2.37a4.117,4.117,0,0,0,1.622-.374,4.928,4.928,0,0,0,1.435-.936V46.342h-2.557a3.431,3.431,0,0,0-2.121.624,1.871,1.871,0,0,0-.748,1.5,1.684,1.684,0,0,0,.624,1.372,2.62,2.62,0,0,0,1.746.5m9.294-9.605a2.744,2.744,0,0,0-2.121.873,4.428,4.428,0,0,0-1,2.495h5.863v-.374a3.243,3.243,0,0,0-.686-2.245,2.557,2.557,0,0,0-2-.811" transform="translate(-46.618 -14.407)"/><path class="f" d="M163.526,33.2v3.368h2.433v2.308h-2.433v7.8a1.684,1.684,0,0,0,.312,1.123,1.435,1.435,0,0,0,1.123.374l1.123-.125v2.433a7.734,7.734,0,0,1-2.058.312q-3.618,0-3.618-3.992V38.938H158.1v-2.37h2.308V33.2Z" transform="translate(-59.488 -12.492)"/><path class="f" d="M178.97,52.664a6.487,6.487,0,0,1-4.8-1.871A6.8,6.8,0,0,1,172.3,45.8v-.374a8.358,8.358,0,0,1,.811-3.742,6.112,6.112,0,0,1,2.245-2.557,5.988,5.988,0,0,1,3.243-.936A5.489,5.489,0,0,1,183.024,40a7.6,7.6,0,0,1,1.559,5.115v1.247h-9.106a4.179,4.179,0,0,0,1.123,2.744,3.493,3.493,0,0,0,2.557,1,4.241,4.241,0,0,0,3.493-1.746l1.684,1.622a5.614,5.614,0,0,1-2.245,1.934,6.986,6.986,0,0,1-3.119.686M178.6,40.626a2.62,2.62,0,0,0-2.058.873,4.678,4.678,0,0,0-1,2.495h5.988v-.249a3.8,3.8,0,0,0-.811-2.37,2.62,2.62,0,0,0-2.058-.811" transform="translate(-64.828 -14.367)"/><path class="f" d="M202.735,41.318l-1.247-.125a2.785,2.785,0,0,0-2.869,1.622V52.42H195.5V38.449h2.994v1.559a3.555,3.555,0,0,1,3.119-1.809,2.932,2.932,0,0,1,1.123.187Z" transform="translate(-73.561 -14.373)"/><path class="f" d="M212.694,38.448V40.07a4.99,4.99,0,0,1,4.054-1.871q4.366,0,4.428,4.99V52.42h-3.119V43.375a2.869,2.869,0,0,0-.561-2,2.433,2.433,0,0,0-1.871-.624,2.994,2.994,0,0,0-2.807,1.684v9.98H209.7V38.448Z" transform="translate(-78.904 -14.372)"/><path class="f" d="M231.7,31.783a1.684,1.684,0,0,1,.437-1.185,1.969,1.969,0,0,1,2.62,0,1.684,1.684,0,0,1,.437,1.185,1.622,1.622,0,0,1-.437,1.185,1.969,1.969,0,0,1-2.62,0,1.622,1.622,0,0,1-.437-1.185m.187,17.589H235V35.4h-3.119Z" transform="translate(-87.181 -11.324)"/><path class="f" d="M245.826,33.2v3.368h2.433v2.308h-2.433v7.8a1.684,1.684,0,0,0,.312,1.123,1.435,1.435,0,0,0,1.123.374l1.123-.125v2.433a7.734,7.734,0,0,1-2.058.312q-3.618,0-3.618-3.992V38.938H240.4v-2.37h2.308V33.2Z" transform="translate(-90.456 -12.492)"/><path class="f" d="M261.3,48.081l2.807-9.481h3.368l-5.551,16.03q-1.247,3.493-4.3,3.493a5.551,5.551,0,0,1-1.5-.249V55.565h.624a3.056,3.056,0,0,0,1.809-.437,2.869,2.869,0,0,0,.936-1.435l.437-1.185L255,38.6h3.368Z" transform="translate(-95.949 -14.524)"/></g></g></svg>