<svg xmlns="http://www.w3.org/2000/svg" xmlns:xlink="http://www.w3.org/1999/xlink" width="187.12" height="62.373" viewBox="0 0 187.12 62.373"><defs><style>.a{fill:none;}.b{clip-path:url(#a);}.c{opacity:0;}.d{fill:#fff;}.e{fill:#070707;}</style><clipPath id="a"><rect class="a" width="187.12" height="62.373"/></clipPath></defs><g transform="translate(93.56 31.187)"><g class="b" transform="translate(-93.56 -31.187)"><g class="c"><g class="b"><rect class="d" width="187.12" height="62.373"/></g></g><path class="e" d="M99.3,45.849a6.549,6.549,0,1,1,6.549,6.549A6.549,6.549,0,0,1,99.3,45.849m6.549,3.93a3.93,3.93,0,1,0-3.867-3.93,3.867,3.867,0,0,0,3.867,3.93" transform="translate(-37.363 -14.787)"/><path class="e" d="M266.455,45.911c.437,3.243-2.807,6.549-6.424,6.549a6.58,6.58,0,1,1,0-13.161c3.493-.062,6.861,3.243,6.424,6.612m-2.495-.062a3.93,3.93,0,1,0-3.93,3.93,3.93,3.93,0,0,0,3.93-3.93" transform="translate(-95.365 -14.787)"/><path class="e" d="M73.278,52.461l-3.306-2.994L63.111,43.1a.811.811,0,0,1-.312-.686V39.3l.374.312,9.793,8.919a1,1,0,0,1,.374.811V52.4" transform="translate(-23.629 -14.787)"/><path class="e" d="M150.741,52.436l-.437-.374-9.793-8.919a.873.873,0,0,1-.312-.686V39.4l.312.249,9.917,9.044a.686.686,0,0,1,.249.437v3.306" transform="translate(-52.752 -14.825)"/><path class="e" d="M176.9,39.3h2.807a.5.5,0,0,1,.312.249l3.306,6.113a.936.936,0,0,1,.125.437v6.05a1.5,1.5,0,0,1-.062.249h-2.557V46.972a1.934,1.934,0,0,0-.249-.873l-3.431-6.362L176.9,39.3" transform="translate(-66.562 -14.787)"/><path class="e" d="M224.191,39.3l5.239,13.1h-1.372c-.5,0-1.06.125-1.372-.062s-.437-.811-.624-1.247l-3.119-7.734a1.061,1.061,0,0,1,0-.873L224,39.8l.249-.5" transform="translate(-83.851 -14.787)"/><path class="e" d="M30.3,39.262l1.247,2.869a.561.561,0,0,1-.062.437l-4.179,9.543a.5.5,0,0,1-.374.249H24.5a2.432,2.432,0,0,1,.125-.5l5.551-12.35L30.3,39.2" transform="translate(-9.219 -14.75)"/><path class="e" d="M218.8,52.5l-1.435-3.431-2.308-5.8a.686.686,0,0,1-.062-.437l1.372-3.431.249.5,3.493,8.732a1,1,0,0,1,0,.624L218.8,52.5" transform="translate(-80.89 -14.825)"/><path class="e" d="M39.588,55.559h-2.62c-.062,0-.187-.125-.249-.249l-.624-1.372a.437.437,0,0,0-.5-.312h-2L36.033,47.7l3.555,7.859" transform="translate(-12.643 -17.948)"/><path class="e" d="M65.42,56.048H62.8V49l.249.187,2.121,2a.686.686,0,0,1,.249.374v4.491" transform="translate(-23.63 -18.437)"/><path class="e" d="M155.42,39.3v7.111l-.249-.187-2.121-2a.811.811,0,0,1-.249-.5c0-1.372,0-2.682,0-4.054,0-.312.062-.374.374-.374h2.245" transform="translate(-57.494 -14.787)"/><path class="e" d="M78.02,46.473l-2.433-2.308a.5.5,0,0,1-.187-.312V39.3h2.557Z" transform="translate(-28.371 -14.787)"/><path class="e" d="M142.82,56.011H140.2V48.9l.437.374.686.624c.5.437,1.185.873,1.435,1.435a5.621,5.621,0,0,1,.062,2.058v2.62" transform="translate(-52.753 -18.399)"/><path class="e" d="M208.8,56.111,211.669,49l.25.686,1.06,2.682a.811.811,0,0,1,0,.5L211.794,55.8a.437.437,0,0,1-.5.312H208.8" transform="translate(-78.564 -18.437)"/><path class="e" d="M191.258,39.3l-2.932,4.8-1.247-2.37a.374.374,0,0,1,0-.312l1.06-1.871.312-.187h2.807" transform="translate(-70.379 -14.787)"/></g></g></svg>