<svg xmlns="http://www.w3.org/2000/svg" xmlns:xlink="http://www.w3.org/1999/xlink" width="128.25" height="38" viewBox="0 0 128.25 38"><defs><style>.a{fill:none;}.b{clip-path:url(#a);}.c{fill:#a6a6a6;}.d{fill:#fff;}</style><clipPath id="a"><rect class="a" width="128.25" height="38" transform="translate(0)"/></clipPath></defs><g transform="translate(64.125 19)"><g class="b" transform="translate(-64.125 -19)"><path class="c" d="M123.337,38H4.452A4.459,4.459,0,0,1,0,33.534V4.465A4.459,4.459,0,0,1,4.452,0H123.337a4.553,4.553,0,0,1,4.547,4.466V33.534A4.553,4.553,0,0,1,123.337,38" transform="translate(0.366 0)"/><path d="M126.984,33.579a3.6,3.6,0,0,1-3.6,3.61H4.5a3.6,3.6,0,0,1-3.6-3.61V4.51A3.6,3.6,0,0,1,4.5.9H123.384a3.6,3.6,0,0,1,3.6,3.61Z" transform="translate(0.319 -0.045)"/><path class="d" d="M29.188,19.429a5.513,5.513,0,0,1,2.652-4.655A5.585,5.585,0,0,0,27.388,12.4c-1.895-.19-3.694,1.14-4.642,1.14s-2.463-1.14-3.979-1.045a5.871,5.871,0,0,0-4.926,3.04c-2.179,3.7-.568,9.215,1.516,12.255,1.042,1.52,2.273,3.135,3.789,3.04s2.084-.95,3.979-.95,2.368.95,3.979.95,2.652-1.52,3.694-2.945a12.173,12.173,0,0,0,1.705-3.42,5.32,5.32,0,0,1-3.221-4.94" transform="translate(-0.309 -0.619)"/><path class="d" d="M26.7,10.095A5.425,5.425,0,0,0,27.93,6.2a5.489,5.489,0,0,0-3.6,1.8,5.139,5.139,0,0,0-1.231,3.7A4.542,4.542,0,0,0,26.7,10" transform="translate(-0.851 -0.31)"/><path class="d" d="M53.01,30.835H50.926l-1.137-3.7H45.621l-1.137,3.7H42.4L46.473,18.2h2.463Zm-3.6-5.225-1.042-3.325L47.7,19.91h0l-.568,2.375L46,25.61Z" transform="translate(-1.869 -0.91)"/><path class="d" d="M64.21,26.353a5.234,5.234,0,0,1-1.231,3.7,3.69,3.69,0,0,1-2.747,1.235,2.745,2.745,0,0,1-2.558-1.33h0v4.845H55.495v-9.88q0-1.425-.095-3.04h1.8v1.425h0a3.594,3.594,0,0,1,5.778-.38,5.045,5.045,0,0,1,1.042,3.325m-2.084.095a3.808,3.808,0,0,0-.568-2.185,2.222,2.222,0,0,0-3.126-.38,2.281,2.281,0,0,0-.758,1.33,2.667,2.667,0,0,0-.095.57v1.52a2.474,2.474,0,0,0,.568,1.71,1.987,1.987,0,0,0,1.61.665,2.082,2.082,0,0,0,1.8-.855,3.9,3.9,0,0,0,.663-2.28" transform="translate(-2.554 -1.083)"/><path class="d" d="M75.21,26.353a5.234,5.234,0,0,1-1.231,3.7,3.69,3.69,0,0,1-2.747,1.235,2.745,2.745,0,0,1-2.558-1.33h0v4.845H66.495v-9.88q0-1.425-.095-3.04h1.8v1.425h0a3.594,3.594,0,0,1,5.778-.38,5.045,5.045,0,0,1,1.042,3.325m-2.084.095a3.713,3.713,0,0,0-.568-2.185,2.222,2.222,0,0,0-3.126-.38,2.281,2.281,0,0,0-.758,1.33,2.761,2.761,0,0,0-.095.57v1.52a2.475,2.475,0,0,0,.568,1.71,1.986,1.986,0,0,0,1.8.665,2.082,2.082,0,0,0,1.8-.855,3.9,3.9,0,0,0,.663-2.28" transform="translate(-3.134 -1.083)"/><path class="d" d="M87.568,27.309a3.329,3.329,0,0,1-1.137,2.66,4.917,4.917,0,0,1-3.41,1.14,6.049,6.049,0,0,1-3.221-.76l.474-1.71a5.483,5.483,0,0,0,2.937.855,2.741,2.741,0,0,0,1.8-.475,1.712,1.712,0,0,0,.663-1.425,1.807,1.807,0,0,0-.568-1.33,4.827,4.827,0,0,0-1.705-.95q-3.41-1.33-3.41-3.8a3.234,3.234,0,0,1,1.137-2.565A4.538,4.538,0,0,1,84.252,18a6.142,6.142,0,0,1,2.842.57l-.474,1.71a4.915,4.915,0,0,0-2.368-.57,2.458,2.458,0,0,0-1.705.57,1.618,1.618,0,0,0,.095,2.375,6.53,6.53,0,0,0,1.8.95,6.25,6.25,0,0,1,2.368,1.52,3.236,3.236,0,0,1,.758,2.185" transform="translate(-3.84 -0.9)"/><path class="d" d="M94.789,23.3H92.516v4.465q0,1.71,1.137,1.71H94.5v1.52l-1.61.19A2.459,2.459,0,0,1,91,30.425a3.618,3.618,0,0,1-.663-2.47V23.3H89.2V21.78h1.326V20.07l1.989-.57v2.28h2.273Z" transform="translate(-4.336 -0.975)"/><path class="d" d="M105.2,26.355a5.044,5.044,0,0,1-1.231,3.42,4.257,4.257,0,0,1-3.315,1.425,4.068,4.068,0,0,1-3.221-1.33A4.853,4.853,0,0,1,96.2,26.545a4.949,4.949,0,0,1,1.231-3.515,4.256,4.256,0,0,1,3.316-1.33,4.162,4.162,0,0,1,3.221,1.33,4.758,4.758,0,0,1,1.137,3.325m-2.084.1a4.094,4.094,0,0,0-.568-2.185,2.155,2.155,0,0,0-3.694,0,4.189,4.189,0,0,0-.568,2.185,4.093,4.093,0,0,0,.663,2.185,2.081,2.081,0,0,0,3.6,0,4.094,4.094,0,0,0,.568-2.185" transform="translate(-4.704 -1.085)"/><path class="d" d="M112.331,23.695h-.663a1.893,1.893,0,0,0-1.61.855,3.047,3.047,0,0,0-.474,1.8V31.1h-1.989V24.74q0-1.615-.095-2.85h1.8V23.6h.095a3.134,3.134,0,0,1,1.042-1.425,2.458,2.458,0,0,1,1.421-.475h.474Z" transform="translate(-5.3 -1.085)"/><path class="d" d="M121.746,26.08a4.763,4.763,0,0,1-.095.95h-6.063a2.664,2.664,0,0,0,.853,2.09,3.026,3.026,0,0,0,1.989.665,6.709,6.709,0,0,0,2.463-.475l.284,1.425a7.559,7.559,0,0,1-3.031.57,4.445,4.445,0,0,1-3.315-1.235,4.567,4.567,0,0,1-1.231-3.325,5.235,5.235,0,0,1,1.137-3.42,3.879,3.879,0,0,1,3.221-1.425,3.407,3.407,0,0,1,2.937,1.425,4.951,4.951,0,0,1,.758,2.85m-1.895-.57a2.761,2.761,0,0,0-.379-1.52,1.8,1.8,0,0,0-1.61-.855,1.893,1.893,0,0,0-1.61.855,3.045,3.045,0,0,0-.568,1.615h4.168Z" transform="translate(-5.622 -1.095)"/><path class="d" d="M48.721,9.849a3.14,3.14,0,0,1-.947,2.565,3.97,3.97,0,0,1-2.652.76H43.7V7h1.705a3.687,3.687,0,0,1,2.463.665,2.854,2.854,0,0,1,.853,2.185m-1.042,0a2.284,2.284,0,0,0-.568-1.71,2.269,2.269,0,0,0-1.705-.57h-.758v4.655h.663a2.364,2.364,0,0,0,1.8-.665,2.569,2.569,0,0,0,.663-1.9" transform="translate(-1.937 -0.349)"/><path class="d" d="M54.657,10.88a2.475,2.475,0,0,1-.568,1.71,2.081,2.081,0,0,1-1.61.665,1.987,1.987,0,0,1-1.61-.665,2.379,2.379,0,0,1-.568-1.615,2.475,2.475,0,0,1,.568-1.71,2.282,2.282,0,0,1,3.221,0,2.379,2.379,0,0,1,.568,1.615m-1.042,0a2,2,0,0,0-.284-1.045.947.947,0,0,0-.853-.57,1.042,1.042,0,0,0-.947.57,2.094,2.094,0,0,0-.284,1.045,2,2,0,0,0,.284,1.045,1.042,1.042,0,0,0,.947.57.947.947,0,0,0,.853-.57,2,2,0,0,0,.284-1.045" transform="translate(-2.285 -0.43)"/><path class="d" d="M62.436,8.7l-1.421,4.465h-.947l-.568-1.9a14.568,14.568,0,0,1-.379-1.425h0a10.662,10.662,0,0,1-.379,1.425l-.568,1.9h-.947L55.9,8.7h1.042l.474,2.09.284,1.425h0l.379-1.425.663-2.09h.853l.568,2.09.379,1.52h0a14.092,14.092,0,0,1,.284-1.52l.568-2.09h.947Z" transform="translate(-2.58 -0.435)"/><path class="d" d="M67.989,13.16h-.947V10.595q0-1.14-.853-1.14a.851.851,0,0,0-.758.285,1.142,1.142,0,0,0-.284.76v2.66H64.2V8.79h.758v.665h0a1.424,1.424,0,0,1,.474-.57l.853-.285a1.418,1.418,0,0,1,1.042.38A2,2,0,0,1,67.8,10.5Z" transform="translate(-3.018 -0.43)"/><rect class="d" width="0.947" height="6.536" transform="translate(66.676 6.27)"/><path class="d" d="M77.057,10.88a2.475,2.475,0,0,1-.568,1.71,2.081,2.081,0,0,1-1.61.665,1.986,1.986,0,0,1-1.61-.665,2.379,2.379,0,0,1-.568-1.615,2.475,2.475,0,0,1,.568-1.71,2.282,2.282,0,0,1,3.221,0,2.379,2.379,0,0,1,.568,1.615m-1.042,0a2,2,0,0,0-.284-1.045.995.995,0,0,0-1.8,0,2.1,2.1,0,0,0-.284,1.045,2,2,0,0,0,.284,1.045,1.042,1.042,0,0,0,.947.57.947.947,0,0,0,.853-.57,2,2,0,0,0,.284-1.045" transform="translate(-3.466 -0.43)"/><path class="d" d="M82.1,13.16h-.853v-.475h0a1.514,1.514,0,0,1-1.326.57,1.324,1.324,0,0,1-1.042-.38,1.237,1.237,0,0,1-.379-.95,1.426,1.426,0,0,1,.663-1.235,3.591,3.591,0,0,1,1.895-.38h0q0-.855-.947-.855a2.079,2.079,0,0,0-1.137.285l-.189-.76A2.835,2.835,0,0,1,80.3,8.6C81.437,8.6,82,9.17,82,10.4V12.02a7.052,7.052,0,0,0,.095,1.045m-1.042-1.52V10.88q-1.61,0-1.61.95a.666.666,0,0,0,.189.57l.474.19.568-.19a.855.855,0,0,0,.379-.57v-.19" transform="translate(-3.772 -0.43)"/><path class="d" d="M88.068,13.06h-.853V12.3h0a1.515,1.515,0,0,1-1.421.855,1.7,1.7,0,0,1-1.326-.665,2.474,2.474,0,0,1-.568-1.615,2.57,2.57,0,0,1,.568-1.8A1.8,1.8,0,0,1,85.889,8.4a1.325,1.325,0,0,1,1.231.57h0V6.6h.947v6.555m-1.042-1.9v-.76a1.428,1.428,0,0,0,0-.285,1.14,1.14,0,0,0-.379-.57l-.663-.285a1.041,1.041,0,0,0-.853.475,1.9,1.9,0,0,0-.284,1.14,1.809,1.809,0,0,0,.284,1.045,1.041,1.041,0,0,0,.853.475.946.946,0,0,0,.758-.38,1.237,1.237,0,0,0,.284-.855" transform="translate(-4.056 -0.33)"/><path class="d" d="M96.957,10.88a2.475,2.475,0,0,1-.568,1.71,2.081,2.081,0,0,1-1.61.665,1.987,1.987,0,0,1-1.61-.665,2.379,2.379,0,0,1-.568-1.615,2.475,2.475,0,0,1,.568-1.71,2.4,2.4,0,0,1,3.315,0,2.379,2.379,0,0,1,.568,1.615m-1.042,0a2,2,0,0,0-.284-1.045.947.947,0,0,0-.853-.57,1.042,1.042,0,0,0-.947.57,2.1,2.1,0,0,0-.284,1.045,2,2,0,0,0,.284,1.045,1.042,1.042,0,0,0,.947.57.947.947,0,0,0,.853-.57,2,2,0,0,0,.284-1.045" transform="translate(-4.515 -0.43)"/><path class="d" d="M102.684,13.16h-.947V10.595q0-1.14-.947-1.14a.851.851,0,0,0-.758.285,1.142,1.142,0,0,0-.284.76v2.66H98.8V8.79h.853v.665h0a1.424,1.424,0,0,1,.474-.57l.947-.285a1.419,1.419,0,0,1,1.042.38,2,2,0,0,1,.474,1.52Z" transform="translate(-4.842 -0.43)"/><path class="d" d="M109.742,9.4h-1.137V11.59q0,.855.568.855h.474v.76h-.758a1.23,1.23,0,0,1-.947-.38,1.809,1.809,0,0,1-.379-1.235V9.4H106.9v-.76h.663v-.76l.947-.285V8.645h1.137V9.4Z" transform="translate(-5.269 -0.38)"/><path class="d" d="M115.284,13.06h-1.042V10.59q0-1.235-.853-1.235a.947.947,0,0,0-.947.665,1.238,1.238,0,0,0-.095.38v2.66H111.4V6.6h.947V9.26h0a1.515,1.515,0,0,1,1.326-.76,1.418,1.418,0,0,1,1.137.38,2.094,2.094,0,0,1,.474,1.52Z" transform="translate(-5.506 -0.33)"/><path class="d" d="M120.984,10.79a2.38,2.38,0,0,1,0,.475h-3.031a1.331,1.331,0,0,0,.474,1.045,1.513,1.513,0,0,0,.947.285l1.231-.19.189.665a3.685,3.685,0,0,1-1.516.285,2.175,2.175,0,0,1-1.61-.57,2.284,2.284,0,0,1-.568-1.615,2.57,2.57,0,0,1,.568-1.71,1.893,1.893,0,0,1,1.516-.76,1.7,1.7,0,0,1,1.421.76,2.38,2.38,0,0,1,.379,1.425m-.947-.285a1.333,1.333,0,0,0-.189-.76.852.852,0,0,0-.758-.38.946.946,0,0,0-.758.38,1.523,1.523,0,0,0-.284.76Z" transform="translate(-5.806 -0.435)"/></g></g></svg>