<svg xmlns="http://www.w3.org/2000/svg" xmlns:xlink="http://www.w3.org/1999/xlink" width="187.119" height="62.373" viewBox="0 0 187.119 62.373"><defs><style>.a{fill:none;}.b{clip-path:url(#a);}.c{opacity:0;}.d{fill:#fff;}.e{fill:#47a5cf;}</style><clipPath id="a"><rect class="a" width="187.119" height="62.373"/></clipPath></defs><g transform="translate(93.559 31.186)"><g class="b" transform="translate(-93.559 -31.186)"><g class="c"><g class="b"><rect class="d" width="187.119" height="62.373"/></g></g><path class="e" d="M72.84,53.039a12.412,12.412,0,0,1-3.555,1.934,26.322,26.322,0,0,1-3.243.686,15.031,15.031,0,0,1-1.934.125,14.782,14.782,0,0,1-6.113-1,12.911,12.911,0,0,1-3.555-2.121A14.72,14.72,0,0,1,51.072,48.8a7.734,7.734,0,0,1-1.185,2.869,7.3,7.3,0,0,1-3.742,2.807,10.479,10.479,0,0,1-2.932.624c-2.807.125-5.614.062-8.42.125H30.239V34.265H28.056L25,27.4H41.654a9.543,9.543,0,0,1,6.05,2.058,6.736,6.736,0,0,1,2.433,4.117,15.452,15.452,0,0,1,.187,1.684c2.495-4.865,6.362-7.859,11.913-8.3,7.173-.561,11.664,3.306,13.473,6.424l-6.05,3.493a5.551,5.551,0,0,0-2.495-2.121,8.171,8.171,0,0,0-4.74-.811A6.923,6.923,0,0,0,59.243,35.2a7.048,7.048,0,0,0-2.807,4.428,8.109,8.109,0,0,0,.187,4.179,7.11,7.11,0,0,0,3.119,4.117,7.61,7.61,0,0,0,4.054,1.06,8.919,8.919,0,0,0,3.368-.437,5.3,5.3,0,0,0,3.181-3.056h-3.68l-2.994-6.237H77.393L81.26,27.4h8.67l9.106,27.818H91.365L90.18,51.23H81.136l-1.185,3.992H72.216l.624-2.245h0M37.412,48.735h4.428a2.308,2.308,0,0,0-.125-4.553h-4.3Zm50.959-3.742-2.744-9.169L82.944,44.93h5.364m-50.9-6.861h3.68a2.121,2.121,0,1,0,0-4.241h-3.68Zm11.788,3.8V39.442l-1.31,1.435,1.31,1" transform="translate(-9.407 -10.126)"/><path class="e" d="M196.829,50.623l-1.871-3.056v4.054H192.9V43.7h2.121l1.934,3.243,1.934-3.243h2.058v7.859h-2.058V47.5L197.2,50.249l-.374.374" transform="translate(-72.583 -16.443)"/><path class="e" d="M166.535,29.733h-.561L165.1,27.8h4.927a2.245,2.245,0,0,1,1.684,3.8,2.183,2.183,0,0,1,.873,2.37,2,2,0,0,1-1.809,1.622c-1.372.125-2.744,0-4.179,0Zm2.183,2.807v1.185h1.372l.374-.374c.125-.748-.5-1-1.746-.811m0-1.871h1.123l.374-.249v-.5l-.312-.249h-1.185Z" transform="translate(-62.122 -10.46)"/><path class="e" d="M185.793,31.511a4.048,4.048,0,0,1,4.3-4.117,4.179,4.179,0,1,1-.374,8.3,4.054,4.054,0,0,1-3.93-4.179m2.058-.062a2.027,2.027,0,1,0,0-.062" transform="translate(-69.904 -10.304)"/><path class="e" d="M174.455,45.2l-1.746,1a2.183,2.183,0,0,0-2.557-.624,2.058,2.058,0,0,0-1.185,2.121c.312,1.435,1,1.871,2.121,1.934a1.622,1.622,0,0,0,1.684-1H171.9l-.936-1.746h3.992c.312,2-.437,3.929-2.495,4.491s-4.678-.249-5.426-2.557a4.117,4.117,0,0,1,7.36-3.618" transform="translate(-62.745 -16.263)"/><path class="e" d="M271.2,27.762v7.8H269.64l-2.62-3.68v3.68H264.9V27.7h1.684l2.557,3.68V27.762Z" transform="translate(-99.674 -10.423)"/><path class="e" d="M216.021,63.941v3.618H213.9V59.7h1.684l2.62,3.68V59.7h2v7.859H218.64l-2.557-3.618h-.062" transform="translate(-80.484 -22.463)"/><path class="e" d="M235.9,35.6V27.8h2.058v2.807h2.058V27.8h2.121v7.8h-2.121V32.727h-2.058V35.6Z" transform="translate(-88.762 -10.46)"/><path class="e" d="M249.257,34.6l-.312,1.06H246.7l2.557-7.859h2.557l2.557,7.8h-2.245l-.374-1.06Zm1.247-4.3-.686,2.37h1.372l-.686-2.37" transform="translate(-92.826 -10.46)"/><path class="e" d="M205.915,66.436H203.42l-.374,1.123H200.8l2.62-7.859h2.495l2.557,7.859h-2.245l-.374-1.123m-.5-1.809-.686-2.433-.686,2.37Z" transform="translate(-75.555 -22.463)"/><path class="e" d="M171.452,59.7l2.557,7.859h-2.245l-.312-1.123H169.02l-.374,1.123H166.4l2.557-7.859Zm-.561,4.927-.748-2.37-.686,2.37Z" transform="translate(-62.612 -22.463)"/><path class="e" d="M182.357,43.7h2.557l2.557,7.859h-2.245l-.374-1.06h-2.495l-.312,1.123H179.8l2.557-7.859m2,4.927-.686-2.433-.686,2.37Z" transform="translate(-67.654 -16.443)"/><path class="e" d="M215.058,32.44v3.119H213v-7.8h2v2.932h.062l1.934-2.994h2.37l-2.495,3.8,2.557,4.054h-2.37l-2-3.181h-.125" transform="translate(-80.146 -10.423)"/><path class="e" d="M212.752,51.559H207.7V43.7h4.99v1.934h-2.932v1h2.62V48.5h-2.62v1.123h2.994Z" transform="translate(-78.152 -16.443)"/><path class="e" d="M230.342,29.3l-1.809,1.06a1.871,1.871,0,0,0-2.183-.873,1.934,1.934,0,0,0-1.5,1.934,2,2,0,0,0,1.5,2.058,1.934,1.934,0,0,0,2.183-.873l1.809,1.06a3.992,3.992,0,0,1-4.865,1.746,3.939,3.939,0,0,1-2.682-4.3,3.93,3.93,0,0,1,2.869-3.618,4.054,4.054,0,0,1,4.678,1.809" transform="translate(-83.828 -10.277)"/><path class="e" d="M205.617,32.691l1.809,1.06a4.054,4.054,0,0,1-7.547-1.622,3.936,3.936,0,0,1,2.433-4.428,4.117,4.117,0,0,1,5.115,1.622l-1.809,1.06a2.024,2.024,0,1,0-2.183,3.119,1.871,1.871,0,0,0,2.183-.873" transform="translate(-75.196 -10.299)"/><path class="e" d="M243.627,59.7v1.934h-2.869v1h2.62V64.5h-2.62v1.123h2.994v1.934H238.7V59.7Z" transform="translate(-89.816 -22.463)"/><path class="e" d="M231.253,64.581l1.809,1c-.624,1.435-2.433,2.183-4.366,1.871a3.742,3.742,0,0,1-3.119-3.431,3.917,3.917,0,0,1,2.37-4.428,4.054,4.054,0,0,1,5.115,1.622l-1.809,1.06a2.07,2.07,0,0,0-3.119-.374,2.183,2.183,0,0,0,.062,3.056,2,2,0,0,0,3.056-.374" transform="translate(-84.864 -22.292)"/><path class="e" d="M179.5,67.559V59.7h2v5.8h2.682v2.058Z" transform="translate(-67.541 -22.463)"/><path class="e" d="M190.158,59.7v5.8h2.682v2.058H188.1V59.7Z" transform="translate(-70.777 -22.463)"/><path class="e" d="M178.2,27.7h2v5.925h2.682v1.934H178.2Z" transform="translate(-67.052 -10.423)"/><rect class="e" width="1.996" height="7.847" transform="translate(162.045 17.277)"/><rect class="e" width="1.996" height="7.847" transform="translate(122.75 37.237)"/></g></g></svg>