<svg xmlns="http://www.w3.org/2000/svg" xmlns:xlink="http://www.w3.org/1999/xlink" width="187.12" height="62.373" viewBox="0 0 187.12 62.373"><defs><style>.a,.g{fill:none;}.b{clip-path:url(#a);}.c{opacity:0;}.d{fill:#fff;}.e{clip-path:url(#c);}.f{clip-path:url(#d);}.g{stroke:#707070;stroke-width:4.391px;}.h{fill:#3fc18d;}.i{opacity:0.5;}.j{clip-path:url(#g);}.k{opacity:0.25;}</style><clipPath id="a"><rect class="a" width="187.12" height="62.373"/></clipPath><clipPath id="c"><rect class="a" width="32.185" height="32.21"/></clipPath><clipPath id="d"><rect class="a" width="35.303" height="35.31"/></clipPath><clipPath id="g"><rect class="a" width="7.734" height="7.728"/></clipPath></defs><g transform="translate(93.56 31.187)"><g class="b" transform="translate(-93.56 -31.187)"><g class="c"><g class="b"><rect class="d" width="187.12" height="62.373"/></g></g><path d="M75.825,43.128l1,.437a4.366,4.366,0,0,1,2.744,4.74c-.374,3.243-2.807,4.491-4.99,4.927a11.539,11.539,0,0,1-2.183.187H64.473c-.873,0-.873,0-.873-.811V34.4c0-.125.187-.5.5-.5h7.859a11.04,11.04,0,0,1,4.491.811,4.117,4.117,0,0,1,2.62,3.243,4.241,4.241,0,0,1-2.495,4.8l-.686.312m-5.364,7.485h1.934l1.185-.187a2.37,2.37,0,0,0,1.746-2.183c.125-1.185,0-2.308-1.185-2.932a4.678,4.678,0,0,0-1-.374H68.278c-.374,0-.561.125-.561.561q.062,2.37.062,4.74c0,.374.187.5.5.5h2.183m.062-8.732h2.245A2.121,2.121,0,0,0,74.827,40.2a2.4,2.4,0,0,0-2.183-3.119,34.6,34.6,0,0,0-4.366-.062c-.374,0-.5.187-.5.5,0,1.31,0,2.62-.062,3.93s.125.561.561.561h2.245Z" transform="translate(-23.931 -12.753)"/><path d="M258.7,43.857c2.557-2.932,6.923-2.62,8.358.561l.624-.811A4.777,4.777,0,0,1,273.6,42.3c1.622.811,2,2.058,2.245,3.555a18.033,18.033,0,0,1,.125,2.308c0,2.557.062,5.052.062,7.61,0,.748,0,.748-.749.748H272.42c-.561,0-.624,0-.624-.624V47.1a3.558,3.558,0,0,0-.125-.873,1.746,1.746,0,0,0-3.056-.686,4.179,4.179,0,0,0-1,2.121,10.29,10.29,0,0,0-.187,1.746c0,2.058,0,4.179,0,6.237,0,.811,0,.811-.748.811h-2.807a.5.5,0,0,1-.561-.561c0-.374.062-.873.062-1.31,0-2.308.062-4.616.062-6.923a8.548,8.548,0,0,0-.125-1.247,1.767,1.767,0,0,0-3.243-.811,4.366,4.366,0,0,0-1,2.682c-.062,1.247-.062,2.557-.062,3.867s0,2.495.062,3.742-.125.561-.561.561h-3.119c-.374,0-.561-.187-.5-.561a5.322,5.322,0,0,0,0-1V42.609a.374.374,0,0,1,.374-.374h3.181c.312,0,.437.187.374.5v1.185" transform="translate(-95.903 -15.727)"/><path d="M146.975,41.562c.873.187,1.809.249,2.682.5a5.925,5.925,0,0,1,4.117,4.054,9.356,9.356,0,0,1-.125,6.237,6.113,6.113,0,0,1-4.429,3.992,8.982,8.982,0,0,1-5.115-.125,6.349,6.349,0,0,1-4.491-5.426,10.1,10.1,0,0,1,.125-3.992,6.549,6.549,0,0,1,6.362-5.177h.811V41.5m3.056,7.8a8.483,8.483,0,0,0-.748-3.493,2.5,2.5,0,0,0-2.183-1.372,2.682,2.682,0,0,0-2.994,2,9.793,9.793,0,0,0-.062,5.489,3.367,3.367,0,0,0,.312.748,2.433,2.433,0,0,0,1.185,1.06,2.807,2.807,0,0,0,3.992-1.871,22.516,22.516,0,0,0,.437-2.62" transform="translate(-52.479 -15.615)"/><path d="M234.093,56.455a6.05,6.05,0,0,1-4.429-4.429,9.605,9.605,0,0,1,0-5.426,6.487,6.487,0,0,1,5.863-4.74,9.481,9.481,0,0,1,3.555.249,6.337,6.337,0,0,1,4.74,5.239,10.042,10.042,0,0,1-.125,4.366,6.647,6.647,0,0,1-6.487,5.177h-.624m3.243-7.36a10.665,10.665,0,0,0-.5-3.056,2.869,2.869,0,0,0-5.364.125,9.918,9.918,0,0,0-.062,5.489,3.12,3.12,0,0,0,.312.748,2.37,2.37,0,0,0,1.622,1.247c1.684.374,3.119-.125,3.618-2a21.453,21.453,0,0,0,.374-2.495" transform="translate(-86.268 -15.725)"/><path d="M177.222,43.856l.686-.624a5.925,5.925,0,0,1,5.364-1.247,4.241,4.241,0,0,1,3.181,2.869,6.861,6.861,0,0,1,.374,2.121c.062,2.869.062,5.8.062,8.67,0,.811,0,.811-.811.811h-2.495c-.811,0-.811,0-.811-.873V47.723a5.986,5.986,0,0,0-.125-1.06,2.229,2.229,0,0,0-3.742-1.247,3.867,3.867,0,0,0-1.435,2.744,23.45,23.45,0,0,0-.062,2.62c0,1.684.062,3.368.062,5.052,0,.624,0,.624-.624.624h-2.994c-.437,0-.624-.125-.561-.561s0-1.934,0-2.932V42.608a.394.394,0,0,1,.437-.437h3.119c.374,0,.5.187.437.561s-.062.624-.125,1.185" transform="translate(-65.2 -15.725)"/><path d="M127.366,47.187h-.624a2.433,2.433,0,0,1-1.06-.125c-.249-.125-.249-.561-.374-.873a2.433,2.433,0,0,0-2.245-1.622,2.62,2.62,0,0,0-2.682,1.5,5.426,5.426,0,0,0-.5,1.622,9.73,9.73,0,0,0,.249,4.366,2.792,2.792,0,0,0,3.306,2.058,2.245,2.245,0,0,0,1.809-1.372,5.989,5.989,0,0,0,.312-.936c.187-.686.187-.748.873-.748h2.495c.561,0,.624.062.561.686a5.738,5.738,0,0,1-1.372,2.994,6.424,6.424,0,0,1-4.241,2.121,8.483,8.483,0,0,1-3.8-.374,6.113,6.113,0,0,1-3.93-3.8A9.169,9.169,0,0,1,116.2,46a6.29,6.29,0,0,1,5.614-4.054,8.109,8.109,0,0,1,4.366.561,5.427,5.427,0,0,1,3.119,3.93c.187.686.062.748-.686.811h-1.185" transform="translate(-43.474 -15.75)"/><path d="M217.19,47.078h-.561c-.873.125-1.31-.125-1.622-1.06a2.623,2.623,0,0,0-4.491-.624,4.367,4.367,0,0,0-.873,2.433,10.791,10.791,0,0,0,.187,3.618,2.908,2.908,0,0,0,1.934,2.37,2.853,2.853,0,0,0,3.555-1.871c.5-1.746.312-1.123,1.435-1.123h1.809c.811,0,.936.125.748.936a5.925,5.925,0,0,1-2.433,3.742,7.61,7.61,0,0,1-5.676,1.06,6.424,6.424,0,0,1-4.616-2.869,6.737,6.737,0,0,1-1-2.62,9.917,9.917,0,0,1,.249-4.8,6.545,6.545,0,0,1,5.8-4.616,8.3,8.3,0,0,1,3.68.312,5.489,5.489,0,0,1,3.742,4.117v.374c.062.312-.062.5-.437.5H217.19Z" transform="translate(-77.287 -15.641)"/><path d="M108.794,51.844v2.308a.561.561,0,0,1-.312.374,6.016,6.016,0,0,1-5.177-.187,3.8,3.8,0,0,1-1.934-3.493V44.3c0-.249.125-1-.936-.936H100a.459.459,0,0,1-.5-.5V41.053c0-.561.187-.5.561-.5h1.185a9.306,9.306,0,0,0,.125-1.31V37.5c0-.561.125-.5.5-.5h3.119c.374,0,.5.187.5.5v1.934c0,.624.062,1.185,1.185,1.185h1.622c.624,0,.624,0,.686.686a10.823,10.823,0,0,1,0,1.435c0,.437-.062.686-.748.748h-2.121c-.561,0-.624.062-.624.624V50.6c.125,1.372.748,1.871,2.121,1.622l1.247-.187" transform="translate(-37.439 -13.921)"/><path d="M95.117,49.53v6.424c0,.686,0,.686-.686.748H91.624c-.624,0-.624,0-.624-.686V43.044c0-1.185,0-.624.624-.624h2.932c.624,0,.624,0,.624.686v6.487" transform="translate(-34.24 -15.911)"/><path d="M168.817,49.571V56c0,.748,0,.748-.748.748h-2.62c-.748,0-.748,0-.748-.811s.062-3.368.062-5.052,0-4.927-.062-7.422c0-1.185,0-1.06,1.06-1.06h2.37c.748,0,.748,0,.748.748v6.424Z" transform="translate(-61.971 -15.951)"/><path d="M199.221,59.005h1.559c.374,0,.561.125.561.561v2.807c0,.936-.062.5-.437.5h-3.368c-.312,0-.437-.125-.437-.437V59.442c0-1,.187-.437.5-.437h1.622Z" transform="translate(-74.162 -22.142)"/><path d="M166.758,37.685h-1.372c-.624,0-.686-.062-.686-.686V34.5c0-.873.125-.624.561-.624h3.119c.312,0,.5.125.5.5v2.807c0,.936-.125.437-.437.437h-1.684Z" transform="translate(-61.971 -12.736)"/><path d="M93.021,37.71H91.461c-.374,0-.561-.125-.561-.561v-2.62c0-.873.187-.561.561-.561H94.58a.5.5,0,0,1,.561.561v2.62c0,.873-.125.561-.561.561H93.021" transform="translate(-34.203 -12.76)"/><g class="e" transform="translate(7.048 15.094)"><g class="c" transform="translate(-1.559 -1.559)"><g class="f"><g class="e" transform="translate(1.559 1.559)"><rect class="d" width="30.937" height="30.925" transform="translate(0.624 0.624)"/><rect class="g" width="30.937" height="30.925" transform="translate(0.624 0.624)"/></g></g></g><rect class="h" width="7.734" height="7.728" transform="translate(20.334 4.491)"/></g><g class="e" transform="translate(7.048 15.094)"><g class="i" transform="translate(12.662 4.491)"><g class="j"><rect class="h" width="7.734" height="7.728"/></g></g><g class="k" transform="translate(4.927 4.491)"><g class="j"><rect class="h" width="7.734" height="7.728"/></g></g><g class="i" transform="translate(20.334 12.225)"><g class="j"><rect class="h" width="7.734" height="7.728"/></g></g><g class="k" transform="translate(20.334 19.959)"><g class="j"><rect class="h" width="7.734" height="7.728"/></g></g><rect class="h" width="7.734" height="7.728" transform="translate(12.662 12.225)"/><rect class="h" width="7.734" height="7.728" transform="translate(4.927 19.959)"/></g><g class="e" transform="translate(7.048 15.094)"><g class="i" transform="translate(4.927 12.225)"><g class="j"><rect class="h" width="7.734" height="7.728"/></g></g><g class="i" transform="translate(12.662 19.959)"><g class="j"><rect class="h" width="7.734" height="7.728"/></g></g></g></g></g></svg>