<svg xmlns="http://www.w3.org/2000/svg" xmlns:xlink="http://www.w3.org/1999/xlink" width="187.12" height="62.373" viewBox="0 0 187.12 62.373"><defs><style>.a{fill:none;}.b{clip-path:url(#a);}.c{opacity:0;}.d{fill:#fff;}.e{fill:#464648;}.f{fill:#d53127;}.g{fill:#f47320;}.h{clip-path:url(#c);}.i{fill:url(#d);}</style><clipPath id="a"><rect class="a" width="187.12" height="62.373"/></clipPath><clipPath id="c"><path class="a" d="M44.3,44.266h3.742c.686.062,1.934,1.185,1.559,3.181l11.227-5.489c-.686-7.921-6.3-8.233-6.3-8.233L47.419,33.6Z" transform="translate(-44.3 -33.6)"/></clipPath><linearGradient id="d" x1="-1.181" y1="2.181" x2="-1.152" y2="2.181" gradientUnits="objectBoundingBox"><stop offset="0" stop-color="#f47320"/><stop offset="0.41" stop-color="#f47320"/><stop offset="0.5" stop-color="#f16d21"/><stop offset="0.62" stop-color="#e95c22"/><stop offset="0.75" stop-color="#dc4125"/><stop offset="0.81" stop-color="#d53127"/><stop offset="1" stop-color="#d53127"/></linearGradient></defs><g transform="translate(93.56 31.187)"><g class="b" transform="translate(-93.56 -31.187)"><g class="c"><g class="b"><rect class="d" width="187.12" height="62.373"/></g></g><path class="e" d="M266.732,50.986c-.374,1.06-.686,2.183-1.123,3.243a10.541,10.541,0,0,1-10.6,6.986,8.732,8.732,0,0,1-2.994-.686,4.4,4.4,0,0,1-2.62-4.616,20.582,20.582,0,0,1,.686-3.8c1.123-4.366,2.37-8.732,3.555-13.1.374-1.31.374-1.31,1.746-1.31h.748c1.871.062,2.62,1.06,2.183,2.869s-.561,2.058-.811,3.119-.062.5-.125.811l2.807-.936c2.495-.624,5.614.312,6.3,3.493a1.185,1.185,0,0,0,.187.312Zm-7.547-2.869a2.744,2.744,0,0,0-2.183.936,8.334,8.334,0,0,0-2.121,5.115,2.019,2.019,0,0,0,1,2.308,2.682,2.682,0,0,0,2.932-.312,7.244,7.244,0,0,0,2.557-6.175c-.062-1.372-.686-1.871-2.183-1.871" transform="translate(-93.833 -14.185)"/><path class="e" d="M216.23,64.562h-5.052l1.06-4.054c.437-1.5.873-3.056,1.247-4.553a10.168,10.168,0,0,0,.312-1.871c.062-.936,0-2.058-1.06-2.433a2.994,2.994,0,0,0-3.119.5,7.048,7.048,0,0,0-2.058,3.618L205.19,64.5H200.2c.125-.624.249-1.247.374-1.809l3.867-14.1c.561-2.183.249-1.746,2.308-1.809a2.557,2.557,0,0,1,2.682,1.5c2.994-1.622,5.988-2.433,8.857.5a13.972,13.972,0,0,1,5.925-1.871c3.431-.437,5.8,1.5,5.925,4.99a13.846,13.846,0,0,1-.374,3.68c-.748,3.056-1.622,6.05-2.433,9.106h-5.115l.748-2.869,1.746-6.549a4.491,4.491,0,0,0,.187-1,2.577,2.577,0,0,0-1-2.495,2.975,2.975,0,0,0-3.119.5,6.861,6.861,0,0,0-2.121,3.742l-2.121,7.8a4.89,4.89,0,0,1-.312.873" transform="translate(-75.329 -17.595)"/><path class="e" d="M89.167,37.7H91.35c1.746.062,2.557,1.123,2.121,2.807s-.686,2.62-1.06,4.054a22.268,22.268,0,0,1,2.557-.873,7.423,7.423,0,0,1,2.557-.249,4.53,4.53,0,0,1,4.3,4.74c.187,4.74-1.372,8.795-5.426,11.477a9.73,9.73,0,0,1-9.107,1c-2.121-.811-3.243-3.119-2.682-5.8s1.247-4.99,1.934-7.422l2.62-9.73m.811,16.217c-.062,1.684.312,2.495,1.123,2.682a3.056,3.056,0,0,0,2.869-.5A7.3,7.3,0,0,0,96.4,50.8a2.107,2.107,0,0,0-1-2.433,2.932,2.932,0,0,0-3.119.437,7.777,7.777,0,0,0-2.37,5.115" transform="translate(-31.783 -14.185)"/><path class="e" d="M147.724,37.7h2.308a2,2,0,0,1,2.058,2.682c-.374,1.559-.686,2.682-1.06,4.117a31.748,31.748,0,0,1,3.368-.936c3.056-.5,5.489,1.123,5.863,4.241a9.668,9.668,0,0,1-.062,3.181c-.811,3.431-1.746,6.8-2.62,10.229H152.34l1.185-4.491c.374-1.372.811-2.807,1.123-4.179a10.415,10.415,0,0,0,.312-1.871c.062-.936,0-1.934-1-2.308a2.994,2.994,0,0,0-3.119.5,6.424,6.424,0,0,0-1.934,3.243l-2.121,7.61-.437,1.5H141.3L147.724,37.7" transform="translate(-53.166 -14.185)"/><path class="e" d="M175.939,47.662h5.177l-1.06,3.93c-.561,2.121-1.185,4.179-1.684,6.3s.873,3.306,2.932,2.744a4.054,4.054,0,0,0,2.994-3.181l2.37-8.795.312-1.06h4.927a9.683,9.683,0,0,1-.249,1.31l-2.495,9.044c-1.559,5.863-7.8,8.233-12.225,7.173-3.368-.811-4.8-2.994-4.054-6.362s1.934-7.422,2.932-11.165" transform="translate(-64.977 -17.91)"/><path class="e" d="M133.37,57.373a30.7,30.7,0,0,1-.936,3.306,1.123,1.123,0,0,1-.748.624,42.912,42.912,0,0,1-4.99-.125c-1.5-.187-2.058-1.123-1.746-2.62s.437-1.809.686-2.744L130.189,39.1a8.885,8.885,0,0,1,.312-1h2.37a1.93,1.93,0,0,1,2,2.557c-.312,1.5-.561,2.245-.873,3.493h3.056c-.125,2.62-1.247,3.742-4.179,4.179l-2.37,8.732,2.932.312" transform="translate(-46.983 -14.336)"/><path class="e" d="M116.177,64.836H111L115.553,48h2.62a1.871,1.871,0,0,1,1.934,2.495c-.374,1.684-.873,3.306-1.31,4.927l-2.183,8.233-.374,1.123" transform="translate(-41.766 -18.056)"/><path class="e" d="M122.968,37.494a1.871,1.871,0,0,1,2,2.37,3.61,3.61,0,0,1-3.618,2.807,1.746,1.746,0,0,1-1.746-1.684,3.431,3.431,0,0,1,3.306-3.493" transform="translate(-45.001 -14.104)"/><path class="f" d="M24.647,33.5h5.614L25.895,44.166a3.447,3.447,0,0,1-2.994-2,3.181,3.181,0,0,1-.062-1.809Z" transform="translate(-8.555 -12.605)"/><path class="g" d="M46.885,28.005l-7.111-.125,1.622-5.3a3.243,3.243,0,0,0-2.183-4.054l-.936-.125H31.728L24.305,45.1S21.623,56.51,31.728,57.57c0,0,15.968,3.243,21.082-16.03,0,0,2.682-11.664-5.988-13.535m-4.8,13.286s-.312,4.927-3.992,5.8a2.433,2.433,0,0,1-1.622-.187,2.245,2.245,0,0,1-1.185-2.183,4.179,4.179,0,0,1,.187-1.123l1.372-5.115h3.742a2.541,2.541,0,0,1,1.5,2.807" transform="translate(-9.024 -6.923)"/><g class="h" transform="translate(27.631 20.957)"><rect class="i" width="21.332" height="20.546" transform="matrix(0.838, -0.546, 0.546, 0.838, -6.335, 4.155)"/></g></g></g></svg>