<svg xmlns="http://www.w3.org/2000/svg" xmlns:xlink="http://www.w3.org/1999/xlink" width="156.741" height="16.945" viewBox="0 0 156.741 16.945"><defs><style>.a{fill:none;}.b{clip-path:url(#a);}.c{fill:#ee5a2f;}.d{fill:#f37029;}.e{fill:#f69220;}.f{fill:#039bb1;}.g{fill:#38c5ed;}.h{fill:#f37326;}.i{fill:#f7991e;}.j{fill:#f37427;}.k{fill:#f8931d;}.l{fill:#00a8cb;}.m{fill:#01b7d4;}.n{fill:#008a9f;}.o{fill:#0181b5;}.p{fill:#a20994;}.q{fill:#e26ec2;}.r{fill:#771f80;}.s{fill:#db3bbf;}.t{fill:#d60eb1;}</style><clipPath id="a"><rect class="a" width="156.741" height="16.945"/></clipPath></defs><g transform="translate(78.37 8.473)"><g class="b" transform="translate(-78.37 -8.473)"><path class="c" d="M28.817,5.045a3.622,3.622,0,0,0-1.045-2.682A5.974,5.974,0,0,0,23.348.9H23l5.469,5.886a3.866,3.866,0,0,0,.383-1.742" transform="translate(-14.989 -0.587)"/><path class="d" d="M11.32,8.7a4.075,4.075,0,0,0,2.125-1.881L8.011.9H0V17.2H6.13l8.255-5.817A4.211,4.211,0,0,0,11.32,8.667M4.389,4.557H7.315c1.358,0,2.055.522,2.055,1.393S8.6,7.413,7.245,7.413H4.389Zm3.483,9.021H4.389v-3H7.837c1.5,0,2.194.592,2.194,1.463s-.8,1.533-2.16,1.533" transform="translate(0 -0.587)"/><path class="e" d="M26.029,32.324A4.668,4.668,0,0,0,25.855,31L17.6,36.817h2.264c3.9,0,6.165-1.707,6.165-4.493" transform="translate(-11.47 -20.202)"/><path class="c" d="M47.1,26.9Z" transform="translate(-30.694 -17.53)"/><path class="c" d="M52.116,34.145H59.5V31.184l-2.856-.975H51.628V28.467L47.1,26.9Z" transform="translate(-30.694 -17.53)"/><path class="d" d="M47.1,26.9Z" transform="translate(-30.694 -17.53)"/><path class="e" d="M47.1,9.956l4.528,1.567V.9H47.1V9.956Z" transform="translate(-30.694 -0.587)"/><path class="e" d="M77.356,36.4H74.5l2.856.975Z" transform="translate(-48.551 -23.721)"/><path class="e" d="M47.1,26.935h0v0Z" transform="translate(-30.694 -17.53)"/><path class="d" d="M47.1,26.935v7.21h5.016L47.1,26.9Z" transform="translate(-30.694 -17.53)"/><path class="f" d="M121.8,23.2a8.325,8.325,0,0,0,4.145-6.862L123.751,11.5Z" transform="translate(-79.375 -7.494)"/><path class="g" d="M129.429,16.081V15.7a8.394,8.394,0,0,0-1.358-4.6l-.871.139Z" transform="translate(-82.895 -7.234)"/><path class="c" d="M97,44.3h.592L90.9,42A8.847,8.847,0,0,0,97,44.334" transform="translate(-59.238 -27.371)"/><path class="h" d="M94.328,0h-.035A8.743,8.743,0,0,0,86.7,4.142l3.448,4.11a4.133,4.133,0,0,1,4.11-4.18,4.283,4.283,0,0,1,4.18,4.389,4.188,4.188,0,0,1-4.145,4.389h-.279l3.065,3.657a8.777,8.777,0,0,0,1.811-.8L100.807,4Z" transform="translate(-56.501 0.003)"/><path class="i" d="M114.208,1.915A8.917,8.917,0,0,0,108.6,0L115.113,4Z" transform="translate(-70.773 0.001)"/><path class="j" d="M124.7,5.5l.906,2.09.383-.8A8.289,8.289,0,0,0,124.7,5.5" transform="translate(-81.265 -3.584)"/><path class="k" d="M128.171,9.862l-.488-.662-.383.8Z" transform="translate(-82.96 -5.996)"/><path class="e" d="M87.932,16.219V16.01L84.484,11.9a8.489,8.489,0,0,0,1.463,10.484l6.722,2.3a9.3,9.3,0,0,0,2.229-.418l-3.065-3.657a4.259,4.259,0,0,1-3.9-4.389" transform="translate(-54.285 -7.755)"/><path class="g" d="M140.01,6.067A8.464,8.464,0,0,0,138.2,11.4a8.284,8.284,0,0,0,8.394,8.464l1.149-.07L148.4,15.4a4.145,4.145,0,0,1-1.672.313,4.056,4.056,0,0,1-3.9-4.354c0-2.438,1.6-4.354,3.9-4.354a4.075,4.075,0,0,1,2.787,1.045l.557-3.553Z" transform="translate(-90.062 -2.933)"/><path class="l" d="M171.6,33.6l-3.413-2.4a5.434,5.434,0,0,1-2.02,1.672l-.662,4.389a8.143,8.143,0,0,0,6.1-3.622" transform="translate(-107.854 -20.333)"/><path class="l" d="M170.7,8.253a6.444,6.444,0,0,1,.8.836l1.707-1.324L171.257,4.7Z" transform="translate(-111.243 -3.063)"/><path class="k" d="M153.4.555A8.917,8.917,0,0,0,150.157,0,8.534,8.534,0,0,0,143.4,3.132L153.466,1.6Z" transform="translate(-93.452 0.002)"/><path class="m" d="M172.17,2.745h1.811A7.315,7.315,0,0,0,172.1,1.7Z" transform="translate(-112.155 -1.108)"/><path class="g" d="M174.251,7.665l1.6-1.219A8.813,8.813,0,0,0,174.111,4.6H172.3Z" transform="translate(-112.286 -2.998)"/><path class="m" d="M217.1,38.185h5.434L219.02,33.1,217,38.046Z" transform="translate(-141.416 -21.571)"/><path class="l" d="M187.9,35.513h4.145L187.9,29Z" transform="translate(-122.452 -18.899)"/><path class="l" d="M232.039.9H231.9l.07.1Z" transform="translate(-151.126 -0.587)"/><path class="m" d="M220.37,1,220.3.9h-5.225L214.1,2.084l5.364-.035Z" transform="translate(-139.526 -0.587)"/><path class="m" d="M192.393,2.119V.9H187.9V2.154Z" transform="translate(-122.452 -0.587)"/><path class="g" d="M187.9,12.838l4.145,6.513h.348V15.137l1.672-1.846,3.971,5.921,2.02-4.946-2.856-4.18L202.39,4.2l-5.364.035-4.633,5.434V4.27L187.9,4.3Z" transform="translate(-122.452 -2.737)"/><path class="m" d="M231.7,37.737a9.683,9.683,0,0,0,1.428,1.045l-.07-2.682Z" transform="translate(-150.996 -23.526)"/><path class="m" d="M234,11.842a4.563,4.563,0,0,0,.418,2.02l-.1-3.762A5.085,5.085,0,0,0,234,11.842" transform="translate(-152.492 -6.582)"/><path class="l" d="M234.8,8.08l.1,3.762c.8,1.672,2.717,2.4,5.085,3L235.357,7a4.667,4.667,0,0,0-.557,1.045" transform="translate(-153.016 -4.562)"/><path class="l" d="M242.109,34.085a8.394,8.394,0,0,1-5.26-1.985L235.7,33.493l.07,2.682a11.947,11.947,0,0,0,6.2,1.637,9.718,9.718,0,0,0,2.4-.279l-2.055-3.483h-.174" transform="translate(-153.603 -20.919)"/><path class="g" d="M236.4,2.5l4.667,7.837.627.139c2.194.522,2.752.871,2.752,1.567s-.592,1.115-1.672,1.149l2.055,3.483c2.578-.662,4.18-2.438,4.18-5.016s-2.334-4.319-6.061-5.12c-2.264-.522-2.821-.836-2.821-1.567s.522-1.08,1.637-1.08a8.185,8.185,0,0,1,4.563,1.6l2.264-3.2A10.393,10.393,0,0,0,241.869.1h-.522l-3,.766A5.085,5.085,0,0,0,236.4,2.5" transform="translate(-154.059 -0.065)"/><path class="n" d="M244.961.2A7.558,7.558,0,0,0,242,.931Z" transform="translate(-157.708 -0.13)"/><path class="g" d="M304.346,12v2.229h-1.707l-.139,4.006h1.846v6.2h4.493V15.1Z" transform="translate(-197.135 -7.82)"/><path class="m" d="M293.729,18.4,291.5,22.406h3.831l.139-4.006Z" transform="translate(-189.967 -11.991)"/><path class="m" d="M284.844,36.491V30.5L281.5,36.491Z" transform="translate(-183.45 -19.876)"/><path class="o" d="M307.8.9V2.816L311.179.9Z" transform="translate(-200.589 -0.587)"/><path class="g" d="M282.693,7.843V3.419L278.2,2.2V18.048h1.149l3.344-5.991v-.209h.139l2.229-4.006Z" transform="translate(-181.299 -1.434)"/><path class="f" d="M282.693.9H278.2v.453l4.493,1.219Z" transform="translate(-181.299 -0.587)"/><path class="m" d="M312.293.9h-1.115L307.8,2.816V4.766l4.493,3.1Z" transform="translate(-200.589 -0.587)"/><path class="p" d="M353.3,0l6.862,3.692A8.638,8.638,0,0,0,353.3,0" transform="translate(-230.241)"/><path class="q" d="M343.493,4.074a4.238,4.238,0,0,1,4.18,4.389,4.24,4.24,0,0,1-4.145,4.424,4.075,4.075,0,0,1-1.6-.313l.348,1.324,8.29-.279a8.464,8.464,0,0,0,.279-9.892L343.981,0h-.453A9.126,9.126,0,0,0,339,1.149l1.184,4.6a3.936,3.936,0,0,1,3.309-1.707" transform="translate(-220.922 0.001)"/><path class="r" d="M355.191,39l-8.29.279-.8,2.856a9.578,9.578,0,0,0,2.02.209A8.812,8.812,0,0,0,355.191,39" transform="translate(-225.549 -25.416)"/><path class="g" d="M326.8,25a8.36,8.36,0,0,0,6.722,8.011l.8-2.856Z" transform="translate(-212.971 -16.292)"/><path class="m" d="M333.91,14.69a4.354,4.354,0,0,1-2.578-4.075,4.7,4.7,0,0,1,.836-2.717l-1.184-4.6a8.359,8.359,0,0,0-4.284,7.315v.244l7.524,5.155Z" transform="translate(-212.906 -2.151)"/><path class="s" d="M426.745,31.634l2.821-8.534L422.6,28.046Z" transform="translate(-275.403 -15.054)"/><path class="q" d="M420.7,38.693l.836,2.334h3.936l.035-.139L421.362,37.3Z" transform="translate(-274.165 -24.308)"/><path class="p" d="M405.011.8h-2.09L400.1,9.3l3.553,1.916,1.184-3.344,1.707,4.876,1.393.766Z" transform="translate(-260.74 -0.521)"/><path class="p" d="M382.172.9H377.4l1.707,5.12,5.5,2.961Z" transform="translate(-245.947 -0.587)"/><path class="t" d="M419.146,10.274,416.011.8H414.2l2.926,12.713,6.966-4.946L426.67.835H422Z" transform="translate(-269.929 -0.521)"/><path class="q" d="M388.187,19.919l-.383-1.358L382.3,15.6l2.612,7.942,6.3-.209.836-2.473L388.5,18.944Z" transform="translate(-249.14 -10.166)"/><path class="q" d="M418.6,35.1l.279.8,1.115-.035Z" transform="translate(-272.796 -22.874)"/><path class="s" d="M419.9,37.892l.279.836.662-1.428Z" transform="translate(-273.643 -24.308)"/><path class="r" d="M390.915,41.353h3.936L396.1,37.8l-6.3.209Z" transform="translate(-254.028 -24.634)"/><path class="r" d="M419.4,37.335l.174.557.94-.592Z" transform="translate(-273.318 -24.308)"/></g></g></svg>