<svg id="BSC" xmlns="http://www.w3.org/2000/svg" width="24" height="24" viewBox="0 0 24 24">
  <rect id="Rectangle_36194" data-name="Rectangle 36194" width="24" height="24" fill="none"/>
  <circle id="Ellipse_2469" data-name="Ellipse 2469" cx="12" cy="12" r="12" fill="#4d4d4d"/>
  <g id="Group_55680" data-name="Group 55680" transform="translate(2.323 2.323)">
    <path id="Path_172789" data-name="Path 172789" d="M1255.919,1258.133l3.758-3.759,3.759,3.763,2.187-2.187-5.946-5.949-5.946,5.946,2.187,2.187Zm-5.919,1.544,2.187-2.187,2.187,2.187-2.187,2.187Zm5.919,1.545,3.758,3.759,3.759-3.763,2.191,2.187h0l-5.95,5.949-5.946-5.946,0,0,2.191-2.183Zm9.062-1.545,2.187-2.187,2.187,2.187-2.187,2.187Z" transform="translate(-1250 -1250)" fill="#f3ba2f"/>
  </g>
  <g id="Group_55681" data-name="Group 55681" transform="translate(9.553 9.553)">
    <path id="Path_172790" data-name="Path 172790" d="M3122.885,3120.447h0l-2.439-2.446-1.8,1.808h0l-.209.209-.43.43,0,0,0,0,2.439,2.439,2.443-2.442h0Zm0,0Z" transform="translate(-3118 -3118)" fill="#f3ba2f"/>
  </g>
</svg>
