<svg width="32" height="32" viewBox="0 0 32 32" fill="none" xmlns="http://www.w3.org/2000/svg">
<path d="M9.19413 15.8625C9.19416 15.7229 9.22174 15.5847 9.2753 15.4559C9.32885 15.327 9.40733 15.21 9.50621 15.1115C9.6051 15.0131 9.72245 14.9352 9.85153 14.8822C9.98061 14.8293 10.1189 14.8023 10.2584 14.803L12.0228 14.8088C12.3041 14.8088 12.5739 14.9206 12.7729 15.1196C12.9718 15.3186 13.0835 15.5885 13.0835 15.8699V22.5445C13.2823 22.4856 13.5366 22.4228 13.8164 22.3568C14.0103 22.3112 14.1831 22.2014 14.3068 22.0452C14.4305 21.889 14.4978 21.6956 14.4979 21.4964V13.2176C14.4979 12.9361 14.6096 12.6662 14.8085 12.4672C15.0075 12.2681 15.2773 12.1563 15.5586 12.1562H17.3284C17.6097 12.1563 17.8795 12.2681 18.0785 12.4672C18.2774 12.6662 18.3891 12.9361 18.3891 13.2176V20.9016C18.3891 20.9016 18.8319 20.7224 19.2629 20.5403C19.423 20.4725 19.5597 20.3591 19.6559 20.2141C19.752 20.0691 19.8033 19.8991 19.8035 19.7251V10.5646C19.8035 10.2832 19.9152 10.0133 20.1141 9.81435C20.313 9.61535 20.5827 9.50353 20.864 9.50348H22.6319C22.9131 9.50375 23.1826 9.61567 23.3813 9.81464C23.58 10.0136 23.6916 10.2834 23.6916 10.5646V18.108C25.2244 16.9968 26.7777 15.6602 28.0104 14.0531C28.1892 13.8199 28.3076 13.5459 28.3549 13.2558C28.4022 12.9656 28.3769 12.6683 28.2814 12.3902C27.7108 10.748 26.8037 9.24298 25.6183 7.97152C24.4329 6.70006 22.9952 5.69016 21.3973 5.00643C19.7993 4.32271 18.0762 3.98022 16.3384 4.00088C14.6005 4.02155 12.8861 4.40491 11.3048 5.12644C9.72355 5.84797 8.31027 6.89177 7.1554 8.19106C6.00052 9.49034 5.1295 11.0165 4.59807 12.6719C4.06663 14.3272 3.88649 16.0753 4.06917 17.8044C4.25184 19.5334 4.79331 21.2052 5.65893 22.7128C5.80973 22.9729 6.03161 23.1845 6.29849 23.3228C6.56536 23.4611 6.86615 23.5204 7.16551 23.4936C7.49994 23.4641 7.91633 23.4225 8.41139 23.3644C8.62685 23.3399 8.82577 23.237 8.97026 23.0752C9.11475 22.9135 9.19473 22.7042 9.19496 22.4873V15.8625" fill="white"/>
<path d="M9.15649 26.5668C11.02 27.923 13.2222 28.737 15.5195 28.9188C17.8168 29.1007 20.1195 28.6432 22.1731 27.597C24.2266 26.5509 25.9507 24.9569 27.1548 22.9913C28.359 21.0257 28.996 18.7652 28.9956 16.4599C28.9956 16.1715 28.9822 15.8876 28.9631 15.6046C24.399 22.4141 15.972 25.5975 9.15649 26.5668" fill="#F0B90B"/>
</svg>
