<svg xmlns="http://www.w3.org/2000/svg" xmlns:xlink="http://www.w3.org/1999/xlink" width="32" height="32" viewBox="0 0 32 32">
  <defs>
    <clipPath id="clip-path">
      <rect id="Rectangle_22883" data-name="Rectangle 22883" width="32" height="32" fill="#fff" stroke="#707070" stroke-width="1" opacity="0"/>
    </clipPath>
    <clipPath id="clip-path-2">
      <rect id="Rectangle_33758" data-name="Rectangle 33758" width="25.764" height="27.028" fill="none"/>
    </clipPath>
  </defs>
  <g id="Crypto.com" clip-path="url(#clip-path)">
    <g id="crypto.com-2" data-name="crypto.com">
      <g id="Group_28457" data-name="Group 28457" opacity="0">
        <rect id="Rectangle_25188" data-name="Rectangle 25188" width="32" height="32" fill="rgba(255,255,255,0)"/>
      </g>
    </g>
    <g id="Group_47689" data-name="Group 47689" transform="translate(3.118 2.486)">
      <g id="Group_47688" data-name="Group 47688" clip-path="url(#clip-path-2)">
        <path id="Path_119935" data-name="Path 119935" d="M12.872,27.028c-3.973,0-7.173-.956-9.409-2.669A8.573,8.573,0,0,1,0,17.385a8.033,8.033,0,0,1,2.553-5.921A11.245,11.245,0,0,1,5.6,9.406C5.419,8.84,5.188,8.1,4.983,7.333a13.477,13.477,0,0,1-.546-3.108,4.79,4.79,0,0,1,.84-2.9A3.367,3.367,0,0,1,8.073,0a3.243,3.243,0,0,1,2.3.927,5.207,5.207,0,0,1,1.238,2.082,16.855,16.855,0,0,1,.7,4.789h1.124a16.84,16.84,0,0,1,.7-4.789A5.205,5.205,0,0,1,15.387.927,3.243,3.243,0,0,1,17.691,0a3.367,3.367,0,0,1,2.8,1.32,4.791,4.791,0,0,1,.84,2.9,13.484,13.484,0,0,1-.546,3.108c-.206.766-.436,1.507-.621,2.074a11.245,11.245,0,0,1,3.05,2.057,8.033,8.033,0,0,1,2.553,5.921A8.573,8.573,0,0,1,22.3,24.359c-2.236,1.712-5.436,2.666-9.409,2.669Z" fill="#633001"/>
        <path id="Path_119936" data-name="Path 119936" d="M15.229,7.288c-1.718,0-2.509,1.295-2.509,3.086a23.294,23.294,0,0,0,1.3,5.384.5.5,0,0,1-.292.62c-1.377.549-5.441,2.557-5.441,7.157,0,4.845,4.13,8.5,11.746,8.5h.018c7.616-.006,11.746-3.659,11.746-8.5,0-4.6-4.064-6.608-5.441-7.157a.5.5,0,0,1-.291-.62,23.294,23.294,0,0,0,1.3-5.384c0-1.791-.791-3.086-2.509-3.086-2.473,0-3.09,3.539-3.134,7.338a.461.461,0,0,1-.457.459H18.819a.461.461,0,0,1-.457-.459c-.044-3.8-.661-7.338-3.134-7.338" transform="translate(-7.156 -6.296)" fill="#d1884f"/>
        <path id="Path_119937" data-name="Path 119937" d="M20.047,133.68c-5.6,0-11.754-3.026-11.764-6.943v.018c0,4.849,4.136,8.5,11.764,8.5s11.764-3.655,11.764-8.5v-.018c-.01,3.917-6.168,6.943-11.764,6.943" transform="translate(-7.156 -109.49)" fill="#fedc90"/>
        <path id="Path_119938" data-name="Path 119938" d="M54.336,105.128c0,1.322-.619,2.011-1.382,2.011s-1.382-.689-1.382-2.011.619-2.011,1.382-2.011,1.382.689,1.382,2.011" transform="translate(-44.554 -89.084)" fill="#633001"/>
        <path id="Path_119939" data-name="Path 119939" d="M120.337,105.128c0,1.322-.619,2.011-1.382,2.011s-1.382-.689-1.382-2.011.619-2.011,1.382-2.011,1.382.689,1.382,2.011" transform="translate(-101.573 -89.084)" fill="#633001"/>
      </g>
    </g>
  </g>
</svg>
