<svg xmlns="http://www.w3.org/2000/svg" xmlns:xlink="http://www.w3.org/1999/xlink" width="187.12" height="62.373" viewBox="0 0 187.12 62.373"><defs><style>.a{fill:none;}.b{clip-path:url(#a);}.c{opacity:0;}.d{fill:#fff;}.e{fill:#375bd2;}</style><clipPath id="a"><rect class="a" width="187.12" height="62.373"/></clipPath></defs><g transform="translate(93.56 31.187)"><g class="b" transform="translate(-93.56 -31.187)"><g class="c"><g class="b"><rect class="d" width="187.12" height="62.373"/></g></g><path class="e" d="M110.795,44.195A8.42,8.42,0,0,1,118.9,35.4h.437c4.3,0,6.861,2.557,7.61,5.489l-2.682.873a4.74,4.74,0,0,0-4.927-3.68c-2.807,0-5.551,2.058-5.551,6.113s2.744,6.05,5.614,6.05a5.052,5.052,0,0,0,5.052-3.742l2.62.873a7.61,7.61,0,0,1-7.672,5.614,8.358,8.358,0,0,1-8.545-8.233v-.624" transform="translate(-41.685 -13.32)"/><path class="e" d="M143.444,52.577H140.7V35.3h2.744v6.8a4.117,4.117,0,0,1,3.306-1.435c2.869,0,4.241,2.058,4.241,4.616v7.3H148.31V45.716a2.245,2.245,0,0,0-1.871-2.557h-.5a2.433,2.433,0,0,0-2.433,2.433,1.686,1.686,0,0,0,0,.187Z" transform="translate(-52.941 -13.282)"/><path class="e" d="M165.092,49.2l2.994-.437c.686-.062.873-.437.873-.873a2.309,2.309,0,0,0-4.553.249v.125l-2.557-.561c.187-2,2.058-3.8,4.865-3.8a4.646,4.646,0,0,1,4.927,4.366V54a11.476,11.476,0,0,0,.125,1.871h-2.557a6.674,6.674,0,0,1-.125-1.5,4.054,4.054,0,0,1-3.555,1.809,3.618,3.618,0,0,1-3.93-3.306v-.187c-.062-2.121,1.5-3.306,3.493-3.555m3.8,1.871v-.561l-3.056.437a1.622,1.622,0,0,0-1.559,1.559,1.559,1.559,0,0,0,1.559,1.5h.125a2.62,2.62,0,0,0,2.869-2.37h0a2.682,2.682,0,0,0-.062-.624Z" transform="translate(-60.804 -16.518)"/><path class="e" d="M184.109,35a1.809,1.809,0,0,1,1.809,1.809h0A1.809,1.809,0,1,1,184.109,35Zm-1.372,17.527V40.863h2.744v11.6Z" transform="translate(-68.593 -13.169)"/><path class="e" d="M195.944,55.812H193.2v-11.6h2.682V45.77a3.867,3.867,0,0,1,3.431-1.871c2.807,0,4.241,2.058,4.241,4.616v7.3H200.81V48.951c0-1.435-.624-2.557-2.37-2.557a2.433,2.433,0,0,0-2.433,2.495v6.923Z" transform="translate(-72.695 -16.517)"/><rect class="e" width="2.744" height="17.277" transform="translate(134.165 22.018)"/><path class="e" d="M226.409,35a1.809,1.809,0,1,1-1.809,1.809h0A1.809,1.809,0,0,1,226.409,35m-1.372,17.589V40.863h2.744v11.6Z" transform="translate(-84.509 -13.169)"/><path class="e" d="M238.244,55.812H235.5v-11.6h2.682V45.77a3.867,3.867,0,0,1,3.431-1.871c2.807,0,4.241,2.058,4.241,4.616v7.3H243.11V48.951a2.245,2.245,0,0,0-1.871-2.557h-.5a2.433,2.433,0,0,0-2.433,2.433,1.682,1.682,0,0,0,0,.312Z" transform="translate(-88.611 -16.517)"/><path class="e" d="M263.55,45.9l4.865,6.736h-3.368l-3.368-4.8-1.435,1.5v3.243H257.5V35.3h2.744V45.654l4.429-4.678h3.68Z" transform="translate(-96.889 -13.282)"/><path class="e" d="M45.77,21.667l11.976,6.861V42.375L45.77,49.3,33.795,42.437V28.653Zm0-10.1L41.4,14.12,29.366,21.043,25,23.6V47.552l4.366,2.557L41.342,56.97l4.366,2.557,4.366-2.557,12.038-6.986,4.366-2.557V23.476l-4.366-2.557L50.136,14.057,45.77,11.5Z" transform="translate(-9.407 -4.327)"/></g></g></svg>