<svg xmlns="http://www.w3.org/2000/svg" xmlns:xlink="http://www.w3.org/1999/xlink" width="32" height="32" viewBox="0 0 32 32"><defs><style>.a{fill:none;}.b,.d{fill:#fff;}.b{stroke:#707070;opacity:0;}.c{clip-path:url(#a);}.e{stroke:none;}</style><clipPath id="a"><rect class="a" width="23.174" height="23.518"/></clipPath></defs><g class="b"><rect class="e" width="32" height="32"/><rect class="a" x="0.5" y="0.5" width="31" height="31"/></g><g transform="translate(16 16)"><g class="c" transform="translate(-11.587 -11.759)"><path class="d" d="M23.174,11.7A11.7,11.7,0,0,0,11.586,0a11.76,11.76,0,0,0,0,23.518,11.472,11.472,0,0,0,7.858-3.155,1.09,1.09,0,0,0,.057-1.491,1.032,1.032,0,0,0-1.491-.057h0a9.35,9.35,0,0,1-13.48-.631l4.933-7.916v3.671c0,1.778.688,2.352,1.262,2.467s1.434.057,2.352-1.434l2.7-4.417L16,10.21v2.237a3.9,3.9,0,0,0,1.778,3.614,3.327,3.327,0,0,0,3.384-.115,4.513,4.513,0,0,0,1.893-4.13h0Zm-3.04,2.352h0a1.262,1.262,0,0,1-1.262.057,1.9,1.9,0,0,1-.746-1.721V9.809c0-1.262-.516-2.122-1.319-2.352S14.4,8.776,14,9.407l-2.467,3.958V8.547c0-1.09-.4-1.778-1.09-2.008s-1.147-.057-1.778.918L3.212,16.291a9.694,9.694,0,0,1-1.09-4.532,9.579,9.579,0,0,1,9.465-9.637,9.579,9.579,0,0,1,9.465,9.637h0A2.409,2.409,0,0,1,20.134,14" transform="translate(0 0)"/></g></g></svg>