<svg xmlns="http://www.w3.org/2000/svg" width="180" height="60" viewBox="0 0 180 60">
  <g id="cointelegraph-logo" opacity="0.5">
    <rect id="Rectangle_33735" data-name="Rectangle 33735" width="180" height="60" fill="none" opacity="0"/>
    <g id="Artwork_243" data-name="Artwork 243" transform="translate(5.996 10.498)">
      <path id="Path_119907" data-name="Path 119907" d="M24.433,28.381,17.408,31.4v-.3a21.8,21.8,0,0,1-4.276.6c-6.606-.064-11.85-3.481-11.911-7.549v-1.51c2.17,3.119,6.587,5.209,11.911,5.133a18.325,18.325,0,0,0,5.192-.6l.611-1.51a20.384,20.384,0,0,1-5.8.906c-6.606.013-11.85-3.405-11.911-7.548V17.813C3.391,20.7,7.8,22.787,13.132,22.644a14.92,14.92,0,0,0,6.719-1.208l.306-1.51a14.521,14.521,0,0,1-7.024,1.51c-6.606.079-11.85-3.339-11.911-7.548V12.681c2.17,2.95,6.587,5.04,11.911,5.133A19.241,19.241,0,0,0,21.379,15.7l.306-1.812a16.014,16.014,0,0,1-8.552,2.718C6.526,16.46,1.283,13.041,1.222,8.756c.061-4.076,5.3-7.494,11.911-7.548,3.938.054,7.6,1.419,9.774,3.623l.212.349,1.54.006-.225-.355C22.267,1.921,17.935,0,13.132,0,5.823,0,0,3.983,0,8.756v15.7c.257,4.659,5.947,8.454,13.132,8.454C17.878,32.909,22.144,31.064,24.433,28.381Z" fill="#fff"/>
      <g id="Group_47662" data-name="Group 47662" transform="translate(12.945 4.875)">
        <path id="Path_119908" data-name="Path 119908" d="M47.085,16.587,49.242,7.75H22.735l-2.158,8.837H28.9L24.584,34.565l7.089-3.047L29.208,41.878,46.16,17.5l-9.555,3.961,1.85-4.875ZM34.139,23.9l8.322-3.657L32.29,35.479l1.233-6.093-7.09,3.047,4.007-17.064H22.118l1.541-6.4H47.7l-1.541,6.4H37.838Z" transform="translate(-20.577 -7.75)" fill="#fff"/>
        <path id="Path_119909" data-name="Path 119909" d="M41.156,42.14h0Z" transform="translate(-28.21 -20.505)" fill="#fff"/>
      </g>
      <path id="Path_119910" data-name="Path 119910" d="M90.657,30.6a3.325,3.325,0,0,1-1.119,2.387,3.931,3.931,0,0,1-2.661.871,3.532,3.532,0,0,1-2.841-1.216A4.985,4.985,0,0,1,83,29.3v-.574a5.63,5.63,0,0,1,.477-2.387,3.581,3.581,0,0,1,1.364-1.583,4.263,4.263,0,0,1,4.68.32,3.574,3.574,0,0,1,1.148,2.445H88.735a1.962,1.962,0,0,0-.506-1.319,1.876,1.876,0,0,0-1.326-.41,1.643,1.643,0,0,0-1.448.693,3.885,3.885,0,0,0-.494,2.152v.71a4.163,4.163,0,0,0,.461,2.225,1.616,1.616,0,0,0,1.455.7,1.91,1.91,0,0,0,1.338-.41,1.847,1.847,0,0,0,.506-1.268Z" transform="translate(-30.785 -8.978)" fill="#fff"/>
      <g id="Group_47663" data-name="Group 47663" transform="translate(61.865 15.227)">
        <path id="Path_119911" data-name="Path 119911" d="M105.839,26.388a3.722,3.722,0,0,0-1.412-1.619,4.136,4.136,0,0,0-4.173,0,3.723,3.723,0,0,0-1.413,1.619,5.635,5.635,0,0,0-.5,2.441v.465a5.514,5.514,0,0,0,.51,2.4,3.726,3.726,0,0,0,1.419,1.6,4.142,4.142,0,0,0,4.177-.006,3.689,3.689,0,0,0,1.4-1.612,5.664,5.664,0,0,0,.491-2.431v-.42A5.62,5.62,0,0,0,105.839,26.388Zm-1.461,2.886a3.986,3.986,0,0,1-.528,2.23,1.854,1.854,0,0,1-3.02-.03,4,4,0,0,1-.528-2.231v-.458a3.909,3.909,0,0,1,.535-2.223,1.87,1.87,0,0,1,3.013.009,3.959,3.959,0,0,1,.528,2.246Z" transform="translate(-98.34 -24.204)" fill="#fff"/>
      </g>
      <rect id="Rectangle_33736" data-name="Rectangle 33736" width="1.935" height="9.392" transform="translate(72.399 15.356)" fill="#fff"/>
      <path id="Path_119912" data-name="Path 119912" d="M130.249,33.8h-1.936l-3.767-6.18V33.8h-1.935V24.41h1.935L128.32,30.6V24.41h1.929Z" transform="translate(-45.477 -9.054)" fill="#fff"/>
      <path id="Path_119913" data-name="Path 119913" d="M145.469,25.977h-2.877V33.8h-1.935V25.977h-2.838V24.41h7.65Z" transform="translate(-51.118 -9.054)" fill="#fff"/>
      <path id="Path_119914" data-name="Path 119914" d="M158.984,29.732h-3.715v2.516h4.36V33.8h-6.3V24.41h6.283v1.568h-4.348v2.238h3.715v1.516Z" transform="translate(-56.872 -9.054)" fill="#fff"/>
      <path id="Path_119915" data-name="Path 119915" d="M168.681,32.247h4.109V33.8h-6.044V24.41h1.935v7.839Z" transform="translate(-61.847 -9.054)" fill="#fff"/>
      <path id="Path_119916" data-name="Path 119916" d="M185.369,29.731h-3.715v2.516h4.36V33.8h-6.3V24.41H186v1.568h-4.348v2.238h3.715v1.516Z" transform="translate(-66.658 -9.054)" fill="#fff"/>
      <path id="Path_119917" data-name="Path 119917" d="M200.425,32.539a3.357,3.357,0,0,1-1.478.971,6.178,6.178,0,0,1-2.116.346,4.191,4.191,0,0,1-2.138-.533,3.549,3.549,0,0,1-1.419-1.545,5.437,5.437,0,0,1-.513-2.38v-.639a5.766,5.766,0,0,1,.474-2.435A3.507,3.507,0,0,1,194.6,24.75a4.5,4.5,0,0,1,4.706.252,3.405,3.405,0,0,1,1.116,2.319H198.54a1.872,1.872,0,0,0-.571-1.181,1.825,1.825,0,0,0-1.216-.374,1.718,1.718,0,0,0-1.5.742,3.906,3.906,0,0,0-.522,2.206v.6a3.716,3.716,0,0,0,.561,2.232,1.922,1.922,0,0,0,1.645.755,2.146,2.146,0,0,0,1.555-.464V30.217h-1.761V28.792h3.7v3.748Z" transform="translate(-71.496 -8.978)" fill="#fff"/>
      <g id="Group_47664" data-name="Group 47664" transform="translate(131.502 15.356)">
        <path id="Path_119918" data-name="Path 119918" d="M214.317,29.874a2.843,2.843,0,0,0,1.261-1.022,2.889,2.889,0,0,0,.416-1.6,2.557,2.557,0,0,0-.9-2.1,3.94,3.94,0,0,0-2.567-.742h-3.49V33.8h1.936V30.364h1.541l1.761,3.439h2.077v-.091Zm-.658-1.448a1.6,1.6,0,0,1-1.129.371h-1.561V25.978h1.555a1.568,1.568,0,0,1,1.158.38,1.421,1.421,0,0,1,.377,1.046A1.325,1.325,0,0,1,213.659,28.426Z" transform="translate(-209.034 -24.41)" fill="#fff"/>
      </g>
      <g id="Group_47665" data-name="Group 47665" transform="translate(140.147 15.356)">
        <path id="Path_119919" data-name="Path 119919" d="M228.064,24.41h-1.793l-3.5,9.392h2.058l.645-1.936h3.393l.652,1.935h2.057ZM226,30.3l1.168-3.516,1.18,3.516Z" transform="translate(-222.775 -24.41)" fill="#fff"/>
      </g>
      <g id="Group_47666" data-name="Group 47666" transform="translate(150.836 15.356)">
        <path id="Path_119920" data-name="Path 119920" d="M246.526,25.9a2.847,2.847,0,0,0-1.236-1.1,4.24,4.24,0,0,0-1.861-.387h-3.664V33.8H241.7v-3.31h1.7a3.938,3.938,0,0,0,2.616-.8,2.694,2.694,0,0,0,.945-2.177A3.066,3.066,0,0,0,246.526,25.9ZM244.6,28.565a1.7,1.7,0,0,1-1.171.36H241.7V25.978h1.774a1.52,1.52,0,0,1,1.122.438A1.552,1.552,0,0,1,245,27.533,1.313,1.313,0,0,1,244.6,28.565Z" transform="translate(-239.766 -24.41)" fill="#fff"/>
      </g>
      <path id="Path_119921" data-name="Path 119921" d="M262.555,33.8H260.62V29.777h-3.773V33.8h-1.936V24.41h1.936v3.806h3.773V24.41h1.935Z" transform="translate(-94.548 -9.054)" fill="#fff"/>
      <path id="Path_119922" data-name="Path 119922" d="M0,0" fill="#fff"/>
    </g>
  </g>
</svg>
