<svg xmlns="http://www.w3.org/2000/svg" xmlns:xlink="http://www.w3.org/1999/xlink" width="187.12" height="62.373" viewBox="0 0 187.12 62.373"><defs><style>.a{fill:none;}.b{clip-path:url(#a);}.c{opacity:0;}.d,.g{fill:#fff;}.e{fill:#ffb30d;}.e,.f,.g,.h{fill-rule:evenodd;}.f{fill:#ffd272;}</style><clipPath id="a"><rect class="a" width="187.12" height="62.373"/></clipPath></defs><g transform="translate(93.56 31.187)"><g class="b" transform="translate(-93.56 -31.187)"><g class="c"><g class="b"><rect class="d" width="187.12" height="62.373"/></g></g><path class="e" d="M54.417,13.9A22.517,22.517,0,1,0,76.934,36.417,22.517,22.517,0,0,0,54.417,13.9" transform="translate(-12.003 -5.23)"/><path class="f" d="M84.717,30,80.6,34.054a11.477,11.477,0,0,1,.5,16.217l-.5.5,4.117,4.179a17.277,17.277,0,0,0,.5-24.45l-.5-.5" transform="translate(-30.327 -11.288)"/><path class="g" d="M57.591,51.054A11.477,11.477,0,1,1,65.45,31.219L69.566,27.1a17.277,17.277,0,1,0,0,24.949L65.45,47.935a11.477,11.477,0,0,1-7.859,3.119" transform="translate(-15.177 -8.391)"/><path class="h" d="M136.027,37.013a6.237,6.237,0,0,1,5.052,2.495l2.682-2.994a10.1,10.1,0,0,0-7.921-3.555,9.793,9.793,0,0,0-7.111,2.869,9.543,9.543,0,0,0-2.932,7.111,9.418,9.418,0,0,0,2.869,7.048,10.042,10.042,0,0,0,7.3,2.744,9.921,9.921,0,0,0,7.672-3.68l-2.744-2.807a6.3,6.3,0,0,1-5.115,2.495,5.3,5.3,0,0,1-3.93-1.622,5.8,5.8,0,0,1-1.622-4.3,5.489,5.489,0,0,1,1.684-4.241,5.863,5.863,0,0,1,4.117-1.559m19.523-4.054a9.855,9.855,0,0,0-7.173,2.807,9.939,9.939,0,0,0,0,14.1,10.416,10.416,0,0,0,14.283,0,9.481,9.481,0,0,0,2.932-7.048,9.481,9.481,0,0,0-2.869-7.048,9.855,9.855,0,0,0-7.173-2.807M159.6,47.18a5.426,5.426,0,0,1-7.672.374l-.374-.374a6.612,6.612,0,0,1,0-8.732,5.426,5.426,0,0,1,7.672-.437l.437.437a6.612,6.612,0,0,1,0,8.732Zm9.605,5.3h4.241V33.4h-4.241Zm22.392-6.8L182.183,33.4h-3.992V52.544h4.241V40.506l9.107,11.976h4.241V33.4h-4.241ZM212.933,43a9.793,9.793,0,0,0-4.241-2A13.535,13.535,0,0,1,205.2,39.82a1.5,1.5,0,0,1-.748-1.31,1.622,1.622,0,0,1,.624-1.31,2.557,2.557,0,0,1,1.684-.5,8.42,8.42,0,0,1,5.177,1.871l2.183-3.119a10.292,10.292,0,0,0-3.368-1.871,11.851,11.851,0,0,0-3.8-.686,7.859,7.859,0,0,0-4.927,1.5,4.927,4.927,0,0,0-1.934,4.179,4.81,4.81,0,0,0,1.559,3.992,12.79,12.79,0,0,0,4.865,2.058,9.294,9.294,0,0,1,2.807,1,1.715,1.715,0,0,1,0,2.744,2.994,2.994,0,0,1-1.871.5q-2.62,0-5.738-2.744l-2.557,3.119a11.726,11.726,0,0,0,8.171,3.368,7.734,7.734,0,0,0,5.115-1.622,5.177,5.177,0,0,0,1.934-4.179,4.944,4.944,0,0,0-1.5-3.93" transform="translate(-47.332 -12.376)"/></g></g></svg>