<svg xmlns="http://www.w3.org/2000/svg" xmlns:xlink="http://www.w3.org/1999/xlink" width="187.119" height="62.373" viewBox="0 0 187.119 62.373"><defs><style>.a{fill:none;}.b{clip-path:url(#a);}.c{opacity:0;}.d{fill:#fff;}.e{fill:#3b3fb6;}</style><clipPath id="a"><rect class="a" width="187.119" height="62.373"/></clipPath></defs><g transform="translate(93.559 31.186)"><g class="b" transform="translate(-93.559 -31.186)"><g class="c"><g class="b"><rect class="d" width="187.119" height="62.373"/></g></g><path class="e" d="M41.937,56.724a17.09,17.09,0,0,1-16.654-13.6,16.841,16.841,0,0,1,12.911-19.9,16.516,16.516,0,0,1,15.094,3.929l.312.312a.374.374,0,0,1,0,.561l-2.058,2.058c-.249.249-.437.125-.624-.062a13.036,13.036,0,0,0-4.99-2.869A13.223,13.223,0,1,0,39.442,52.67a13.1,13.1,0,0,0,11.477-3.243c.374-.312.437-.374.811,0L53.6,51.235c.312.312.312.437,0,.748a16.716,16.716,0,0,1-8.857,4.3l-2.682.312" transform="translate(-9.379 -8.572)"/><path class="e" d="M244.381,54.98H241.2V42.319h3.181v1.746h.062a4.257,4.257,0,0,1,4.3-2,4.616,4.616,0,0,1,4.054,2.557l.312-.437a5.052,5.052,0,0,1,4.865-2.121c2.37.249,4.241,1.809,4.366,4.99s0,5.115,0,7.609v.125h-3.119V47.371a2.557,2.557,0,0,0-2.121-2.557,2.832,2.832,0,0,0-3.306,1.5,4.116,4.116,0,0,0-.249,1.435v7.048h-3.119c0-.187-.062-.374-.062-.561,0-2.245,0-4.491-.062-6.8a2.62,2.62,0,0,0-2.869-2.744,2.682,2.682,0,0,0-2.869,2.807c-.062,2.245,0,4.491,0,6.736Z" transform="translate(-90.757 -15.81)"/><path class="e" d="M129.193,48.865l2.121,2.121c-2.37,2.744-7.859,3.243-11.227.437s-3.555-9.106-.561-12.1,9.044-3.056,11.788-.125l-2.121,2.183a4.616,4.616,0,0,0-2.869-1.5,4.84,4.84,0,0,0-5.738,4.179,6.549,6.549,0,0,0,.312,3.306,4.678,4.678,0,0,0,4.3,2.994,4.927,4.927,0,0,0,3.929-1.559" transform="translate(-44.179 -13.936)"/><path class="e" d="M148.715,55.186c-3.368,0-5.8-1.622-6.612-4.241s-.187-6.237,2.744-7.984a7.173,7.173,0,0,1,8.108.811A5.863,5.863,0,0,1,154.89,47.7a6.728,6.728,0,0,1-1.559,5.364,6.237,6.237,0,0,1-4.616,2.121m-3.742-6.612a9.107,9.107,0,0,0,.187,1.372,3.181,3.181,0,0,0,2.869,2.557,3.243,3.243,0,0,0,3.43-2.308,5.052,5.052,0,0,0,0-3.119,3.243,3.243,0,0,0-3.181-2.245,3.181,3.181,0,0,0-3.056,2.37,13.286,13.286,0,0,0-.249,1.372" transform="translate(-53.347 -15.829)"/><path class="e" d="M186.919,55.027V47.979a4.429,4.429,0,0,0-.125-1.06,2.87,2.87,0,0,0-5.614.811v7.3H178V42.365h3.181v1.871l.249-.249a4.117,4.117,0,0,1,3.306-1.809,5.115,5.115,0,0,1,3.119.624,4.428,4.428,0,0,1,2.308,3.742c.125,2.744.062,5.551.062,8.3v.125Z" transform="translate(-66.976 -15.857)"/><path class="e" d="M207.649,39.377v2.557h-2v10.1h-3.181V42H201.1v-2.62h1.31v-.5a12.537,12.537,0,0,1,.125-1.622,3.463,3.463,0,0,1,3.181-2.869l1.746-.187v2.62c-.561.125-1.247.062-1.559.686a3.243,3.243,0,0,0-.25,1.871Z" transform="translate(-75.668 -12.868)"/><path class="e" d="M226.2,42.349h3.181V44.47h.125a4.3,4.3,0,0,1,2.245-2.058l1.372-.312v3.243l-1.31.125a2.37,2.37,0,0,0-2.308,2.433c-.062,2.183-.062,4.3-.062,6.487v.561h-3.181Z" transform="translate(-85.113 -15.841)"/><rect class="e" width="3.181" height="12.649" transform="translate(104.225 26.508)"/><rect class="e" width="3.181" height="12.643" transform="translate(134.351 26.508)"/><path class="e" d="M49.066,51.714l-.437-.249L45.2,48.034a.374.374,0,0,1,0-.624l1.123-1.123a.437.437,0,0,1,.748,0L48.5,47.723c.374.374.5.374.873,0l3.992-3.992c.374-.374.437-.374.811,0l1.185,1.185a.408.408,0,0,1,0,.686l-5.8,5.738-.437.249" transform="translate(-16.944 -16.349)"/><path class="e" d="M82.048,51.459l-.374-.312L78.431,47.9c-.374-.374-.374-.437,0-.811l3.181-3.119.437-.374.374.312L85.6,47.093c.374.374.374.437,0,.811l-3.119,3.119-.437.437" transform="translate(-29.406 -16.405)"/><path class="e" d="M68.4,38.048l.312-.374,3.181-3.243c.374-.374.437-.374.811,0l3.181,3.181c.312.312.312.437,0,.748L72.7,41.541c-.374.374-.437.374-.811,0l-3.181-3.119-.312-.374" transform="translate(-25.737 -12.85)"/><path class="e" d="M68.4,57.242l.249-.312,3.243-3.243c.249-.249.437-.249.748,0l3.368,3.243a.374.374,0,0,1,0,.686l-3.368,3.306a.417.417,0,0,1-.624.062l-3.431-3.431L68.4,57.3" transform="translate(-25.737 -20.131)"/><path class="e" d="M168.534,37.967a1.934,1.934,0,1,1,1.934-1.934,1.871,1.871,0,0,1-1.934,1.934" transform="translate(-62.687 -12.831)"/><path class="e" d="M216.731,37.948a1.871,1.871,0,0,1-1.934-2,1.934,1.934,0,1,1,3.867.062,1.871,1.871,0,0,1-1.934,1.934" transform="translate(-80.821 -12.812)"/></g></g></svg>