<svg xmlns="http://www.w3.org/2000/svg" xmlns:xlink="http://www.w3.org/1999/xlink" width="32" height="32" viewBox="0 0 32 32"><defs><style>.a{fill:none;}.b,.e{fill:#fff;}.b{stroke:#707070;opacity:0;}.c{clip-path:url(#a);}.d{fill:#8bc53f;}.f{fill:#f9e988;}.g{fill:#4e4e4e;}.h{fill:#009345;}.i{stroke:none;}</style><clipPath id="a"><rect class="a" width="24.969" height="24.97"/></clipPath></defs><g class="b"><rect class="i" width="32" height="32"/><rect class="a" x="0.5" y="0.5" width="31" height="31"/></g><g transform="translate(16 16)"><g class="c" transform="translate(-12.484 -12.485)"><path class="d" d="M24.878,12.4a12.489,12.489,0,1,0-12.483,12.48A12.489,12.489,0,0,0,24.878,12.4" transform="translate(0.091 0.091)"/><path class="e" d="M133.2,16.085l6.524,2.559L137.2,27.565l6.587-.279.8.532.378-1.676-.586-3.082-1.316-2.865-2.343-2.514-2.109-1.316-2.73-.964H133.2Z" transform="translate(-121.198 -14.012)"/><path class="e" d="M98.351,78.775A2.775,2.775,0,1,1,95.575,76a2.775,2.775,0,0,1,2.775,2.775" transform="translate(-84.438 -69.152)"/><path class="d" d="M24.531,8.647l.063.18.018.045A13.309,13.309,0,0,1,25.27,11.7a12.579,12.579,0,0,1-.378,4.794l-.036.144-.027.054-.234.721-.027.054v.045l-.018.045-.072.2-.027.054-.1.252-.027.054a13.732,13.732,0,0,1-1.307,2.289l-.036.045h0l-.027.036-.063.081-.036.045h0l-.054.072L22.548,21l-.036.045H22.5l-.054.072-.162.189-.036.036h-.009l-.036.036-.973.982-.072.063h0l-.036.036h-.009l-.045.036-.135.117-.072.054h-.009l-.036.036-.18.144-.036.036h-.009l-.045.036-.045.036-.072.054h-.009l-.045.036-.045.036-.072.054h-.009l-.045.036-.171.126-.081.054h-.009l-.045.036h0l-.081.045h-.009l-.045.036h0l-.081.045h-.009l-.045.036h0l-.081.045h0l-.054.036-.081.045-.081.045h-.009l-.054.036-.081.045-.081.045H19.1l-.054.036-.162.09-.081.045h0l-.081.045h0l-.054.036-.378.189-.081.036H18.2l-.081.036h0l-.09.036-.216.09-.081.036h0l-.09.036h0l-.126.045h0l-.09.036h0l-.126.045h0l-.09.036h-.036l-.09.036h0l-.126.045h0l-.126.045h0l-.126.045h0l-.135.045h-.036l-.126.036h0l-.126.036h0l-.171.045h0l-.171.045h0l-.171.045h0l-.18.036h-.036l-.18.036h-.036l-.216.045h0l-.261.045h0l-.261.036h-.036c-.4.027-.8.081-1.2.081-.685-.009-1.361-.045-2.045-.081h-.036l-.261-.036h0l-.261-.045h0l-.216-.045H10.5l-.18-.036h-.036l-.18-.036h0L9.933,25.1h0l-.171-.045h0l-.126-.036H9.6l-.135-.036h0l-.126-.036H9.3L9.167,24.9h0l-.126-.045h0l-.126-.045h0l-.126-.045h0l-.09-.036H8.663l-.09-.036h0l-.126-.045h0l-.09-.036h0L8.23,24.57h0l-.09-.036h0L8.059,24.5l-.216-.09-.09-.036h0l-.081-.036H7.663L7.582,24.3l-.288-.144-.054-.027H7.212l-.054-.036h0l-.081-.045-.252-.135-.054-.036H6.762l-.081-.045L6.6,23.786l-.054-.036H6.536L6.455,23.7l-.252-.1-.045-.036H6.149l-.081-.045h0l-.045-.036H6.014l-.081-.045h0l-.045-.036H5.878L5.8,23.353l-.171-.126-.045-.036H5.572L5.5,23.137,5.455,23.1l-.045-.036H5.4l-.072-.054-.315-.252-.036-.036H4.968L4.9,22.668l-.135-.135L4.716,22.5H4.707l-.036-.036h0L4.6,22.4l-.9-.9-.045-.045h0L3.6,21.38H3.59l-.036-.036h0L3.518,21.3,3.4,21.163l-.054-.072H3.337L3.3,21.046l-.081-.1-.045-.054-.018-.027-.036-.036-.1-.135L3,20.659H3l-.036-.045a13.489,13.489,0,0,1-1.442-2.5l-.027-.054-.1-.252-.027-.054-.108-.288-.027-.054-.234-.721L.968,16.64c-.135-.694-.315-1.388-.4-2.1a12.047,12.047,0,0,1,.586-5.47l.063-.207.018-.045.063-.18L1.319,8.6l.072-.18.018-.036.117-.27.018-.036A12.967,12.967,0,0,1,3.689,4.791l.027-.036V4.737a.027.027,0,0,0,.027-.027L4.5,3.953l.027-.027h.018L4.581,3.9A12.57,12.57,0,0,1,8.519,1.493l.442-.162L9.041,1.3H9.1l.081-.027.351-.1.081-.027.09-.018.081-.027.09-.018.081-.027.1-.018.081-.027L10.222,1,10.3.97l.135-.018.081-.027.135-.018L10.78.88l.135-.018.126-.027.135-.018L11.348.79l.18-.018.252-.027h.18L12.42.7h1l.469.036h.225l.207.027.18.018.171.027.135.018.126.027.135.018L15.2.9l.135.018.081.027.135.018.081.027.09.018.081.027.1.018.081.027.1.018.081.027.09.018.081.027.351.1.081.027h.054l.081.027h.054l.081.027a12.669,12.669,0,0,1,4.253,2.514l.027.027h.018a.027.027,0,0,0,.027.027l.757.757a.027.027,0,0,0,.027.027v.018l.027.027a12.912,12.912,0,0,1,2.28,3.6l.018.036.072.18.018.036m-11.4,6.362-.045-.027v.027h.054a1.613,1.613,0,0,0,.234.261,3.875,3.875,0,0,0,2.928.577,10.939,10.939,0,0,0,3.938-1.379,12.616,12.616,0,0,0,1.063-.757h.1c-.252.3-.487.622-.766.9-.9.928-1.838,1.829-2.721,2.784A13.8,13.8,0,0,0,15.9,20.208a7.893,7.893,0,0,0-1.009,3.451,7.334,7.334,0,0,0,.054.784,11.489,11.489,0,1,0-12.2-16.67,11.363,11.363,0,0,0-1.063,7.794,10.606,10.606,0,0,0,1.775,4.055,7.9,7.9,0,0,0,.351-.82,20.008,20.008,0,0,0,.955-5.244c.063-.712.117-1.424.225-2.127A4.591,4.591,0,0,1,6.509,8.575,7.9,7.9,0,0,1,8.726,7.3,6.419,6.419,0,0,1,12.6,6.917c.144.027.3.036.442.054s.054.054.081.063a12.867,12.867,0,0,1,2.91.991c.027.009.072-.018.108-.027s.1.126.171.153c.838.306,1.667.622,2.514.892a7.2,7.2,0,0,1,2.424,1.135,2.282,2.282,0,0,1,.2,3.46l-.018-.081-.1.117-.135.063a9.831,9.831,0,0,1-2.262,1.108,10.281,10.281,0,0,1-3.037.622,5.619,5.619,0,0,1-1.694-.117c-.36-.09-.7-.252-1.054-.378M11.3,8.08a2.226,2.226,0,1,0,2.208,2.226A2.226,2.226,0,0,0,11.3,8.08m8.434,4.442a.482.482,0,1,0-.478.487.487.487,0,0,0,.478-.487" transform="translate(-0.436 -0.637)"/><path class="f" d="M30.939,23.049a2.276,2.276,0,0,0-.2-3.46,7.373,7.373,0,0,0-2.424-1.135c-.856-.279-1.685-.586-2.514-.892a.677.677,0,0,1-.171-.153,1.793,1.793,0,0,0-1.243-1.072,3.521,3.521,0,0,0-1.856.054c-.144-.018-.3-.027-.442-.054a6.425,6.425,0,0,0-3.875.378A7.569,7.569,0,0,0,16,17.994a4.614,4.614,0,0,0-1.523,2.856c-.108.7-.162,1.415-.225,2.127a20.008,20.008,0,0,1-.955,5.244,7.9,7.9,0,0,1-.351.82,10.606,10.606,0,0,1-1.775-4.055,11.508,11.508,0,1,1,13.282,8.867,7.361,7.361,0,0,1-.054-.784,7.66,7.66,0,0,1,1.009-3.451,13.8,13.8,0,0,1,2.045-2.856c.883-.946,1.82-1.847,2.721-2.784.27-.279.514-.595.766-.9l.018-.027M22.622,11.794v.072l1.027.216a20.484,20.484,0,0,1,3.415,1.126,6.5,6.5,0,0,1,2.235,1.4,10.918,10.918,0,0,1,1.892,2.721,18.561,18.561,0,0,1,1.874,5.722c.018.09.045.18.063.27a.225.225,0,0,0,.09-.144A10.023,10.023,0,0,0,33.3,21.9a11.155,11.155,0,0,0-.162-1.586,8.93,8.93,0,0,0-2.532-4.839c-.685-.676-1.433-1.289-2.181-1.9a10.894,10.894,0,0,0-1.451-1.045,6.737,6.737,0,0,0-3.875-.82,4.372,4.372,0,0,0-.5.081" transform="translate(-9.926 -10.055)"/><path class="g" d="M149.373,144.6a12.615,12.615,0,0,1-1.063.757,10.948,10.948,0,0,1-3.947,1.379,3.875,3.875,0,0,1-2.928-.577,1.613,1.613,0,0,1-.234-.261h0c.351.126.694.288,1.054.378a6.242,6.242,0,0,0,1.694.117,10.271,10.271,0,0,0,3.028-.622,9.83,9.83,0,0,0,2.262-1.108Z" transform="translate(-128.477 -131.57)"/><path class="h" d="M139.9,68.7a3.42,3.42,0,0,1,1.856-.054A1.728,1.728,0,0,1,143,69.717c-.036.009-.081.045-.108.027a12.859,12.859,0,0,0-2.91-.991.248.248,0,0,1-.081-.063" transform="translate(-127.294 -62.364)"/><path class="g" d="M232.017,143.29l-.018.027h-.1l.1-.117.018.081" transform="translate(-211.004 -130.297)"/><path class="g" d="M140.654,158.727H140.6V158.7l.045.027Z" transform="translate(-127.931 -144.4)"/><path class="g" d="M103.1,91.759a1.559,1.559,0,1,1,.46,1.105,1.559,1.559,0,0,1-.46-1.105" transform="translate(-93.81 -82.073)"/></g></g></svg>