<svg xmlns="http://www.w3.org/2000/svg" xmlns:xlink="http://www.w3.org/1999/xlink" width="187.119" height="62.373" viewBox="0 0 187.119 62.373"><defs><style>.a{fill:none;}.b{clip-path:url(#a);}.c{opacity:0;}.d{fill:#fff;}.e{fill:#ca312c;}.e,.f,.g{fill-rule:evenodd;}.f{fill:#91b949;}.g{fill:#1a1a1a;}</style><clipPath id="a"><rect class="a" width="187.119" height="62.373"/></clipPath></defs><g transform="translate(93.559 31.186)"><g class="b" transform="translate(-93.559 -31.186)"><g class="c"><g class="b"><rect class="d" width="187.119" height="62.373"/></g></g><path class="e" d="M49.2,41.186a3.93,3.93,0,0,0-1-1.622c-2-2.308-3.8-3.119-6.923-1.622h-.187a2.62,2.62,0,0,0-2.433,2c-1.06,3.306-2.37,6.487-3.555,9.668l-.561.748c-2.183,1.622-4.3,3.119-7.3,1.809-1.06-.437-2.932-.249-2,1.934a1.185,1.185,0,0,0,.437.748l1,.748c4.179,2.744,8.857,3.368,13.285,1.185s8.732-6.3,9.106-12.287a8.919,8.919,0,0,0,.125-3.181" transform="translate(-9.404 -13.991)"/><path class="f" d="M56.8,35.112a17.4,17.4,0,0,1,.249-2.433c.249-2.183-.936-3.119-1.809-3.181a3.119,3.119,0,0,0-2.37.936.811.811,0,0,0-.125,1.185h0c.437.437.811.437,1-.437s2.183,0,2.121.748a5.162,5.162,0,0,1-2.183,2.744,15.219,15.219,0,0,1-3.368,1.247.561.561,0,0,0-.249.748h0l.187.187h1.185c1.247-.187,1.622.187,2.121,1.435a4.117,4.117,0,0,1,2.433-.374c.811.249.811.811,1.185,1.185a.374.374,0,0,0,.437-.187v-.187a6.549,6.549,0,0,1-.811-3.555" transform="translate(-18.816 -11.098)"/><path class="g" d="M82.509,51.73h-1.5l-1.185-.187-.936-.624a3.118,3.118,0,0,1-.624-1,4.179,4.179,0,0,1-.187-1.372,4.055,4.055,0,0,1,.187-1.247,2.807,2.807,0,0,1,.561-1,2.557,2.557,0,0,1,.936-.624,3.119,3.119,0,0,1,1.247-.249l1.372.187,1.372.437v-2.37l-1.247-.249H80.825a6.175,6.175,0,0,0-2.308.374,4.8,4.8,0,0,0-2.744,2.807,6.175,6.175,0,0,0-.374,2.308,6.8,6.8,0,0,0,.374,2.308,4.3,4.3,0,0,0,2.744,2.62,6.736,6.736,0,0,0,2.183.374h1.622l1.559-.437V51.293l-.624.249Zm12.537-7.111a3.992,3.992,0,0,0-1.559-1,5.925,5.925,0,0,0-2.121-.374,5.551,5.551,0,0,0-2.183.374,4.491,4.491,0,0,0-1.559,1.06,4.865,4.865,0,0,0-1,1.746,6.861,6.861,0,0,0-.374,2.308,7.672,7.672,0,0,0,.374,2.37,4.366,4.366,0,0,0,1,1.746,3.929,3.929,0,0,0,1.559,1,6.113,6.113,0,0,0,2.121.374,5.614,5.614,0,0,0,2.183-.374,4.553,4.553,0,0,0,1.622-1.06,4.99,4.99,0,0,0,1-1.809,6.736,6.736,0,0,0,.374-2.308,7.36,7.36,0,0,0-.374-2.308,4.366,4.366,0,0,0-1-1.746Zm-1.435,5.364a3.181,3.181,0,0,1-.437,1,2,2,0,0,1-.748.748,2.37,2.37,0,0,1-2.932-.561,3.929,3.929,0,0,1-.624-2.433,5.739,5.739,0,0,1,.187-1.247,2.994,2.994,0,0,1,.437-1,2.245,2.245,0,0,1,.748-.748,2.37,2.37,0,0,1,1.06-.249,2.121,2.121,0,0,1,1.809.811,3.992,3.992,0,0,1,.624,2.433,5.489,5.489,0,0,1-.187,1.247Zm8.3-8.233.561.374a1.746,1.746,0,0,0,1.247,0l.561-.374.249-.561a1.622,1.622,0,0,0,0-1.247l-.249-.437-.561-.374a1.746,1.746,0,0,0-1.247,0l-.561.374-.374.561a1.622,1.622,0,0,0,0,1.185,1.435,1.435,0,0,0,.374.561m2.62,1.746H99.038v1.934h2.932v6.487H98.6v1.934h8.982V51.979h-2.994Zm13.6.811a2.62,2.62,0,0,0-1-.748,3.493,3.493,0,0,0-1.372-.249h-1.06l-.811.374-.748.561-.624.748V43.5h-2.37V53.913H112.7V47.364a8.92,8.92,0,0,1,1.185-1.372,1.809,1.809,0,0,1,1.185-.561c.811,0,1.247.561,1.247,1.746v6.861h2.557V46.927a5.177,5.177,0,0,0-.187-1.559,3.306,3.306,0,0,0-.561-1.185Zm12.038.437a3.368,3.368,0,0,0-1.247-1.185,3.555,3.555,0,0,0-1.622-.374h-1l-.811.374-.748.561-.624.748V43.5h-2.37V58.029H124.3V53.913h1.372a6.55,6.55,0,0,0,2.184-.375,4.553,4.553,0,0,0,1.746-1,4.74,4.74,0,0,0,1.06-1.559,6.923,6.923,0,0,0,.374-2.433,8.482,8.482,0,0,0-.249-2.183,4.99,4.99,0,0,0-.748-1.622Zm-1.809,5.364a3.306,3.306,0,0,1-.561,1.06,2.37,2.37,0,0,1-.811.748,2.245,2.245,0,0,1-1.06.249h-.936l-.748-.187V47.551a9.543,9.543,0,0,1,1.185-1.372,1.809,1.809,0,0,1,1.185-.561,1.435,1.435,0,0,1,1.372.748,3.181,3.181,0,0,1,.374,1,7.482,7.482,0,0,1,.062,1.435,5.3,5.3,0,0,1-.187,1.435Zm12.662-5.925a3.867,3.867,0,0,0-1.372-.624l-2-.187-2,.187-1.746.437v2l1.746-.561,1.809-.187h1l.624.374a1.372,1.372,0,0,1,.374.561,2.246,2.246,0,0,1,.062.748v.624h-1.372a9.169,9.169,0,0,0-2.308.249,5.114,5.114,0,0,0-1.559.748,2.931,2.931,0,0,0-.936,1.06,2.994,2.994,0,0,0-.249,1.372,3.993,3.993,0,0,0,.187,1.247,2.807,2.807,0,0,0,.624,1,2.994,2.994,0,0,0,1,.624l1.435.249h1.185l.936-.374.811-.561.748-.624v1.372h2.121V46.8a4.3,4.3,0,0,0-.249-1.559,2.745,2.745,0,0,0-.811-1.06Zm-1.435,6.549-1.247,1.06a2,2,0,0,1-1.06.374,1.747,1.747,0,0,1-1.06-.374,1.185,1.185,0,0,1-.374-1,1.559,1.559,0,0,1,.062-.624l.374-.437.748-.374h2.62Zm13.784-5.988a3.368,3.368,0,0,0-1.185-1,3.555,3.555,0,0,0-1.622-.374h-1l-.936.374-.748.561-.624.748V43.5h-2.245V58.029h2.557V53.913H149a6.487,6.487,0,0,0,2.121-.374,4.553,4.553,0,0,0,1.746-1,4.8,4.8,0,0,0,1.06-1.746,6.736,6.736,0,0,0,.374-2.433,8.919,8.919,0,0,0-.249-2.183,5.239,5.239,0,0,0-.748-1.622Zm-1.809,5.364a3.493,3.493,0,0,1-.561,1.06,2.5,2.5,0,0,1-.811.748,2.308,2.308,0,0,1-1.06.249h-1l-.748-.187V47.551a9.043,9.043,0,0,1,1.185-1.372,1.809,1.809,0,0,1,1.185-.561,1.435,1.435,0,0,1,1.372.748,3.181,3.181,0,0,1,.374,1,6.862,6.862,0,0,1,.062,1.435,5.676,5.676,0,0,1-.187,1.435Zm13.41-5.738a2.558,2.558,0,0,0-1-.811,3.493,3.493,0,0,0-1.372-.249h-1.06l-.936.374-.749.561-.561.748V43.5h-2.308V53.913h2.557V47.364a6.549,6.549,0,0,1,1.185-1.559,1.934,1.934,0,0,1,1.185-.437h.561l.437.374a2,2,0,0,1,.249.624,4.241,4.241,0,0,1,.062,1h2.557a6.8,6.8,0,0,0-.187-1.809,3.556,3.556,0,0,0-.624-1.372Zm6.487-2.557.561.374a1.746,1.746,0,0,0,1.247,0l.561-.374.374-.561a1.621,1.621,0,0,0,0-1.247l-.374-.561-.561-.374a1.746,1.746,0,0,0-1.247,0l-.561.374-.374.561a1.621,1.621,0,0,0,0,1.247Zm2.62,1.746h-5.551v1.934h2.932V52.1h-3.368v1.934H177V51.979H174.01Zm15.032,0h-3.119l-3.618,4.366V39.442h-2.433V53.913h2.557V48.736l3.8,5.177H189.6l-4.553-5.676Zm10.6,1.746a2.745,2.745,0,0,0-.811-1.06,3.8,3.8,0,0,0-1.372-.624l-2-.187-2,.187-1.746.437v2l1.746-.561,1.809-.187h1l.624.374a1.373,1.373,0,0,1,.374.561,2.245,2.245,0,0,1,.062.748v.624h-1.372a8.982,8.982,0,0,0-2.308.25,4.99,4.99,0,0,0-1.622.748,2.931,2.931,0,0,0-.936,1.06,2.994,2.994,0,0,0-.374,1.372,3.8,3.8,0,0,0,.187,1.247,2.745,2.745,0,0,0,.624,1,2.994,2.994,0,0,0,1,.624l1.435.249h1.06l.936-.374.811-.561.748-.624v1.372h2.308V46.8a4.3,4.3,0,0,0-.249-1.559ZM197.4,50.857l-1.247,1.06a2,2,0,0,1-1.06.374,1.746,1.746,0,0,1-1.06-.374,1.185,1.185,0,0,1-.374-1,1.56,1.56,0,0,1,.062-.624l.374-.437.748-.374h2.62Z" transform="translate(-28.369 -14.68)"/></g></g></svg>