<svg xmlns="http://www.w3.org/2000/svg" xmlns:xlink="http://www.w3.org/1999/xlink" width="180" height="60" viewBox="0 0 180 60">
  <defs>
    <clipPath id="clip-path">
      <rect id="Rectangle_33751" data-name="Rectangle 33751" width="163.837" height="26.847" fill="none"/>
    </clipPath>
    <clipPath id="clip-path-2">
      <rect id="Rectangle_33750" data-name="Rectangle 33750" width="163.836" height="26.847" fill="none"/>
    </clipPath>
    <clipPath id="clip-path-3">
      <rect id="Rectangle_33741" data-name="Rectangle 33741" width="6.712" height="6.712" fill="none"/>
    </clipPath>
  </defs>
  <g id="cryptoslate-logo" opacity="0.5">
    <rect id="Rectangle_33735" data-name="Rectangle 33735" width="180" height="60" fill="none" opacity="0"/>
    <g id="Group_47686" data-name="Group 47686" transform="translate(8.081 16.577)">
      <g id="Group_47685" data-name="Group 47685" clip-path="url(#clip-path)">
        <g id="Group_47684" data-name="Group 47684">
          <g id="Group_47683" data-name="Group 47683" clip-path="url(#clip-path-2)">
            <path id="Path_119924" data-name="Path 119924" d="M312.788,53.977h-2.115v4.786h-2.9V45.457c2.217,0,4.4-.139,6.549.04a3.629,3.629,0,0,1,3.54,3.024,4.021,4.021,0,0,1-2.085,4.559,2.674,2.674,0,0,0-.22.175l2.851,5.518h-3.134l-2.485-4.8M310.727,47.7v3.888c.86,0,1.67.044,2.474-.011a1.94,1.94,0,0,0-.055-3.87c-.78-.042-1.565-.008-2.419-.008" transform="translate(-259.293 -38.254)" fill="#fff"/>
            <path id="Path_119925" data-name="Path 119925" d="M604.433,50.469a19.821,19.821,0,0,1,.635-2.975,5.688,5.688,0,0,1,10.92,1.26,14.134,14.134,0,0,1-.124,4.567,5.329,5.329,0,0,1-5.774,4.365,5.537,5.537,0,0,1-5.362-4.645c-.147-.737-.176-1.5-.295-2.571m2.949.371a22.569,22.569,0,0,0,.59,2.827,2.347,2.347,0,0,0,2.411,1.662,2.385,2.385,0,0,0,2.387-1.7,8.37,8.37,0,0,0,.026-5.6,2.577,2.577,0,0,0-4.9.043,23.912,23.912,0,0,0-.509,2.772" transform="translate(-509.229 -36.982)" fill="#fff"/>
            <path id="Path_119926" data-name="Path 119926" d="M831.546,45.116H834.3l5.047,13.415h-3.121l-.891-2.592h-4.8l-.889,2.58h-3.11l5.01-13.4m1.466,3.822h-.171l-1.519,4.58h3.215l-1.525-4.58" transform="translate(-696.349 -38.01)" fill="#fff"/>
            <path id="Path_119927" data-name="Path 119927" d="M688.148,53.085h2.832c.371,1.953,1.506,2.307,3.457,2.061a1.4,1.4,0,0,0,.459-2.672c-.611-.294-1.262-.5-1.881-.782a17.5,17.5,0,0,1-2.889-1.38,3.348,3.348,0,0,1,.464-5.935,6.56,6.56,0,0,1,5.639-.165,3.76,3.76,0,0,1,2.428,3.525h-2.813c-.689-1.612-1.525-2.078-3.092-1.679a1.453,1.453,0,0,0-1.225,1.173,1.23,1.23,0,0,0,.837,1.358c.614.288,1.268.49,1.886.769a21.688,21.688,0,0,1,2.883,1.392,3.373,3.373,0,0,1,1.489,3.474,3.294,3.294,0,0,1-2.381,2.839,7.187,7.187,0,0,1-5.871-.369,3.923,3.923,0,0,1-2.221-3.609" transform="translate(-579.758 -36.779)" fill="#fff"/>
            <path id="Path_119928" data-name="Path 119928" d="M459.628,53.847v4.667h-2.89v-13.3c.05-.039.09-.1.129-.1a60.015,60.015,0,0,1,6.665.163,4.23,4.23,0,0,1,3.509,5.523c-.486,1.785-2.19,2.954-4.479,3.036-.938.034-1.878.006-2.934.006m.053-2.354c.952,0,1.815.035,2.675-.009a1.751,1.751,0,0,0,1.857-1.639,1.929,1.929,0,0,0-1.581-2.322,23.448,23.448,0,0,0-2.951-.026Z" transform="translate(-384.797 -38.003)" fill="#fff"/>
            <path id="Path_119929" data-name="Path 119929" d="M237.273,48.2h-2.83c-.031-.1-.078-.213-.1-.331a2.143,2.143,0,0,0-2.284-2.024,2.317,2.317,0,0,0-2.649,1.832,11.182,11.182,0,0,0-.02,5.422,2.242,2.242,0,0,0,2.57,1.813c1.465-.037,2.068-.588,2.465-2.325h2.769A4.341,4.341,0,0,1,234.7,56.65a5.669,5.669,0,0,1-8.485-4.746,13.327,13.327,0,0,1,.3-4.413,5.654,5.654,0,0,1,8.741-3.046,4.879,4.879,0,0,1,2.018,3.754" transform="translate(-190.533 -36.563)" fill="#fff"/>
            <path id="Path_119930" data-name="Path 119930" d="M373.533,45.146h3.154l2.723,5.929,2.719-5.93h3.17c-.139.294-.25.548-.378.794-1.231,2.385-2.479,4.76-3.683,7.158A3.472,3.472,0,0,0,380.9,54.5c-.044,1.324-.015,2.651-.015,4.03h-2.978c0-1.408.024-2.783-.014-4.156a3.066,3.066,0,0,0-.308-1.255c-1.217-2.42-2.47-4.823-3.709-7.233-.115-.224-.214-.456-.347-.742" transform="translate(-314.698 -38.034)" fill="#fff"/>
            <path id="Path_119931" data-name="Path 119931" d="M533.861,47.535h-4.043V45.227h11.045v2.315H536.8V58.6h-2.939Z" transform="translate(-446.366 -38.104)" fill="#fff"/>
            <path id="Path_119932" data-name="Path 119932" d="M909.788,58.6h-2.969V47.523h-4.036V45.2H913.84v2.278h-4.052Z" transform="translate(-760.586 -38.079)" fill="#fff"/>
            <path id="Path_119933" data-name="Path 119933" d="M766.709,58.639V45.259h2.906V56.435h5.829v2.2Z" transform="translate(-645.945 -38.131)" fill="#fff"/>
            <rect id="Rectangle_33737" data-name="Rectangle 33737" width="6.712" height="6.712" transform="translate(13.423)" fill="#e2e2e2"/>
            <rect id="Rectangle_33738" data-name="Rectangle 33738" width="6.712" height="6.712" transform="translate(0 6.712)" fill="#e2e2e2"/>
            <rect id="Rectangle_33739" data-name="Rectangle 33739" width="6.712" height="6.712" transform="translate(0 20.135)" fill="#e2e2e2"/>
            <g id="Group_47670" data-name="Group 47670" transform="translate(6.712)" opacity="0.75">
              <g id="Group_47669" data-name="Group 47669">
                <g id="Group_47668" data-name="Group 47668" clip-path="url(#clip-path-3)">
                  <rect id="Rectangle_33740" data-name="Rectangle 33740" width="6.712" height="6.712" transform="translate(0)" fill="#e2e2e2"/>
                </g>
              </g>
            </g>
            <g id="Group_47673" data-name="Group 47673" transform="translate(0 13.423)" opacity="0.75">
              <g id="Group_47672" data-name="Group 47672">
                <g id="Group_47671" data-name="Group 47671" clip-path="url(#clip-path-3)">
                  <rect id="Rectangle_33742" data-name="Rectangle 33742" width="6.712" height="6.712" transform="translate(0 0)" fill="#e2e2e2"/>
                </g>
              </g>
            </g>
            <g id="Group_47676" data-name="Group 47676" transform="translate(6.712 20.135)" opacity="0.75">
              <g id="Group_47675" data-name="Group 47675">
                <g id="Group_47674" data-name="Group 47674" clip-path="url(#clip-path-3)">
                  <rect id="Rectangle_33744" data-name="Rectangle 33744" width="6.712" height="6.712" transform="translate(0 0)" fill="#e2e2e2"/>
                </g>
              </g>
            </g>
            <g id="Group_47679" data-name="Group 47679" opacity="0.5">
              <g id="Group_47678" data-name="Group 47678">
                <g id="Group_47677" data-name="Group 47677" clip-path="url(#clip-path-3)">
                  <rect id="Rectangle_33746" data-name="Rectangle 33746" width="6.712" height="6.712" fill="#e2e2e2"/>
                </g>
              </g>
            </g>
            <g id="Group_47682" data-name="Group 47682" transform="translate(13.423 20.135)" opacity="0.5">
              <g id="Group_47681" data-name="Group 47681">
                <g id="Group_47680" data-name="Group 47680" clip-path="url(#clip-path-3)">
                  <rect id="Rectangle_33748" data-name="Rectangle 33748" width="6.712" height="6.712" transform="translate(0 0)" fill="#e2e2e2"/>
                </g>
              </g>
            </g>
            <path id="Path_119934" data-name="Path 119934" d="M982.855,44.959V58.425h9.027V56.233h-6.089v-3.6h5.231V50.4h-5.237V47.308h6.095V44.959Z" transform="translate(-828.046 -37.877)" fill="#fff"/>
          </g>
        </g>
      </g>
    </g>
  </g>
</svg>
