<svg xmlns="http://www.w3.org/2000/svg" xmlns:xlink="http://www.w3.org/1999/xlink" width="187.119" height="62.373" viewBox="0 0 187.119 62.373"><defs><style>.a{fill:none;}.b{clip-path:url(#a);}.c{opacity:0;}.d{fill:#fff;}.e{fill:#2e3e51;}.f{fill:#e3161a;}</style><clipPath id="a"><rect class="a" width="187.119" height="62.373"/></clipPath></defs><g transform="translate(93.559 31.186)"><g class="b" transform="translate(-93.559 -31.186)"><g class="c"><g class="b"><rect class="d" width="187.119" height="62.373"/></g></g><path class="e" d="M137.049,42.339v3.555c0,1.185,0,.811-.811.873h-1.559a.749.749,0,0,1-.437-.5,6.8,6.8,0,0,1-.062-1.247V36.164a26.572,26.572,0,0,0-.187-2.682c-.062-.437.125-.624.5-.748l1.123-.187c.873-.125,1,0,1.185.873v.249l.312-.312a3.181,3.181,0,0,1,5.115.5,5.863,5.863,0,0,1,.873,2.807,8.608,8.608,0,0,1-.374,3.493,3.765,3.765,0,0,1-5.364,2.37l-.437-.187m0-4.366h0v1.871a.686.686,0,0,0,.249.5,1.845,1.845,0,0,0,2.869-1.185,12.6,12.6,0,0,0,0-3.306,1.435,1.435,0,0,0-1.5-1.31,1.746,1.746,0,0,0-1.559,1.746c0,.561,0,1.06,0,1.622" transform="translate(-50.413 -12.151)"/><path class="f" d="M51.4,39.788l-1.871,1.746a5.177,5.177,0,0,0-4.428-1.31,5.052,5.052,0,0,0-2.932,1.684,5.115,5.115,0,0,0-.062,6.736,5.177,5.177,0,0,0,7.36.624l1.746,1.809c-2.183,2.37-6.736,2.932-9.917.374a7.672,7.672,0,0,1-1-11.227A7.8,7.8,0,0,1,51.59,39.85" transform="translate(-14.416 -14.153)"/><path class="e" d="M193.077,36.642l.374-1,2.495-7.8c.312-1,.437-1.123,1.559-1.123h1.06c.374.062.624.187.437.624l-1.31,4.054-2.807,8.3c-.187.5-.437.873-1,.811h-.312c-1.622.125-1.871,0-2.37-1.559l-3.8-11.227c-.312-1-.249-1.123.811-1.123s1.746-.062,2.308,1.622l2.37,7.609.249.624" transform="translate(-70.452 -10.009)"/><path class="e" d="M93.306,40.836a25.947,25.947,0,0,1-2.62-.437,4.678,4.678,0,0,1-3.368-3.368,11.352,11.352,0,0,1-.125-5.988,5.387,5.387,0,0,1,4.927-4.3,9.98,9.98,0,0,1,4.241.312l.748.312a.748.748,0,0,1,.374,1.123l-.187.437c-.561.936-.624.936-1.622.624a6.05,6.05,0,0,0-2.807-.312,2.807,2.807,0,0,0-2.557,2,7.8,7.8,0,0,0,0,4.99,2.744,2.744,0,0,0,2.557,2,6.362,6.362,0,0,0,3.181-.561c.624-.249.811-.187,1.185.374l.312.561c.249.748.125,1.185-.561,1.435a14.719,14.719,0,0,1-2.308.624,9.106,9.106,0,0,1-1.435.062h0" transform="translate(-32.68 -10.024)"/><path class="e" d="M171.529,40.284a3.493,3.493,0,0,1-2.932,2.433,9.169,9.169,0,0,1-2.682,0,3.68,3.68,0,0,1-3.056-2.682,7.8,7.8,0,0,1,0-4.927,3.68,3.68,0,0,1,3.243-2.744,9.481,9.481,0,0,1,2.62.062,4.172,4.172,0,0,1,3.243,3.992v1.123a12.474,12.474,0,0,1-.437,2.682m-6.175-2.807a14.709,14.709,0,0,0,.249,1.746,1.682,1.682,0,0,0,3.306,0,6.424,6.424,0,0,0-.062-3.618,1.559,1.559,0,0,0-1.559-1.185,1.5,1.5,0,0,0-1.559,1.123,18.027,18.027,0,0,0-.374,1.871" transform="translate(-61.129 -12.154)"/><path class="e" d="M213.537,36.221c.249-1.185-.187-1.746-1.372-1.684a10.1,10.1,0,0,0-2.245.437c-.374.125-.686.125-.873-.249h-.062c-.748-1.06-.561-1.559.624-2a7.984,7.984,0,0,1,4.678-.187,2.682,2.682,0,0,1,2.183,2.807c.062,1.5.062,3.056.062,4.553a9.647,9.647,0,0,0,.187,2.058c.062.686-.062.437-.312.5a12.788,12.788,0,0,1-1.746.249,1.055,1.055,0,0,1-.624-.437,2.932,2.932,0,0,1-.249-.811l-.374.374a3.742,3.742,0,0,1-3.742.873,2.121,2.121,0,0,1-1.559-1.684c-.5-2.121.249-3.68,2.37-4.241a29.254,29.254,0,0,1,3.119-.5m-.062,1.871a17.152,17.152,0,0,0-2.058.561,1.048,1.048,0,0,0,.811,1.934,1.842,1.842,0,0,0,1.31-2.495" transform="translate(-78.25 -12.145)"/><path class="e" d="M247.1,38.535a1.909,1.909,0,0,0,1.871,2.121,7.984,7.984,0,0,0,2.245-.437.811.811,0,0,1,1.06.374c.624.936.5,1.5-.624,1.871a7.36,7.36,0,0,1-4.3.249,3.992,3.992,0,0,1-3.056-2.932,7.61,7.61,0,0,1,.062-4.678,3.743,3.743,0,0,1,2.869-2.62A7.048,7.048,0,0,1,249.1,32.3a3.632,3.632,0,0,1,3.618,3.119,8.977,8.977,0,0,1,.25,1.31c.125,1.123-.437,1.746-1.622,1.746h-4.366m0-1.934h2.932a.374.374,0,0,0,.25-.187,1.622,1.622,0,0,0-1.435-1.871c-1,0-1.684.686-1.809,2.058" transform="translate(-91.794 -12.151)"/><path class="e" d="M121.835,38.757c.561-1.871,1.123-3.68,1.622-5.489a1,1,0,0,1,1.123-.873h.936c.873.062,1,.187.686,1.06L124.766,37.7l-2.807,8.3c-.312.873-.312.873-1.247.936h-1c-.437,0-.561-.249-.374-.686s.748-1.934,1.06-2.932a1.372,1.372,0,0,0,0-.811l-3.056-9.169c-.187-.561-.125-.686.5-.811h.187c1.871-.187,2-.125,2.557,1.622s.873,3.056,1.31,4.553v.187" transform="translate(-44.118 -12.186)"/><path class="e" d="M264.976,38.785l1.06-3.742c.187-.686.437-1.372.624-2s.249-.5.437-.5h2.058c.374,0,.312.312.25.624l-.561,1.809-3.68,10.728a2.128,2.128,0,0,1-.624,1.123,6.05,6.05,0,0,1-2,0c-.062,0-.187-.374-.125-.561a20.952,20.952,0,0,1,.873-2.37,2.5,2.5,0,0,0,0-2.058c-1-2.744-1.934-5.551-2.869-8.358-.249-.811-.187-.936.686-1a1.969,1.969,0,0,1,2.433,1.559l1.435,4.8" transform="translate(-97.942 -12.215)"/><path class="e" d="M235.262,31.743V26.13c0-.686.187-.873.873-.936h.187c2.245-.062,1.809.125,1.809,1.746v9.543a5.238,5.238,0,0,0,0,.624c.062.748.25.936,1,.873a.561.561,0,0,1,.686.437c.374,1.247.125,1.622-1.123,1.746h-1.372a2.245,2.245,0,0,1-1.934-1.934A11.85,11.85,0,0,1,235.2,36.3V31.805Z" transform="translate(-88.499 -9.476)"/><path class="e" d="M225.862,31.611V26c0-.686.187-.873.873-.936,1.871-.187,2-.062,2,1.809v9.668a3.362,3.362,0,0,0,0,.5c.125.624.312.873.936.811s.686.437.811.873a.932.932,0,0,1-.374,1.185,2.869,2.869,0,0,1-4.179-2.058,9.043,9.043,0,0,1-.125-1.435V31.549Z" transform="translate(-84.962 -9.406)"/><path class="e" d="M155.085,30.994c1.5.249,1.5.249,1.5,1.31s-.062.936-1.559,1.123v5.115c0,.624.249.811.873.748s.748.437.873.873a.883.883,0,0,1-.437,1.185,2.807,2.807,0,0,1-4.179-2.308c-.125-1.684-.062-3.431-.125-5.115,0-.374-.062-.561-.437-.624a.5.5,0,0,1-.312-.312,7.92,7.92,0,0,1,0-1.435.561.561,0,0,1,.374-.374c.437-.062.5-.312.5-.624a13.164,13.164,0,0,1,.187-1.31.624.624,0,0,1,.686-.561h.125c2-.062,1.871-.125,1.871,1.684v.686" transform="translate(-56.91 -10.785)"/><path class="f" d="M61.082,33.52a12.412,12.412,0,0,0-4.99-4.179,28.192,28.192,0,0,0-3.493-1.06c-.374-.125-.5-.187-.5-.624V25.1a15.593,15.593,0,0,1,11.6,6.861l-2.62,1.559" transform="translate(-19.604 -9.444)"/><path class="f" d="M29.1,32.123A15.6,15.6,0,0,1,40.514,25.2v2.869c0,.936-.374.249-.561.312a12.1,12.1,0,0,0-5.614,2.557,22.642,22.642,0,0,0-1.934,1.934l-.624.811-2.62-1.559" transform="translate(-10.949 -9.482)"/><path class="f" d="M68.337,41.6l2.62-1.5c1.871,2.807,1.622,10.1-.437,12.974l-2.62-1.5a12.287,12.287,0,0,0,1.185-4.927,13.1,13.1,0,0,0-.811-5.052" transform="translate(-25.549 -15.088)"/><path class="e" d="M109.834,33.731a2.62,2.62,0,0,1,2.058-1.435.971.971,0,0,1,1.185,1.06,3.493,3.493,0,0,1-.125.748c-.187.873-.187.873-1.06.748a1.622,1.622,0,0,0-1.934,1.684v5.3c0,1.809-.062.873-.873,1h-.312c-1.372.125-1.684-.125-1.684-1.5q-.062-3.493-.062-6.986a4.241,4.241,0,0,0-.062-.624c-.125-.873-.125-.936.811-1.123h.249c1.372-.249,1.372-.249,1.871,1.123" transform="translate(-40.226 -12.15)"/><path class="f" d="M26.2,40.5l2.682,1.622a12.974,12.974,0,0,0,.437,9.73l-2.682,1.5A15.593,15.593,0,0,1,26.2,40.562" transform="translate(-9.42 -15.239)"/><path class="f" d="M52.2,70.513V67.707c0-.936.312-.312.437-.374a12.537,12.537,0,0,0,5.676-2.37,24.788,24.788,0,0,0,1.871-1.746.561.561,0,0,1,.5-.125l2.433,1.372A15.843,15.843,0,0,1,52.2,70.513" transform="translate(-19.641 -23.734)"/><path class="f" d="M30.1,64.329l2.433-1.435a.5.5,0,0,1,.437.125A12.786,12.786,0,0,0,40.454,67.2c.312.062.437.187.437.561v2.62A15.905,15.905,0,0,1,30.1,64.267" transform="translate(-11.326 -23.662)"/><path class="e" d="M90.585,64.61V69.6H89.4V62.24c1.06-.187,1.185-.187,1.684.686l1.934,3.43,1.06-1.934.811-1.435c.5-.873.624-.936,1.684-.686v7.3H95.2V64.485l-1.559,2.869c-.686,1.185-.748,1.185-1.435,0l-1.559-2.807" transform="translate(-33.639 -23.382)"/><path class="e" d="M116,70.813H114.63V67.382a.753.753,0,0,0-.686-.811.936.936,0,0,0-.936.873v3.368H111.7V66.135c0-1.123-.062-.561.374-.561s.748-.125.811.437h0a11.29,11.29,0,0,1,1.622-.624,1.247,1.247,0,0,1,1.435.873,1.746,1.746,0,0,1,1.622-.873A1.31,1.31,0,0,1,119,66.634a9.919,9.919,0,0,1,.062,1.185v2.869h-1.247V68.629a7.588,7.588,0,0,0-.062-1.31c-.062-.437-.187-.811-.748-.811a.873.873,0,0,0-.936.936V70.75" transform="translate(-42.028 -24.594)"/><path class="e" d="M126.683,62.2v2.37a8.358,8.358,0,0,1,1.622-.312,1.559,1.559,0,0,1,1.559,1.372,4.428,4.428,0,0,1-.125,2.744,2.058,2.058,0,0,1-1.871,1.31c-.686,0-1.372-.125-2.058-.125s-.437-.249-.437-.561V62.7c0-.374.125-.5.5-.437h.873m2,4.74c-.062-.374-.062-.624-.125-.873a.946.946,0,0,0-1.871.125c0,.624,0,1.31,0,1.934a.437.437,0,0,0,.187.312,1.123,1.123,0,0,0,1.559-.561,6.735,6.735,0,0,0,.249-1" transform="translate(-47.158 -23.404)"/><path class="e" d="M103.862,68.627c0,1,.5,1.5,1.372,1.435a2.246,2.246,0,0,0,.811-.187c.437-.187.561-.062.748.312s-.125.5-.374.624l-.811.249c-1.871.312-2.869-.437-3.119-2.308a4.616,4.616,0,0,1,.187-1.746,1.871,1.871,0,0,1,1.559-1.31h.624c2-.125,2.245,1.435,2.058,2.744,0,.125-.312.249-.437.249H103.8m2-.873c.062-.811-.249-1.247-.936-1.247a1,1,0,0,0-1,1.247Z" transform="translate(-38.558 -24.717)"/><path class="e" d="M135.464,68.646c.062,1.372.936,1.684,2.682,1.06l.374.811a3.368,3.368,0,0,1-3.119.374,2.183,2.183,0,0,1-1.31-2.245,5.8,5.8,0,0,1,.125-1.559,2.058,2.058,0,0,1,2-1.5c.873-.062,1.809,0,2.183,1a6.114,6.114,0,0,1,.187,1.809c0,.062-.249.249-.374.249H135.4m.062-.811h1.559c.374,0,.437-.187.374-.5a.873.873,0,0,0-1-.748c-.561.062-.936.5-.936,1.247" transform="translate(-50.45 -24.673)"/><path class="e" d="M144.438,66.325a1.435,1.435,0,0,1,1.809-.686l-.187,1.185h-.5a.936.936,0,0,0-1.06,1.06c0,1,0,2,0,3.056h-1.247a4.244,4.244,0,0,1-.062-.437V66.325c0-.249-.125-.561.312-.561s.749-.125.749.5l.125.249" transform="translate(-53.872 -24.66)"/></g></g></svg>