<svg xmlns="http://www.w3.org/2000/svg" width="32" height="32" viewBox="0 0 32 32"><defs><style>.a,.b{fill:#fff;}.a{stroke:#707070;opacity:0;}.c{fill:#bfcfda;}.d{stroke:none;}.e{fill:none;}</style></defs><g class="a"><rect class="d" width="32" height="32"/><rect class="e" x="0.5" y="0.5" width="31" height="31"/></g><g transform="translate(16 16)"><g transform="translate(-12.489 -12.485)"><path class="b" d="M224.57,225.218a1.059,1.059,0,0,1,1.064-1.059l1.763.006a1.06,1.06,0,0,1,1.06,1.06v6.667c.2-.059.453-.122.732-.187a.883.883,0,0,0,.681-.86v-8.27a1.06,1.06,0,0,1,1.06-1.06H232.7a1.06,1.06,0,0,1,1.06,1.06v7.676s.442-.179.873-.361a.885.885,0,0,0,.54-.814v-9.151a1.06,1.06,0,0,1,1.06-1.06H238a1.06,1.06,0,0,1,1.06,1.06v7.535a20.721,20.721,0,0,0,4.316-4.051,1.779,1.779,0,0,0,.271-1.661,12.478,12.478,0,1,0-22.607,10.312,1.578,1.578,0,0,0,1.506.78c.334-.029.75-.071,1.245-.129a.883.883,0,0,0,.783-.876v-6.617" transform="translate(-219.378 -213.33)"/><path class="c" d="M244.416,280.8a12.483,12.483,0,0,0,19.826-10.1c0-.288-.013-.572-.033-.854-4.561,6.8-12.982,9.983-19.793,10.951" transform="translate(-239.263 -258.22)"/></g></g></svg>