<svg xmlns="http://www.w3.org/2000/svg" xmlns:xlink="http://www.w3.org/1999/xlink" width="187.12" height="62.373" viewBox="0 0 187.12 62.373"><defs><style>.a{fill:none;}.b{clip-path:url(#a);}.c{opacity:0;}.d{fill:#fff;}.e{fill:#00fc01;}</style><clipPath id="a"><rect class="a" width="187.12" height="62.373"/></clipPath></defs><g transform="translate(93.56 31.187)"><g class="b" transform="translate(-93.56 -31.187)"><g class="c"><g class="b"><rect class="d" width="187.12" height="62.373"/></g></g><path class="e" d="M86,54.974l-8.732-8.732a1.31,1.31,0,0,1,0-1.871l6.487-6.487a.706.706,0,0,0-1-1L69.786,49.859a3.368,3.368,0,1,1-4.74-4.74L70.6,39.568l-7.8-7.8L64.671,29.9,73.4,38.632a1.31,1.31,0,0,1,0,1.871L66.917,46.99a.706.706,0,0,0,1,1L80.888,35.015a3.368,3.368,0,1,1,4.74,4.74l-5.551,5.551,7.8,7.8Z" transform="translate(-23.63 -11.25)"/><path class="e" d="M137.144,43.464l-11.1,2.245v-.187c0-2.308,1.123-4.74,3.68-4.74h7.672a1.31,1.31,0,0,1,1.31,1.185c.062.748-.5,1.31-1.559,1.5m-31.062,2.058c0-2.308,1.123-4.74,3.68-4.74h7.61a1.372,1.372,0,0,1,1.372,1.31,1.31,1.31,0,0,1-1.123,1.5l-11.539,2.183v-.187M137.393,38.1h-7.672c-4.179,0-6.362,3.742-6.362,7.485v.686l-3.243.624a1.372,1.372,0,0,0-.624.312l-3.181,2.807a1.247,1.247,0,0,1-.811.312h-5.738a3.306,3.306,0,0,1-3.056-1.934l11.414-2.183a3.992,3.992,0,0,0,3.306-4.366,4.054,4.054,0,0,0-4.054-3.742h-7.61c-4.179,0-6.362,3.742-6.362,7.485s2.183,7.485,6.362,7.485H115.5a3.992,3.992,0,0,0,2.62-1l2.932-2.557,2.932-.561a6.1,6.1,0,0,0,5.738,4.117h9.356V50.263h-9.356a3.306,3.306,0,0,1-3.056-1.934l10.978-2.183c2.807-.624,3.867-2.682,3.68-4.429a3.992,3.992,0,0,0-3.93-3.618" transform="translate(-38.906 -14.336)"/><path class="e" d="M238.882,45.859v-.374c0-2.308,1.123-4.74,3.68-4.74h7.672a1.31,1.31,0,0,1,1.31,1.185c.062.748-.5,1.31-1.559,1.559Zm15.281-4.241A3.992,3.992,0,0,0,250.234,38h-7.672c-4.179,0-6.362,3.742-6.362,7.485s2.183,7.485,6.362,7.485h9.356V50.225h-9.356a3.306,3.306,0,0,1-2.932-1.746l10.915-2.433c2.807-.624,3.867-2.682,3.68-4.429" transform="translate(-88.874 -14.298)"/><path class="e" d="M37.582,45.859v-.374c0-2.308,1.123-4.74,3.68-4.74h7.672a1.31,1.31,0,0,1,1.31,1.185c.062.748-.5,1.31-1.559,1.559Zm15.281-4.241A3.992,3.992,0,0,0,48.934,38H41.262c-4.179,0-6.362,3.742-6.362,7.485s2.183,7.485,6.362,7.485h9.356V50.225H41.262a3.306,3.306,0,0,1-2.932-1.746l10.915-2.433c2.807-.624,3.867-2.682,3.68-4.429" transform="translate(-13.132 -14.298)"/><path class="e" d="M180.944,47.215H172.4c-2.495,0-3.618-2.433-3.618-4.74s1.123-4.74,3.618-4.74h8.545Zm0-12.225H172.4a5.8,5.8,0,0,0-4.8,2.433,8.545,8.545,0,0,0-1.5,4.99c0,3.68,2.183,7.485,6.3,7.485h11.165V30h-2.682Z" transform="translate(-62.497 -11.288)"/><path class="e" d="M213.069,38h-8.732a6.736,6.736,0,0,0-6.736,6.736V52.97h2.682V44.8a4.054,4.054,0,0,1,4.054-4.054h2.994V52.97h2.682V40.682h2.994a4.054,4.054,0,0,1,4.054,4.054V52.97h2.682V44.8a6.736,6.736,0,0,0-6.674-6.8" transform="translate(-74.35 -14.298)"/></g></g></svg>