<svg width="189" height="43" viewBox="0 0 189 43" fill="none" xmlns="http://www.w3.org/2000/svg">
<path d="M133.644 1.42896C134.32 1.42896 134.545 0.936119 134.808 0.936119C135.159 0.936119 135.272 1.53867 135.272 2.00363C135.272 3.01628 134.958 3.61794 134.07 3.61794C132.943 3.61794 131.579 2.38675 130.577 2.38675C130.001 2.38675 129.764 2.67454 129.764 3.11161C129.764 4.30233 132.029 4.87701 132.743 4.87701C133.807 4.87701 134.195 4.43903 134.483 4.43903C134.658 4.43903 134.796 4.56224 134.796 4.95885C134.796 5.86178 134.545 6.57316 133.719 6.57316C132.856 6.57316 131.966 5.26013 131.203 5.26013C130.878 5.26013 130.715 5.49216 130.715 5.88876C130.715 7.77737 133.481 8.32416 133.481 9.3647C133.481 9.6246 133.331 9.81616 132.943 9.81616C132.355 9.81616 131.579 9.73342 130.865 9.74781C130.239 9.74781 129.838 9.78828 129.476 9.78828C129.263 9.78828 129.163 9.69295 129.163 9.51488C129.163 9.41866 129.225 9.25498 129.351 9.13177C129.776 8.73516 130.151 7.99591 130.151 7.38076C130.151 5.53352 129.012 3.72766 129.012 2.50996C129.012 1.53867 129.576 1.05933 130.527 1.05933C131.341 1.05933 132.743 1.42896 133.644 1.42896Z" fill="black"/>
<path d="M142.008 2.90646C142.008 3.28957 141.657 4.53425 141.657 5.20516C141.657 6.91569 142.508 8.6667 142.508 9.28274C142.508 9.51477 142.346 9.78817 142.133 9.78817C141.795 9.78817 141.382 9.76119 141.006 9.76119C140.731 9.77468 140.455 9.80256 140.231 9.80256C139.792 9.80256 139.604 9.66496 139.604 9.17302C139.604 8.37891 140.956 7.3123 140.956 5.60176C140.956 4.17902 139.391 3.39929 138.428 3.39929C137.727 3.39929 137.263 3.97397 137.263 5.97139C137.263 7.94093 137.564 8.35193 138.152 8.35193C138.603 8.35193 138.841 7.99579 138.941 7.09286C139.028 6.28616 139.141 6.05323 139.529 6.05323C139.817 6.05323 139.967 6.2313 139.967 6.5047C139.967 7.55872 138.49 9.91138 137.188 9.91138C136.199 9.91138 135.811 9.28274 135.811 7.70891C135.811 4.83553 136.938 2.34527 139.141 2.34527C139.692 2.34527 140.231 2.40013 140.63 2.40013C140.969 2.40013 141.194 2.34527 141.457 2.34527C141.883 2.34527 142.008 2.60518 142.008 2.90646Z" fill="black"/>
<path d="M146.078 3.20738C147.129 3.20738 147.605 2.22261 148.644 2.22261C149.182 2.22261 149.571 2.44114 149.571 3.48078C149.571 4.28838 149.057 5.09509 149.057 6.23095C149.057 8.02333 150.184 8.95414 150.184 9.35075C150.184 9.72037 149.858 9.82919 149.007 9.82919C147.968 9.82919 147.417 9.4191 147.417 8.52965C147.417 7.01067 148.431 6.2993 148.431 5.30103C148.431 4.57527 147.455 3.91875 146.178 3.91875C145.389 3.91875 145.052 4.54829 145.052 5.28754C145.052 7.17525 146.178 8.52965 146.178 9.33636C146.178 9.58367 146.028 9.8157 145.702 9.8157C145.314 9.8157 145.001 9.74735 144.663 9.74735C144.1 9.74735 143.975 9.8157 143.636 9.8157C143.386 9.8157 143.211 9.62414 143.211 9.24103C143.211 8.29672 144.351 6.87397 144.351 5.94406C144.351 4.6715 143.161 3.53564 143.161 2.85124C143.161 2.52298 143.336 2.37279 143.599 2.37279C144.7 2.37279 145.239 3.20738 146.078 3.20738Z" fill="black"/>
<path d="M152.877 3.72728C152.263 3.72728 151.975 4.19224 151.975 5.61499C151.975 7.64029 153.027 8.11964 153.966 8.11964C155.443 8.11964 155.769 6.8192 156.194 6.8192C156.369 6.8192 156.457 6.92892 156.457 7.16185C156.457 8.37955 155.769 9.92551 153.828 9.92551C151.412 9.92551 150.599 8.36606 150.599 6.71038C150.599 4.53489 152.452 2.35939 153.265 2.35939C153.665 2.35939 154.254 2.44123 154.955 2.44123C155.406 2.44123 155.806 2.30454 156.032 2.30454C156.207 2.30454 156.432 2.41425 156.432 2.76949C156.432 3.59058 155.931 4.58975 155.493 4.58975C154.88 4.58975 154.116 3.72728 152.877 3.72728Z" fill="black"/>
<path d="M157.36 7.22985C157.36 6.29994 157.423 5.49234 157.423 4.94554C157.423 3.30336 156.709 3.26199 156.709 2.75656C156.709 2.48226 156.935 2.35905 157.51 2.35905C158.737 2.35905 159.413 2.72868 159.413 3.53628C159.413 4.95903 158.011 6.20371 158.011 7.05269C158.011 7.42141 158.362 7.62646 158.887 7.62646C160.201 7.62646 161.478 7.20288 161.478 6.12187C161.478 4.91766 160.34 3.41308 160.34 2.81052C160.34 2.46877 160.489 2.37254 160.765 2.37254C161.028 2.37254 161.391 2.41391 161.841 2.41391C162.167 2.41391 162.505 2.35905 162.605 2.35905C162.793 2.35905 162.931 2.48226 162.931 2.79703C162.931 3.48142 161.979 5.73876 161.979 8.57076C161.979 11.2112 161.791 11.3893 161.166 11.3893C160.777 11.3893 160.389 11.3623 160.001 11.3623C159.514 11.3623 158.988 11.3893 158.512 11.3893C158.148 11.3893 158.011 11.2247 158.011 10.9927C158.011 10.0349 161.291 10.1716 161.291 9.15893C161.291 8.94039 161.215 8.7902 160.965 8.7902C160.727 8.7902 160.101 9.05011 159.175 9.05011C157.936 9.05011 157.36 8.57076 157.36 7.22985Z" fill="black"/>
<path d="M130.64 19.6709C130.64 20.3418 131.053 21.5316 132.429 21.5316C133.168 21.5316 133.494 21.0532 133.494 20.2042C133.494 19.0962 133.019 18.4946 132.054 18.4946C131.053 18.4946 130.64 18.973 130.64 19.6709ZM130.414 23.4607C130.414 24.3366 131.141 25.2252 132.843 25.2252C133.744 25.2252 134.208 24.8016 134.208 23.762C134.208 22.886 133.557 22.2025 131.967 22.2025C130.94 22.2025 130.414 22.6675 130.414 23.4607V23.4607ZM131.666 17.8516C132.743 17.8516 133.068 17.4136 134.133 17.4136C134.996 17.4136 135.572 18.1115 135.572 18.946C135.572 20.7384 133.882 21.108 133.882 21.778C133.882 21.9966 134.095 22.0658 134.458 22.0928C135.56 22.1746 136.261 22.5164 136.261 23.967C136.261 25.486 135.735 26.2522 134.47 26.2522C133.882 26.2522 132.443 26.0193 131.691 26.0193C130.627 26.0193 130.014 26.2522 129.425 26.2522C129.15 26.2522 128.95 26.1425 128.95 25.718C128.95 24.9383 130.114 22.5443 130.114 20.93C130.114 19.1376 129.038 18.6043 129.038 17.892C129.038 17.6321 129.201 17.4819 129.401 17.4819C130.039 17.4819 130.64 17.8516 131.666 17.8516" fill="black"/>
<path d="M138.716 18.7818C139.103 18.7818 139.567 18.8636 140.13 18.8636C140.656 18.8636 141.144 18.7269 141.407 18.7269C141.682 18.7269 141.871 18.7683 142.045 19.1379C142.521 20.1083 142.847 21.1902 142.847 21.8737C142.847 22.3521 142.709 22.6948 142.045 22.6948C141.382 22.6948 140.531 22.9952 139.679 22.9952C139.429 22.9952 139.166 22.845 139.166 22.4349C139.166 22.1201 139.354 21.9699 139.592 21.9699C139.792 21.9699 140.306 22.175 140.919 22.175C141.144 22.175 141.369 22.0653 141.369 21.7649C141.369 20.8206 140.243 19.78 139.154 19.78C138.49 19.78 138.202 20.0948 138.202 21.0526C138.202 23.9808 139.191 24.6643 140.405 24.6643C141.871 24.6643 141.958 23.6247 142.446 23.6247C142.647 23.6247 142.721 23.8028 142.721 24.1589C142.721 24.8154 142.033 26.3479 140.218 26.3479C137.689 26.3479 136.875 24.7876 136.875 23.1328C136.875 20.9573 138.052 18.7818 138.716 18.7818Z" fill="black"/>
<path d="M149.784 19.3289C149.784 19.7121 149.433 20.9567 149.433 21.6276C149.433 23.3382 150.284 25.0892 150.284 25.7052C150.284 25.9373 150.122 26.2107 149.909 26.2107C149.57 26.2107 149.157 26.1837 148.782 26.1837C148.506 26.1972 148.231 26.225 148.006 26.225C147.568 26.225 147.38 26.0874 147.38 25.5955C147.38 24.8014 148.732 23.7348 148.732 22.0243C148.732 20.6015 147.167 19.8218 146.203 19.8218C145.502 19.8218 145.039 20.3965 145.039 22.3939C145.039 24.3634 145.339 24.7744 145.928 24.7744C146.379 24.7744 146.616 24.4183 146.717 23.5153C146.804 22.7086 146.917 22.4757 147.304 22.4757C147.592 22.4757 147.743 22.6538 147.743 22.9272C147.743 23.9812 146.266 26.3339 144.964 26.3339C143.975 26.3339 143.587 25.7052 143.587 24.1314C143.587 21.258 144.713 18.7678 146.917 18.7678C147.467 18.7678 148.006 18.8226 148.406 18.8226C148.744 18.8226 148.97 18.7678 149.232 18.7678C149.658 18.7678 149.784 19.0277 149.784 19.3289Z" fill="black"/>
<path d="M155.706 20.8612C155.706 21.3262 155.656 21.6958 155.243 21.6958C154.93 21.6958 154.342 21.5042 153.791 21.5042C153.09 21.5042 152.865 22.0241 152.865 22.4072C152.865 23.7211 154.53 24.9244 154.53 25.732C154.53 25.9919 154.417 26.2383 154.167 26.2383C153.541 26.2383 153.065 26.17 152.527 26.17C152.051 26.17 151.713 26.2383 151.338 26.2383C151.1 26.2383 150.924 26.0882 150.924 25.8004C150.924 24.8156 152.213 23.338 152.213 22.3667C152.213 21.0798 150.799 19.9583 150.799 19.2604C150.799 18.9456 151.012 18.7954 151.212 18.7954C151.375 18.7954 151.763 18.8224 152.013 18.8224C152.251 18.8224 152.464 18.7954 152.652 18.7954C152.89 18.7954 153.015 18.987 153.015 19.3018C153.015 19.6705 152.84 20.2731 152.84 20.6427C152.84 20.8342 152.914 20.9709 153.09 20.9709C153.478 20.9709 153.741 20.8747 154.141 20.0401C154.717 18.8503 154.917 18.7676 155.38 18.7676C155.794 18.7676 155.869 18.7954 155.869 19.2604C155.869 19.6435 155.706 20.3963 155.706 20.8612Z" fill="black"/>
<path d="M158.586 18.7543C159.175 18.7543 159.838 18.8092 160.577 18.8092C160.89 18.8092 161.215 18.7408 161.403 18.7408C161.641 18.7408 161.703 18.9045 161.703 19.0961C161.703 19.3569 161.403 19.4252 161.24 20.1087C161.09 20.7382 160.978 20.9712 160.652 20.9712C160.152 20.9712 159.45 19.4792 158.512 19.4792C158.161 19.4792 157.923 19.7256 157.923 20.1087C157.923 21.5728 161.679 21.723 161.679 23.885C161.679 25.2124 160.402 26.3474 159 26.3474C157.122 26.3474 156.433 25.4579 156.433 23.8032C156.433 23.4605 156.584 23.3382 156.784 23.3382C157.309 23.3382 157.685 24.6782 159.964 24.6782C160.765 24.6782 160.952 24.4048 160.952 24.0631C160.952 22.9542 156.483 23.5019 156.483 20.7796C156.483 19.6168 157.21 18.7543 158.586 18.7543Z" fill="black"/>
<path d="M133.857 33.8357C134.483 33.8357 134.683 34.3007 134.733 34.834C134.771 35.1766 134.821 35.3133 135.134 35.3133C135.797 35.3133 136.561 33.8222 137.963 33.8222C138.751 33.8222 139.365 34.3825 139.377 35.3682C139.365 37.6255 137.575 38.4187 137.575 39.5132C137.575 40.0879 138.1 40.2111 138.489 40.2111C139.178 40.2111 139.377 39.6229 139.678 39.6229C139.853 39.6229 140.053 39.8963 140.053 40.5394C140.053 41.7436 139.49 42.6879 138.238 42.6879C137.162 42.6879 136.523 42.0997 136.523 41.087C136.523 39.6508 137.412 38.6382 137.399 36.9276C137.412 35.9977 137.099 35.5597 136.273 35.5597C135.296 35.5597 134.395 37.0373 134.395 39.0483C134.395 40.8002 136.047 41.3335 136.047 42.1402C136.047 42.5647 135.847 42.6879 134.208 42.6879C133.093 42.6879 132.93 42.5916 132.93 42.1546C132.93 41.2372 133.732 40.4575 133.732 38.9385C133.732 37.844 132.856 35.5049 131.879 35.5049C131.228 35.5049 130.803 36.5859 130.803 37.7487C130.803 39.6094 132.017 41.0601 132.017 42.2913C132.017 42.5512 131.879 42.6744 131.653 42.6744C131.528 42.6744 130.978 42.606 130.552 42.606C130.126 42.606 129.614 42.6465 129.363 42.6465C129.138 42.6465 129.013 42.4828 129.013 42.2094C129.013 41.5385 130.102 39.4314 130.102 37.8306C130.102 36.531 129.062 35.4635 129.062 34.3286C129.062 33.9994 129.3 33.8357 129.651 33.8357C130.515 33.8357 131.254 34.7117 131.904 34.7117C132.668 34.7117 133.181 33.8357 133.857 33.8357Z" fill="black"/>
<path d="M142.447 35.2039C142.835 35.2039 143.298 35.2858 143.862 35.2858C144.388 35.2858 144.876 35.1491 145.139 35.1491C145.415 35.1491 145.602 35.1904 145.777 35.5601C146.253 36.5304 146.578 37.6123 146.578 38.2958C146.578 38.7743 146.441 39.1169 145.777 39.1169C145.113 39.1169 144.263 39.4173 143.411 39.4173C143.161 39.4173 142.898 39.2671 142.898 38.857C142.898 38.5422 143.086 38.3921 143.324 38.3921C143.524 38.3921 144.037 38.5971 144.651 38.5971C144.876 38.5971 145.101 38.4874 145.101 38.187C145.101 37.2427 143.975 36.2031 142.885 36.2031C142.222 36.2031 141.934 36.5169 141.934 37.4747C141.934 40.403 142.923 41.0865 144.137 41.0865C145.602 41.0865 145.689 40.0468 146.177 40.0468C146.378 40.0468 146.453 40.2249 146.453 40.581C146.453 41.2376 145.764 42.77 143.949 42.77C141.421 42.77 140.608 41.2097 140.608 39.5549C140.608 37.3794 141.783 35.2039 142.447 35.2039Z" fill="black"/>
<path d="M150.235 40.9776C150.473 40.9776 150.585 40.9497 150.686 40.9497C150.961 40.9497 151.024 41.1826 151.024 41.3607C151.024 41.867 150.422 42.7565 149.046 42.7565C148.132 42.7565 147.543 42.4687 147.543 41.7438C147.543 40.4991 148.407 39.4172 148.407 37.3928C148.407 36.668 148.307 36.5996 147.994 36.5996C147.844 36.5996 147.543 36.6401 147.381 36.6401C147.13 36.6401 147.005 36.5178 147.005 36.3937C147.005 35.8604 147.494 35.587 148.007 34.4241C148.383 33.5761 148.532 33.3566 148.808 33.3566C149.046 33.3566 149.133 33.5347 149.133 33.7262C149.133 34.068 148.933 34.6157 148.933 34.9305C148.933 35.176 149.046 35.2452 149.259 35.2452C149.747 35.2452 150.21 35.2173 150.385 35.2173C150.786 35.2173 150.911 35.3406 150.911 35.7237C150.911 36.4764 150.799 36.7084 150.385 36.7084C150.097 36.7084 149.747 36.5717 149.534 36.5717C149.284 36.5717 149.133 36.7084 149.133 37.0646C149.133 40.1016 149.396 40.9776 150.235 40.9776Z" fill="black"/>
<path d="M157.559 35.7511C157.559 36.1342 157.209 37.3789 157.209 38.0498C157.209 39.7604 158.06 41.5114 158.06 42.1274C158.06 42.3594 157.897 42.6328 157.684 42.6328C157.346 42.6328 156.933 42.6059 156.558 42.6059C156.282 42.6193 156.007 42.6472 155.782 42.6472C155.343 42.6472 155.156 42.5096 155.156 42.0177C155.156 41.2236 156.508 40.157 156.508 38.4464C156.508 37.0237 154.943 36.244 153.979 36.244C153.278 36.244 152.815 36.8186 152.815 38.8161C152.815 40.7856 153.115 41.1966 153.703 41.1966C154.154 41.1966 154.392 40.8405 154.493 39.9375C154.58 39.1308 154.692 38.8979 155.081 38.8979C155.368 38.8979 155.519 39.076 155.519 39.3494C155.519 40.4034 154.042 42.756 152.74 42.756C151.751 42.756 151.362 42.1274 151.362 40.5536C151.362 37.6802 152.489 35.1899 154.692 35.1899C155.243 35.1899 155.782 35.2448 156.182 35.2448C156.52 35.2448 156.745 35.1899 157.008 35.1899C157.434 35.1899 157.559 35.4498 157.559 35.7511Z" fill="black"/>
<path d="M159.501 35.0805C160.577 35.0805 160.74 35.5734 160.74 36.0248C160.74 37.4341 160.403 38.2822 160.403 39.4729C160.403 40.499 160.978 40.7724 161.692 40.7724C162.918 40.7724 163.607 39.5817 163.607 38.6104C163.607 36.8459 161.592 36.4628 161.592 35.6417C161.592 35.3539 161.78 35.2172 162.08 35.2172C162.255 35.2172 162.481 35.2586 162.706 35.2586C162.868 35.2586 163.144 35.2172 163.47 35.2172C164.145 35.2172 164.446 35.8603 164.446 37.7489C164.446 40.5539 162.793 42.7429 160.815 42.7429C160.115 42.7429 160.015 42.3733 160.015 41.5522C160.015 39.3632 158.362 36.2029 158.362 35.6138C158.362 35.2038 158.888 35.0805 159.501 35.0805Z" fill="black"/>
<path d="M166.951 35.2039C167.339 35.2039 167.802 35.2858 168.366 35.2858C168.891 35.2858 169.379 35.1491 169.643 35.1491C169.917 35.1491 170.106 35.1904 170.28 35.5601C170.757 36.5304 171.082 37.6123 171.082 38.2958C171.082 38.7743 170.944 39.1169 170.28 39.1169C169.617 39.1169 168.766 39.4173 167.915 39.4173C167.665 39.4173 167.401 39.2671 167.401 38.857C167.401 38.5422 167.59 38.3921 167.827 38.3921C168.027 38.3921 168.541 38.5971 169.155 38.5971C169.379 38.5971 169.605 38.4874 169.605 38.187C169.605 37.2427 168.478 36.2031 167.389 36.2031C166.726 36.2031 166.438 36.5169 166.438 37.4747C166.438 40.403 167.427 41.0865 168.64 41.0865C170.106 41.0865 170.193 40.0468 170.681 40.0468C170.882 40.0468 170.957 40.2249 170.957 40.581C170.957 41.2376 170.268 42.77 168.453 42.77C165.924 42.77 165.11 41.2097 165.11 39.5549C165.11 37.3794 166.288 35.2039 166.951 35.2039Z" fill="black"/>
<path d="M176.491 37.2835C176.491 37.7484 176.441 38.118 176.028 38.118C175.715 38.118 175.127 37.9265 174.576 37.9265C173.875 37.9265 173.65 38.4463 173.65 38.8294C173.65 40.1433 175.315 41.3467 175.315 42.1543C175.315 42.4142 175.202 42.6606 174.952 42.6606C174.326 42.6606 173.85 42.5922 173.312 42.5922C172.836 42.5922 172.498 42.6606 172.123 42.6606C171.885 42.6606 171.709 42.5104 171.709 42.2226C171.709 41.2378 172.998 39.7602 172.998 38.789C172.998 37.502 171.584 36.3805 171.584 35.6827C171.584 35.3679 171.797 35.2177 171.997 35.2177C172.16 35.2177 172.548 35.2447 172.798 35.2447C173.036 35.2447 173.249 35.2177 173.437 35.2177C173.675 35.2177 173.8 35.4093 173.8 35.724C173.8 36.0927 173.625 36.6953 173.625 37.0649C173.625 37.2565 173.699 37.3932 173.875 37.3932C174.263 37.3932 174.526 37.297 174.926 36.4624C175.502 35.2726 175.703 35.1898 176.165 35.1898C176.579 35.1898 176.654 35.2177 176.654 35.6827C176.654 36.0658 176.491 36.8185 176.491 37.2835Z" fill="black"/>
<path d="M179.372 35.1764C179.961 35.1764 180.624 35.2313 181.363 35.2313C181.675 35.2313 182.001 35.1629 182.189 35.1629C182.427 35.1629 182.489 35.3266 182.489 35.5182C182.489 35.779 182.189 35.8473 182.026 36.5308C181.875 37.1604 181.763 37.3933 181.438 37.3933C180.936 37.3933 180.236 35.9013 179.297 35.9013C178.947 35.9013 178.708 36.1477 178.708 36.5308C178.708 37.9949 182.464 38.1451 182.464 40.3071C182.464 41.6345 181.187 42.7695 179.785 42.7695C177.908 42.7695 177.219 41.8801 177.219 40.2253C177.219 39.8835 177.369 39.7603 177.569 39.7603C178.095 39.7603 178.47 41.1003 180.749 41.1003C181.55 41.1003 181.738 40.8269 181.738 40.4852C181.738 39.3763 177.269 39.924 177.269 37.2017C177.269 36.0389 177.995 35.1764 179.372 35.1764Z" fill="black"/>
<path d="M184.869 35.2039C185.256 35.2039 185.72 35.2858 186.284 35.2858C186.809 35.2858 187.298 35.1491 187.56 35.1491C187.836 35.1491 188.023 35.1904 188.199 35.5601C188.674 36.5304 189 37.6123 189 38.2958C189 38.7743 188.862 39.1169 188.199 39.1169C187.535 39.1169 186.684 39.4173 185.832 39.4173C185.582 39.4173 185.319 39.2671 185.319 38.857C185.319 38.5422 185.507 38.3921 185.745 38.3921C185.946 38.3921 186.458 38.5971 187.072 38.5971C187.298 38.5971 187.522 38.4874 187.522 38.187C187.522 37.2427 186.396 36.2031 185.307 36.2031C184.643 36.2031 184.356 36.5169 184.356 37.4747C184.356 40.403 185.344 41.0865 186.559 41.0865C188.023 41.0865 188.111 40.0468 188.599 40.0468C188.799 40.0468 188.874 40.2249 188.874 40.581C188.874 41.2376 188.186 42.77 186.371 42.77C183.842 42.77 183.029 41.2097 183.029 39.5549C183.029 37.3794 184.205 35.2039 184.869 35.2039Z" fill="black"/>
<path d="M22.5605 3.10649C25.7655 3.10649 26.5316 1.57582 27.7782 1.57582C29.4395 1.57582 30.394 4.0418 30.9708 6.15524C32.9349 13.3553 28.7919 13.4857 24.5789 13.4857C19.237 13.4857 15.5803 8.55466 10.8325 8.55466C8.10233 8.55466 6.97421 9.91626 6.97421 11.9928C6.97421 17.6362 14.904 19.4528 18.2875 19.4528C23.3323 19.4528 30.9338 17.0534 32.2989 17.0534C33.1299 17.0534 33.7824 17.6371 33.7824 19.5176C33.7824 23.7993 32.5951 27.1727 28.6784 27.1727C24.5831 27.1727 17.3182 22.2425 13.6977 22.2425C12.1548 22.2425 10.9033 23.4198 11.383 25.2265C14.2704 36.1121 23.6031 33.9645 26.1868 39.5691C27.2088 41.7869 25.5104 42.8706 23.6705 42.8706C20.8811 42.8706 15.1549 42.4812 11.7722 42.5459C8.80421 42.5459 6.90509 42.7411 5.1837 42.7411C4.1749 42.7411 3.70012 42.286 3.70012 41.4434C3.70012 40.9892 3.99716 40.2113 4.59043 39.6267C6.60804 37.7453 6.03041 31.4967 5.83457 28.5856C5.26599 20.0958 0.600464 14.0046 0.600464 8.23091C0.600464 3.62541 3.27141 1.35458 7.78224 1.35458C11.6397 1.35458 18.2875 3.10649 22.5605 3.10649Z" fill="black"/>
<path d="M39.8912 11.7339C39.8912 14.9121 41.8495 20.5555 48.3788 20.5555C51.88 20.5555 53.4237 18.2855 53.4237 14.2637C53.4237 9.0098 51.1674 6.15531 46.5982 6.15531C41.8495 6.15531 39.8912 8.42523 39.8912 11.7339ZM38.8231 29.7017C38.8231 33.8539 42.2651 38.07 50.3372 38.07C54.6102 38.07 56.8064 36.0591 56.8064 31.1298C56.8064 26.9776 53.7199 23.7346 46.1826 23.7346C41.3163 23.7346 38.8231 25.9398 38.8231 29.7017V29.7017ZM44.7583 3.10656C49.8624 3.10656 51.4052 1.03089 56.4501 1.03089C60.5454 1.03089 62.6996 4.38902 63.2756 8.29573C64.6974 17.9492 55.2635 18.5446 55.2635 21.7237C55.2635 22.7615 56.2723 23.0862 57.9937 23.2157C63.2163 23.6051 67.2359 23.7346 66.5398 32.102C65.944 39.2733 64.0466 42.9354 58.053 42.9354C55.2635 42.9354 48.4372 41.8328 44.8768 41.8328C39.8319 41.8328 36.9232 42.9354 34.1346 42.9354C32.8287 42.9354 31.8792 42.4165 31.8792 40.4056C31.8792 36.7084 36.455 25.4245 36.455 17.7702C36.455 9.2724 31.8792 7.74893 32.2947 3.30082C32.4091 2.07502 33.0657 1.35466 34.0153 1.35466C37.0425 1.35466 39.8912 3.10656 44.7583 3.10656" fill="black"/>
<path d="M90.5753 1.03072C93.5433 1.03072 94.492 3.23589 94.7298 5.76572C94.9084 7.38812 95.1453 8.03655 96.6289 8.03655C99.7746 8.03655 103.395 0.965973 110.042 0.965973C113.782 0.965973 116.69 3.62531 116.749 8.29555C116.69 18.9994 108.202 22.7614 108.202 27.9505C108.202 30.6755 110.695 31.2592 112.535 31.2592C115.8 31.2592 116.749 28.4694 118.173 28.4694C119.004 28.4694 119.954 29.7672 119.954 32.8159C119.954 38.524 117.283 43 111.348 43C106.244 43 103.514 40.2004 103.217 35.4105C102.6 25.4648 106.752 24.5366 106.693 16.4282C106.752 12.017 105.948 9.20388 102.03 9.20388C97.4007 9.20388 93.7802 14.1988 93.7802 23.7344C93.7802 32.038 100.961 36.5778 100.961 40.4054C100.961 42.4163 100.012 43 92.2366 43C86.9548 43 86.1837 42.5458 86.1837 40.4702C86.1837 36.1237 87.1506 31.9643 87.1506 24.7642C87.1506 19.5741 85.8275 8.94487 81.1981 8.94487C78.1117 8.94487 76.0932 14.0693 76.0932 19.5831C76.0932 28.4047 81.8507 35.281 81.8507 41.1186C81.8507 42.3516 81.1981 42.9352 80.1293 42.9352C79.536 42.9352 76.9243 42.6106 74.9067 42.6106C72.8882 42.6106 70.4551 42.8057 69.2686 42.8057C68.2005 42.8057 67.6064 42.0269 67.6064 40.7301C67.6064 37.5518 70.3415 28.1457 70.3415 20.5562C70.3415 14.393 65.323 10.0556 65.323 4.67123C65.323 3.11448 66.4503 2.33656 68.1125 2.33656C72.2069 2.33656 78.2301 5.18206 81.3166 5.18206C84.9371 5.18206 87.3703 1.03072 90.5753 1.03072Z" fill="black"/>
</svg>
