<svg xmlns="http://www.w3.org/2000/svg" width="180" height="60" viewBox="0 0 180 60">
  <g id="forbes-logo" opacity="0.5">
    <rect id="Rectangle_33735" data-name="Rectangle 33735" width="180" height="60" fill="none" opacity="0"/>
    <path id="Shape" d="M117.8,47.56a12.017,12.017,0,0,0-5.436,1.375c.012-4.786.076-8.96.191-10.535l-10.019,1.9v.887l.98.125c1.4.188,1.935.987,2.1,2.824.318,3.512.267,22.332,0,25.343a39.722,39.722,0,0,0,8.542,1.05c7.943,0,12.73-4.824,12.73-12.459C126.885,51.959,123,47.56,117.8,47.56Zm-3.488,21.419a10.792,10.792,0,0,1-1.706-.162c-.153-2.112-.254-10.822-.242-18.433a6.778,6.778,0,0,1,2.342-.375c3.284,0,5.143,3.724,5.143,8.435C119.845,64.431,117.567,68.979,114.308,68.979ZM64.878,47.8l-1.566.425c-1.362-4.474-3.539-7-7.587-7H50.532c-.242,2.849-.331,7.6-.306,12.534l3.5-.112c2.33-.075,3.3-1.775,3.857-4.286H58.9v10.46H57.584c-.56-2.512-1.54-4.2-3.857-4.286l-3.488-.112c.038,3.749.14,6.948.306,8.848.242,2.787,1.006,4.011,3.017,4.3l1.782.187V70H38.4v-1.25l1.4-.187c2.011-.287,2.775-1.512,3.017-4.3a152.57,152.57,0,0,0,0-19.457c-.242-2.787-1.006-4.011-3.017-4.3l-1.4-.187v-1.25H64.738Zm8.427-.487c7.485,0,11.2,4.986,11.2,11.547,0,6.411-4.2,11.672-11.686,11.672S61.606,65.543,61.606,58.982C61.606,52.571,65.807,47.31,73.305,47.31Zm-.395,1.425c-3.31,0-4.239,4.4-4.239,10.185,0,5.636,1.464,10.185,4.532,10.185,3.31,0,4.239-4.4,4.239-10.185C77.443,53.283,75.979,48.735,72.911,48.735Zm55.808,10.4c-.013-6.086,3.908-11.8,11.622-11.8,6.276,0,9.28,4.574,9.306,10.547h-14c-.153,5.423,2.648,9.41,7.994,9.41a7.454,7.454,0,0,0,5.053-1.637l.662.775a11.308,11.308,0,0,1-9.1,4.124C133.492,70.541,128.731,65.843,128.718,59.132Zm6.976-2.8,7.027-.15c.038-3.049-.458-7.411-2.992-7.411S135.758,52.9,135.694,56.333Zm31.952-2.174-1.145.3c-1.222-3.886-3.081-5.536-5.792-5.536a3.072,3.072,0,0,0-3.119,3.274c0,1.925,1.464,2.937,5.7,4.549,3.908,1.487,5.461,3.2,5.461,6.311,0,4.649-3.628,7.5-9.586,7.5a23.915,23.915,0,0,1-7.9-1.362l-.2-6.423,1.145-.3c1.642,4.5,3.781,6.136,6.594,6.136a3.476,3.476,0,0,0,3.73-3.462c0-1.737-1.006-2.774-4.825-4.124-3.552-1.25-6.123-2.774-6.123-6.673,0-3.786,3.411-7.023,9.051-7.023a17.467,17.467,0,0,1,6.772,1.2ZM101.6,53.983c-3.03-2-6.3-1.125-6.976-.037A96.066,96.066,0,0,0,94.7,65.83c.165,1.837.7,2.637,2.1,2.824l1.808.125v1.25h-13.9v-1.25l.98-.125c1.4-.187,1.935-.987,2.1-2.824a93.343,93.343,0,0,0,0-12.8c-.166-1.837-.7-2.637-2.1-2.824l-.98-.125V49.2l9.98-1.9-.115,5.124c2.33-5.274,6.938-5.961,9.471-4.486Z" transform="translate(-13.577 -24.477)" fill="#fff"/>
  </g>
</svg>
