<svg xmlns="http://www.w3.org/2000/svg" width="139.361" height="33.94" viewBox="0 0 139.361 33.94">
  <g id="GHX-logo" transform="translate(69.68 16.97)">
    <g id="Artwork_251" data-name="Artwork 251" transform="translate(-69.68 -16.97)">
      <g id="Group_3245" data-name="Group 3245">
        <g id="Group_3240" data-name="Group 3240" transform="translate(0 2.819)">
          <g id="Path_21801" data-name="Path 21801">
            <path id="Path_119804" data-name="Path 119804" d="M21.83,34.636A13.993,13.993,0,1,1,30.079,9.344a1.511,1.511,0,0,1,.415,1.974L27.7,16.16a1.511,1.511,0,0,1-2.3.383,5.438,5.438,0,1,0-2.165,9.349,5.49,5.49,0,0,0,1.032-.391,1.511,1.511,0,0,1,1.346,2.706,8.586,8.586,0,0,1-1.6.6A8.46,8.46,0,1,1,25.9,13.229l1.256-2.176a10.971,10.971,0,1,0,4.058,15.265l-3.589-2.073a1.511,1.511,0,1,1,1.511-2.616l4.838,2.8a1.51,1.51,0,0,1,.625,1.922A14,14,0,0,1,21.83,34.636Z" transform="translate(-7.834 -6.643)" fill="#e83b41"/>
          </g>
        </g>
        <g id="Group_3241" data-name="Group 3241" transform="translate(5.281 1.437)">
          <g id="Path_21802" data-name="Path 21802">
            <path id="Path_119805" data-name="Path 119805" d="M17.173,10.964a1.513,1.513,0,0,1-1.459-1.12l-.838-3.127A1.511,1.511,0,0,1,17.8,5.934l.838,3.128a1.513,1.513,0,0,1-1.46,1.9Z" transform="translate(-14.825 -4.814)" fill="#e83b41"/>
          </g>
        </g>
        <g id="Group_3242" data-name="Group 3242" transform="translate(10.641)">
          <g id="Path_21803" data-name="Path 21803">
            <path id="Path_119806" data-name="Path 119806" d="M24.2,8.8a1.512,1.512,0,0,1-1.458-1.119l-.768-2.868a1.511,1.511,0,1,1,2.919-.782L25.66,6.9a1.511,1.511,0,0,1-1.068,1.851A1.533,1.533,0,0,1,24.2,8.8Z" transform="translate(-21.921 -2.911)" fill="#e83b41"/>
          </g>
        </g>
        <g id="Group_3243" data-name="Group 3243" transform="translate(12.342 27.79)">
          <g id="Path_21804" data-name="Path 21804" transform="translate(0)">
            <path id="Path_119807" data-name="Path 119807" d="M26.521,45.853a1.511,1.511,0,0,1-1.458-1.121l-.838-3.126a1.51,1.51,0,1,1,2.918-.782l.838,3.126a1.515,1.515,0,0,1-1.46,1.9Z" transform="translate(-24.173 -39.703)" fill="#e83b41"/>
          </g>
        </g>
        <g id="Group_3244" data-name="Group 3244" transform="translate(17.772 26.613)">
          <g id="Path_21805" data-name="Path 21805">
            <path id="Path_119808" data-name="Path 119808" d="M33.64,44.036a1.512,1.512,0,0,1-1.458-1.12l-.768-2.868a1.511,1.511,0,0,1,2.919-.782l.768,2.868a1.51,1.51,0,0,1-1.069,1.85A1.492,1.492,0,0,1,33.64,44.036Z" transform="translate(-31.362 -38.145)" fill="#e83b41"/>
          </g>
        </g>
      </g>
      <g id="Group_47560" data-name="Group 47560" transform="translate(45.022 11.445)" style="mix-blend-mode: normal;isolation: isolate">
        <path id="Path_119809" data-name="Path 119809" d="M69.724,26.584c0,1.178.508,1.866,2.1,1.866a12.962,12.962,0,0,0,1.867-.144V24.643h2.157v5.312a15.5,15.5,0,0,1-4.043.544c-2.956,0-4.37-1.251-4.37-3.644V21.707c0-2.484,1.45-3.644,4.587-3.644a14.725,14.725,0,0,1,3.462.4l-.254,1.994a16.053,16.053,0,0,0-3.391-.326c-1.594,0-2.121.653-2.121,1.885Z" transform="translate(-67.44 -18.063)" fill="#f9f9f9"/>
        <path id="Path_119810" data-name="Path 119810" d="M88.441,27.875H83.962l-.761,2.5H80.808L84.616,18.3h3.191l3.807,12.074H89.22ZM84.525,25.9h3.336l-1.65-5.71Z" transform="translate(-70.711 -18.122)" fill="#f9f9f9"/>
        <path id="Path_119811" data-name="Path 119811" d="M104.941,28.818h-2.9l-2.229-6.255-.2,7.814H97.272L97.816,18.3h2.557l3.118,8.575,3.118-8.575h2.557l.543,12.074H107.37l-.2-7.814Z" transform="translate(-74.739 -18.122)" fill="#f9f9f9"/>
        <path id="Path_119812" data-name="Path 119812" d="M117.1,18.3h7.4v2.012H119.38v2.919h4.714v2.012H119.38v3.119h5.113v2.012h-7.4Z" transform="translate(-79.589 -18.122)" fill="#f9f9f9"/>
        <path id="Path_119813" data-name="Path 119813" d="M137.241,30.377l-2.774-3.988h-2.176v3.988h-2.284V18.3h4.95c2.81,0,3.843,1.141,3.843,3.263v1.577a2.75,2.75,0,0,1-1.813,2.919l2.991,4.315Zm-2.376-10.062h-2.574v4.1h2.574c1.252,0,1.65-.454,1.65-1.469v-1.2C136.516,20.732,136.081,20.315,134.865,20.315Z" transform="translate(-82.748 -18.122)" fill="#f9f9f9"/>
        <path id="Path_119814" data-name="Path 119814" d="M144.888,21.562c0-2.212,1.287-3.5,4.3-3.5a13.666,13.666,0,0,1,3.281.4l-.254,1.976a17.8,17.8,0,0,0-2.955-.308c-1.577,0-2.085.544-2.085,1.831V26.6c0,1.288.508,1.832,2.085,1.832a17.8,17.8,0,0,0,2.955-.308l.254,1.976a13.666,13.666,0,0,1-3.281.4c-3.009,0-4.3-1.287-4.3-3.5Z" transform="translate(-86.389 -18.063)" fill="#f9f9f9"/>
        <path id="Path_119815" data-name="Path 119815" d="M166.217,26.783c0,2.012-1.16,3.717-4.569,3.717s-4.568-1.7-4.568-3.717v-5c0-2.012,1.16-3.716,4.568-3.716s4.569,1.7,4.569,3.716Zm-6.853-.127c0,1.143.58,1.832,2.284,1.832s2.284-.689,2.284-1.832v-4.75c0-1.142-.579-1.831-2.284-1.831s-2.284.689-2.284,1.831Z" transform="translate(-89.372 -18.063)" fill="#f9f9f9"/>
        <path id="Path_119816" data-name="Path 119816" d="M174.82,30.377h-2.285V18.3h2.285Z" transform="translate(-93.153 -18.122)" fill="#f9f9f9"/>
        <path id="Path_119817" data-name="Path 119817" d="M181.508,21.222v9.155h-2.23V18.3h3.046l4.587,9.174V18.3h2.23V30.377H186.1Z" transform="translate(-94.803 -18.122)" fill="#f9f9f9"/>
      </g>
    </g>
  </g>
</svg>
