<svg xmlns="http://www.w3.org/2000/svg" xmlns:xlink="http://www.w3.org/1999/xlink" width="128.25" height="38" viewBox="0 0 128.25 38"><defs><style>.a{fill:none;}.b{clip-path:url(#a);}.c{fill:#a6a6a6;}.d{fill:#fff;}.e{fill:#00d6ff;}.f{fill:#ffcb00;}.g{fill:#f83548;}.h{fill:#00f076;}.i{opacity:0.2;}.j{clip-path:url(#b);}.k{opacity:0.12;}.l{clip-path:url(#c);}.m{opacity:0.25;}.n{clip-path:url(#d);}</style><clipPath id="a"><rect class="a" width="128.25" height="38"/></clipPath><clipPath id="b"><rect class="a" width="15.77" height="8.303"/></clipPath><clipPath id="c"><rect class="a" width="21.85" height="11.78"/></clipPath><clipPath id="d"><rect class="a" width="21.85" height="12.207"/></clipPath></defs><g transform="translate(64.125 19)"><g class="b" transform="translate(-64.125 -19)"><path d="M123.5,38H4.75A4.75,4.75,0,0,1,0,33.25V4.75A4.75,4.75,0,0,1,4.75,0H123.5a4.75,4.75,0,0,1,4.75,4.75v28.5A4.75,4.75,0,0,1,123.5,38"/><path class="c" d="M123.5.76a3.99,3.99,0,0,1,3.99,3.99v28.5a3.99,3.99,0,0,1-3.99,3.99H4.75A3.99,3.99,0,0,1,.76,33.25V4.75A3.99,3.99,0,0,1,4.75.76H123.5m0-.76H4.75A4.75,4.75,0,0,0,0,4.75v28.5A4.75,4.75,0,0,0,4.75,38H123.5a4.75,4.75,0,0,0,4.75-4.75V4.75A4.75,4.75,0,0,0,123.5,0"/><path class="d" d="M47.1,10.035a2.565,2.565,0,0,1-.665,1.9A2.949,2.949,0,1,1,44.345,6.9l1.14.285a2.09,2.09,0,0,1,.855.665l-.475.475a1.8,1.8,0,0,0-1.52-.665,1.9,1.9,0,0,0-1.52.665A2,2,0,0,0,42.16,9.94a2,2,0,0,0,.665,1.615,2.47,2.47,0,0,0,1.52.665,2.09,2.09,0,0,0,1.615-.665,1.615,1.615,0,0,0,.475-1.14h-2.09v-.76H47.1ZM51.47,7.66H48.9V9.465H51.28v.665H48.9v1.8H51.47v.76H48.145v-5.7H51.47ZM54.6,12.695h-.76V7.66H52.23V6.995h3.99V7.66H54.6Zm4.37-5.7h.76v5.7h-.76Zm3.99,5.7H62.2V7.66H60.59V6.995h3.9V7.66H62.87v5.035Zm9.025-.76a2.956,2.956,0,1,1,.855-2.09,2.755,2.755,0,0,1-.855,2.09m-3.61-.475a2.28,2.28,0,0,0,1.52.665,1.9,1.9,0,0,0,1.52-.665,2.28,2.28,0,0,0,.665-1.615A2,2,0,0,0,71.42,8.23a2.28,2.28,0,0,0-1.52-.665,1.9,1.9,0,0,0-1.52.665,2.28,2.28,0,0,0-.665,1.615,2,2,0,0,0,.665,1.615m5.51,1.235v-5.7h.855L77.5,11.46V6.995h.76v5.7H77.5L74.555,8.04v4.655Z" transform="translate(-2.07 -0.345)"/><path class="d" d="M69.9,12.88a3.04,3.04,0,1,1,3.04-3.04,3.04,3.04,0,0,1-3.04,3.04m0-5.89a2.85,2.85,0,1,0,2.85,2.85A2.85,2.85,0,0,0,69.9,6.99M44.34,12.88a3.04,3.04,0,1,1,0-6.08,2.66,2.66,0,0,1,1.14.285,2.185,2.185,0,0,1,.855.665h0l-.57.57h0a1.71,1.71,0,0,0-1.425-.665,1.8,1.8,0,0,0-1.425.665h0a1.9,1.9,0,0,0-.665,1.52,1.9,1.9,0,0,0,.665,1.52,2.375,2.375,0,0,0,1.425.665,2,2,0,0,0,1.52-.665,1.425,1.425,0,0,0,.475-.95h-2.09V9.46H47.19v.475a2.66,2.66,0,0,1-.665,2,2.85,2.85,0,0,1-2.185.855m0-5.89a2.832,2.832,0,1,0,1.995,4.845A2.47,2.47,0,0,0,47,9.935v-.19H44.435v.57h2.09a1.71,1.71,0,0,1-.475,1.235,2.185,2.185,0,0,1-1.71.665,2.565,2.565,0,0,1-1.615-.665,2,2,0,0,1-.665-1.71,2.09,2.09,0,0,1,.665-1.71,2,2,0,0,1,1.615-.665,1.9,1.9,0,0,1,1.52.665l.38-.38-.76-.57-1.14-.19m34.01,5.8H77.4L74.645,8.32v4.465H73.79V6.895h1.045l2.565,4.18V6.895h.95Zm-.76-.19h.57V7.085h-.57v4.75l-2.945-4.75H73.98v5.51h.475V7.75Zm-14.63.19H62.1V7.75H60.49V6.895h4.085V7.75H62.96Zm-.665-.19h.475V7.56h1.615V7.085h-3.7V7.56H62.3Zm-2.47.19h-.95V6.895h.95Zm-.76-.19h.57V7.085h-.57Zm-4.37.19h-.95V7.75H52.13V6.895h4.18V7.75H54.7Zm-.76-.19h.57V7.56H56.12V7.085h-3.8V7.56h1.615Zm-2.375.19H48.045V6.895H51.56V7.75H49V9.365H51.37v.855H49v1.615H51.56Zm-3.325-.19H51.37v-.57H48.805v-2H51.18V9.555H48.805V7.56H51.37V7.085H48.235Zm21.66-.38a2.375,2.375,0,0,1-1.615-.665,2.09,2.09,0,0,1-.665-1.71,2.375,2.375,0,0,1,.665-1.71,2,2,0,0,1,1.615-.665,2.375,2.375,0,0,1,1.615.665,2.09,2.09,0,0,1,.665,1.71,2.375,2.375,0,0,1-.665,1.71,2,2,0,0,1-1.615.665m0-4.56a1.8,1.8,0,0,0-1.425.665h0a2.185,2.185,0,0,0-.665,1.52,1.9,1.9,0,0,0,.665,1.52h0a2.185,2.185,0,0,0,1.425.665,1.8,1.8,0,0,0,1.425-.665h0a2.185,2.185,0,0,0,.665-1.52,1.9,1.9,0,0,0-.665-1.52h0a2.185,2.185,0,0,0-1.425-.665" transform="translate(-2.065 -0.34)"/><path class="d" d="M66.75,21.565a3.99,3.99,0,0,0-4.085,4.085,4.085,4.085,0,0,0,4.085,4.085,3.99,3.99,0,0,0,4.085-4.085,3.9,3.9,0,0,0-4.085-4.085m0,6.46a2.47,2.47,0,1,1,0-4.94,2.28,2.28,0,0,1,2.28,2.47,2.375,2.375,0,0,1-2.28,2.47m-8.835-6.46A3.99,3.99,0,0,0,53.83,25.65a4.085,4.085,0,0,0,4.085,4.085A3.99,3.99,0,0,0,62,25.65a3.9,3.9,0,0,0-4.085-4.085m0,6.46a2.47,2.47,0,1,1,0-4.94,2.28,2.28,0,0,1,2.28,2.47,2.375,2.375,0,0,1-2.28,2.47M47.37,22.8v1.71h4.085a3.61,3.61,0,0,1-.95,2.185A4.18,4.18,0,0,1,47.37,27.93a4.56,4.56,0,0,1,0-9.12A4.75,4.75,0,0,1,50.5,20.045L51.74,18.81a6.08,6.08,0,0,0-4.275-1.71,6.271,6.271,0,1,0,0,12.54,5.51,5.51,0,0,0,4.37-1.8,5.7,5.7,0,0,0,1.52-3.99,3.515,3.515,0,0,0-.1-1.045ZM90.5,24.13a3.7,3.7,0,0,0-3.42-2.565,3.8,3.8,0,0,0-3.8,4.085,3.99,3.99,0,0,0,3.99,4.085,3.9,3.9,0,0,0,3.325-1.8l-1.33-.95a2.28,2.28,0,0,1-1.995,1.14,2.09,2.09,0,0,1-1.995-1.235L90.69,24.6Zm-5.51,1.33a2.28,2.28,0,0,1,2.09-2.375,1.71,1.71,0,0,1,1.52.855Zm-4.465,3.9H82.33V17.48H80.525Zm-2.85-6.935a3.135,3.135,0,0,0-2.185-.95A4.085,4.085,0,0,0,71.6,25.555a3.9,3.9,0,0,0,3.895,3.99,2.755,2.755,0,0,0,2.09-.95h.1v.57a2.185,2.185,0,0,1-4.18.95l-1.52.665a3.9,3.9,0,0,0,3.61,2.375c2.09,0,3.8-1.235,3.8-4.18v-7.22h-1.71Zm-2.09,5.6a2.47,2.47,0,1,1,0-4.94,2.28,2.28,0,0,1,2.185,2.47,2.28,2.28,0,0,1-2.185,2.47M98.765,17.48H94.49V29.355H96.3V24.89h2.47a3.705,3.705,0,1,0,0-7.41m.1,5.7H96.3V19.095H98.86a2.09,2.09,0,0,1,2.09,1.995,2.185,2.185,0,0,1-2.09,2.09m10.925-1.71a3.23,3.23,0,0,0-3.135,1.8l1.615.665a1.71,1.71,0,0,1,1.615-.855,1.8,1.8,0,0,1,1.9,1.52h0a3.8,3.8,0,0,0-1.805-.475c-1.71,0-3.42.95-3.42,2.66a2.755,2.755,0,0,0,2.945,2.66,2.66,2.66,0,0,0,2.28-1.14h.095v.95h1.71V24.795a3.61,3.61,0,0,0-3.8-3.325m-.19,6.555c-.57,0-1.425-.285-1.425-1.045s1.045-1.235,1.9-1.235a3.7,3.7,0,0,1,1.615.38,2.185,2.185,0,0,1-2.09,1.9m9.975-6.27-1.995,5.13h-.1l-2.09-5.13h-1.9l3.135,7.22-1.805,3.99h1.805l4.845-11.21Zm-15.96,7.6h1.805V17.48H103.61Z" transform="translate(-2.055 -0.855)"/><path class="e" d="M10.38,7.4A1.9,1.9,0,0,0,10,8.73V29.725a1.9,1.9,0,0,0,.475,1.33h.095L22.35,19.37v-.19Z" transform="translate(-0.5 -0.37)"/><path class="f" d="M26.8,23.675l-3.9-3.9V19.5l3.9-3.9h.095l4.655,2.755c1.33.76,1.33,2,0,2.755Z" transform="translate(-1.145 -0.78)"/><path class="g" d="M26.265,23.79l-3.99-3.99L10.4,31.675c.475.475,1.14.475,2,.095l13.87-7.98" transform="translate(-0.52 -0.99)"/><path class="h" d="M26.265,15.268,12.4,7.383a1.52,1.52,0,0,0-1.995.095l11.875,11.78Z" transform="translate(-0.52 -0.353)"/><g class="i" transform="translate(9.88 22.8)"><g class="j"><path d="M26.175,24,12.4,31.79a1.52,1.52,0,0,1-1.9,0h0a1.52,1.52,0,0,0,1.9,0Z" transform="translate(-10.405 -24)"/></g></g><g class="k" transform="translate(9.5 18.905)"><g class="l"><path d="M10.38,31.585a1.9,1.9,0,0,1-.38-1.33h0a1.9,1.9,0,0,0,.475,1.33ZM30.9,21.135,26.15,23.8h.095L30.9,21.23a1.615,1.615,0,0,0,.95-1.33c0,.475-.38.855-.95,1.235" transform="translate(-10 -19.9)"/></g></g><g class="m" transform="translate(9.5 6.65)"><g class="n"><path class="d" d="M12.375,7.477,30.9,18.022c.57.38.95.76.95,1.235a1.615,1.615,0,0,0-.95-1.33L12.375,7.382C11.045,6.622,10,7.192,10,8.712h0c0-1.425,1.045-2.09,2.375-1.33" transform="translate(-10 -7.002)"/></g></g></g></g></svg>