<svg xmlns="http://www.w3.org/2000/svg" xmlns:xlink="http://www.w3.org/1999/xlink" width="138" height="38" viewBox="0 0 138 38"><defs><clipPath id="a"><rect width="17.504" height="21.472" fill="none"/></clipPath><clipPath id="b"><rect width="27.412" height="17.444" fill="none"/></clipPath></defs><rect width="138" height="38" rx="5" fill="#fff"/><g transform="translate(48.259 17.789)"><g transform="translate(-8.752 -10.736)" clip-path="url(#a)"><path d="M9.658,1.868A4.6,4.6,0,0,1,13.03,0a4.584,4.584,0,0,1-1.11,3.432,3.626,3.626,0,0,1-3.2,1.5,3.987,3.987,0,0,1,.935-3.068M8.9,6.16c.726,0,2.073-1,3.826-1a4.792,4.792,0,0,1,4.205,2.147,4.662,4.662,0,0,0-2.322,4.068,4.781,4.781,0,0,0,2.893,4.37s-2.022,5.692-4.753,5.692c-1.255,0-2.23-.845-3.552-.845-1.347,0-2.684.877-3.554.877C3.151,21.472,0,16.073,0,11.733c0-4.27,2.667-6.51,5.169-6.51,1.626,0,2.888.938,3.734.938Z" transform="translate(0 0)" fill="#999"/></g></g><g transform="translate(82.208 18.901)"><g transform="translate(-13.706 -8.722)" clip-path="url(#b)"><path d="M.958,1.42a.483.483,0,0,1-.5.525A.484.484,0,0,1,0,1.42.5.5,0,0,1,.486.895a.492.492,0,0,1,.473.525M.231,5.127H.726V17.192H.231ZM17.176,8.6c0,6.083-3.377,8.848-7.073,8.848-3.776,0-6.833-2.991-6.833-8.6C3.269,3.092,6.433,0,10.368,0c3.855,0,6.807,3.041,6.807,8.6M3.77,8.722c0,4.612,2.236,8.2,6.355,8.2,4.149,0,6.529-3.693,6.529-8.248,0-4.224-1.907-8.078-6.258-8.078S3.769,4.22,3.769,8.722m15.22,7.163a7,7,0,0,0,3.493,1.087A4.191,4.191,0,0,0,26.9,12.929c0-2.234-1.385-3.4-3.736-4.4-2.1-.9-4-1.868-4-4.257A4.3,4.3,0,0,1,23.792.024a5.578,5.578,0,0,1,3.016.754l-.2.434A5.72,5.72,0,0,0,23.77.527a3.8,3.8,0,0,0-4.043,3.694c0,2.163,1.677,2.887,3.839,3.918,2.514,1.23,3.846,2.317,3.846,4.68,0,2.538-1.809,4.6-5.027,4.6a6.7,6.7,0,0,1-3.62-1.031Z" transform="translate(0 0)"/></g></g></svg>