<svg xmlns="http://www.w3.org/2000/svg" xmlns:xlink="http://www.w3.org/1999/xlink" width="187.119" height="62.373" viewBox="0 0 187.119 62.373"><defs><style>.a{fill:none;}.b{clip-path:url(#a);}.c{opacity:0;}.d{fill:#fff;}.e,.f{fill:#23af91;}.f{fill-rule:evenodd;}</style><clipPath id="a"><rect class="a" width="187.119" height="62.373"/></clipPath></defs><g transform="translate(93.559 31.186)"><g class="b" transform="translate(-93.559 -31.186)"><g class="c"><g class="b"><rect class="d" width="187.119" height="62.373"/></g></g><path class="e" d="M209.594,43.678V41.183A15.093,15.093,0,0,0,209.407,39a7.363,7.363,0,0,0-.624-1.871,6.175,6.175,0,0,0-1.185-1.684,7.672,7.672,0,0,0-2.433-1.684,8.046,8.046,0,0,0-3.119-.561,8.171,8.171,0,0,0-3.119.561,7.672,7.672,0,0,0-2.433,1.684,6.113,6.113,0,0,0-1.185,1.684A7.3,7.3,0,0,0,194.687,39a15.278,15.278,0,0,0-.187,2.183v4.99a15.278,15.278,0,0,0,.187,2.183,7.234,7.234,0,0,0,.624,1.871,6.174,6.174,0,0,0,1.185,1.684,7.547,7.547,0,0,0,2.433,1.684,8.944,8.944,0,0,0,6.237,0,7.61,7.61,0,0,0,2.433-1.684,6.238,6.238,0,0,0,1.185-1.684,7.36,7.36,0,0,0,.624-1.871,15.155,15.155,0,0,0,.187-2.183C209.594,45.424,209.657,44.551,209.594,43.678Zm-4.054,0c0,1,0,1.809-.062,2.433a12.408,12.408,0,0,1-.187,1.622,3.991,3.991,0,0,1-.312,1,2.931,2.931,0,0,1-.5.686,3.118,3.118,0,0,1-1.123.811,3.742,3.742,0,0,1-1.5.312,3.8,3.8,0,0,1-1.5-.312,3.119,3.119,0,0,1-1.123-.811,2.805,2.805,0,0,1-.5-.686,3.866,3.866,0,0,1-.312-1,13.289,13.289,0,0,1-.187-1.622q-.062-1-.062-2.433c0-1,0-1.809.062-2.495a13.277,13.277,0,0,1,.187-1.622,3.868,3.868,0,0,1,.312-1,2.807,2.807,0,0,1,.5-.686,3.118,3.118,0,0,1,1.123-.811,3.68,3.68,0,0,1,1.5-.312,3.618,3.618,0,0,1,1.5.312,3.118,3.118,0,0,1,1.123.811,2.992,2.992,0,0,1,.5.686,3.991,3.991,0,0,1,.312,1,12.472,12.472,0,0,1,.187,1.622c.062.624.062,1.5.062,2.495" transform="translate(-73.185 -12.491)"/><path class="e" d="M260.705,33.774a.374.374,0,0,0-.374-.374h-3.306a.374.374,0,0,0-.374.374V46.062l-8.108-12.537-.249-.125h-3.119a.374.374,0,0,0-.374.374V53.734a.374.374,0,0,0,.374.374h3.306a.374.374,0,0,0,.374-.374V41.384l8.108,12.6.249.125h3.056a.374.374,0,0,0,.374-.374Z" transform="translate(-92.111 -12.567)"/><path class="e" d="M232.054,33.774a.374.374,0,0,0-.374-.374h-3.306a.374.374,0,0,0-.374.374V53.734a.374.374,0,0,0,.374.374h3.306a.374.374,0,0,0,.374-.374Z" transform="translate(-85.79 -12.567)"/><path class="e" d="M168.226,43.6c0-1,0-1.809.062-2.495a13.041,13.041,0,0,1,.187-1.622,3.493,3.493,0,0,1,6.237-1.435,4.553,4.553,0,0,1,.624,1.435h4.054a.061.061,0,0,0,.062-.062,7.5,7.5,0,0,0-3.992-5.676A8.233,8.233,0,0,0,171.906,33a7.547,7.547,0,0,0-5.551,2.245,5.988,5.988,0,0,0-1.684,3.119,28.565,28.565,0,0,0-.374,5.115,27.755,27.755,0,0,0,.374,5.115,5.988,5.988,0,0,0,1.684,3.119,7.547,7.547,0,0,0,5.551,2.245,8.233,8.233,0,0,0,3.555-.748,7.353,7.353,0,0,0,3.992-5.676c0-.062,0-.125-.062-.125h-4.054a4.616,4.616,0,0,1-.624,1.435,3.493,3.493,0,0,1-6.237-1.435,12.665,12.665,0,0,1-.187-1.622c0-.686-.062-1.5-.062-2.495" transform="translate(-61.818 -12.416)"/><path class="e" d="M101.754,33.774a.374.374,0,0,0-.374-.374H98.074a.374.374,0,0,0-.374.374V53.734a.374.374,0,0,0,.374.374h3.306a.374.374,0,0,0,.374-.374V47.871l2.682-3.181,5.489,9.294.187.125h4.054c.187,0,.249-.125.125-.249l-7.173-12.225,6.612-7.921c.125-.187.062-.312-.125-.312h-4.553l-7.3,8.732Z" transform="translate(-36.762 -12.567)"/><path class="e" d="M138.509,50.677a3.8,3.8,0,0,1-3.555-3.8v-13.1a.374.374,0,0,0-.374-.374h-3.306a.374.374,0,0,0-.374.374V46.81a7.611,7.611,0,0,0,15.219,0V33.774a.374.374,0,0,0-.374-.374h-3.306a.374.374,0,0,0-.374.374v13.1a3.8,3.8,0,0,1-3.555,3.8" transform="translate(-49.254 -12.567)"/><path class="f" d="M38.042,39.479,48.4,49.77l6.549-6.487a2.955,2.955,0,0,1,4.179,4.179l-8.67,8.607a2.994,2.994,0,0,1-4.179,0L33.925,43.658v7.36a2.963,2.963,0,1,1-5.925,0V27.94a2.963,2.963,0,1,1,5.925,0V35.3L46.338,22.887a2.994,2.994,0,0,1,4.179,0l8.545,8.607a2.955,2.955,0,0,1-4.179,4.179L48.4,29.125ZM48.4,36.547h0a2.932,2.932,0,1,0,2.058.873,2.932,2.932,0,0,0-2.058-.873Z" transform="translate(-10.536 -8.292)"/></g></g></svg>