 <svg xmlns="http://www.w3.org/2000/svg" xmlns:xlink="http://www.w3.org/1999/xlink" width="32" height="32" viewBox="0 0 32 32"><defs><style>.a{fill:#fff;stroke:#707070;}.a,.c{opacity:0;}.b{clip-path:url(#a);}.d{fill:rgba(255,255,255,0);}.e{clip-path:url(#b);}.f{fill:#f9f9f9;}.g{fill:#23af91;}</style><clipPath id="a"><rect class="a" width="32" height="32"/></clipPath><clipPath id="b"><rect width="26.667" height="26.667"/></clipPath></defs><g class="b"><g class="c"><rect class="d" width="32" height="32"/></g><g transform="translate(16.432 16)"><g transform="translate(-13.333 -13.333)"><g class="c"><g class="e"><rect class="f" width="26.667" height="26.667"/></g></g><path class="g" d="M16.533,0h.4a1.641,1.641,0,0,1,1.333.667l.8.667L22.4,4.667,24.933,7.2a2.321,2.321,0,0,1,.667,2,2.266,2.266,0,0,1-2.667,1.733,2.725,2.725,0,0,1-1.2-.667l-4.8-4.8h0L8.8,13.333S16.533,21.2,16.667,21.2l.133-.133,4.8-4.8a2.071,2.071,0,0,1,1.867-.667,2.16,2.16,0,0,1,1.867,2.533h0a1.851,1.851,0,0,1-.667,1.333l-1.6,1.6L21.2,22.933,18.133,26a2.165,2.165,0,0,1-1.2.667h-.8A2.54,2.54,0,0,1,14.8,26l-1.2-1.2L10,21.2,8,18.933,6.667,17.6,5.6,16.533H5.467v6A2.16,2.16,0,0,1,2.933,24.4,1.978,1.978,0,0,1,1.2,22.667V3.867A2.266,2.266,0,0,1,3.867,2.133,2.263,2.263,0,0,1,5.733,4.267v6l.133-.133L8,7.733l2.267-2.267L11.6,4.133,15.067.667A2.54,2.54,0,0,1,16.4,0h.133m.133,11.067A2.337,2.337,0,0,0,14.4,13.333a2.267,2.267,0,0,0,4.533,0,2.276,2.276,0,0,0-2.267-2.267"/></g></g></g></svg>
