<?xml version="1.0" encoding="utf-8"?>
<!-- Generator: Adobe Illustrator 24.0.1, SVG Export Plug-In . SVG Version: 6.00 Build 0)  -->
<svg version="1.1" id="Layer_1" xmlns="http://www.w3.org/2000/svg" xmlns:xlink="http://www.w3.org/1999/xlink" x="0px" y="0px"
	 viewBox="0 0 138 38" enable-background="new 0 0 138 38" xml:space="preserve">
<path fill="#FFFFFF" d="M0,33V5c0-0.33,0.03-0.65,0.1-0.98C0.16,3.7,0.25,3.39,0.38,3.09c0.13-0.3,0.28-0.59,0.46-0.86
	C1.03,1.95,1.23,1.7,1.46,1.46C1.7,1.23,1.95,1.03,2.22,0.84s0.56-0.34,0.86-0.46S3.7,0.16,4.02,0.1S4.67,0,5,0h128
	c0.33,0,0.65,0.03,0.98,0.1s0.63,0.16,0.94,0.28c0.3,0.13,0.59,0.28,0.86,0.46c0.27,0.18,0.53,0.39,0.76,0.62
	c0.23,0.23,0.44,0.48,0.62,0.76c0.18,0.27,0.34,0.56,0.46,0.86c0.13,0.3,0.22,0.62,0.28,0.94C137.97,4.35,138,4.67,138,5v28
	c0,0.33-0.03,0.65-0.1,0.98c-0.06,0.32-0.16,0.63-0.28,0.94c-0.13,0.3-0.28,0.59-0.46,0.86s-0.39,0.53-0.62,0.76
	c-0.23,0.23-0.48,0.44-0.76,0.62c-0.27,0.18-0.56,0.34-0.86,0.46c-0.3,0.13-0.62,0.22-0.94,0.28c-0.32,0.06-0.65,0.1-0.98,0.1H5
	c-0.33,0-0.65-0.03-0.98-0.1c-0.32-0.06-0.63-0.16-0.94-0.28s-0.59-0.28-0.86-0.46s-0.53-0.39-0.76-0.62
	c-0.23-0.23-0.44-0.48-0.62-0.76s-0.34-0.56-0.46-0.86S0.16,34.3,0.1,33.98S0,33.33,0,33z"/>
<g>
	<defs>
		<rect id="SVGID_1_" x="29.74" y="5.53" width="23.92" height="28.03"/>
	</defs>
	<clipPath id="SVGID_2_">
		<use xlink:href="#SVGID_1_"  overflow="visible"/>
	</clipPath>
	<g clip-path="url(#SVGID_2_)" enable-background="new    ">
		<g>
			<defs>
				<rect id="SVGID_3_" x="29.5" y="5.5" width="24.25" height="28.25"/>
			</defs>
			<clipPath id="SVGID_4_">
				<use xlink:href="#SVGID_3_"  overflow="visible"/>
			</clipPath>
			<path clip-path="url(#SVGID_4_)" fill="#FFFFFF" d="M43.55,7.72c0.14-0.08,0.33,0.02,0.48-0.07c0.04-0.03,0.06-0.1,0.01-0.15
				c-0.1-0.17-0.26-0.26-0.41-0.39s-0.37-0.16-0.44,0.03c-0.07,0.16-0.04,0.33-0.08,0.51c0,0.06-0.07,0.07-0.11,0.12
				c-0.04,0.05-0.04,0.15-0.01,0.18C43.12,8.09,43.37,7.82,43.55,7.72"/>
			<path clip-path="url(#SVGID_4_)" fill="#FFFFFF" d="M35.76,18.75c-0.11,0.11-0.08,0.29-0.16,0.44c-0.09,0.18-0.39,0.33-0.27,0.48
				c0.12,0.15,0.29-0.2,0.47-0.33c0.16-0.14,0.23-0.35,0.19-0.56C35.97,18.68,35.8,18.71,35.76,18.75"/>
			<path clip-path="url(#SVGID_4_)" fill="#FFFFFF" d="M45.74,14.3c-0.34-0.13-0.49-0.27-0.64-0.44c-0.15-0.17-0.21,0.12-0.08,0.42
				c0.15,0.36,0.24,0.4,0.38,0.52c0.25,0.21,0.41,0.4,0.55,0.08C46.08,14.55,46.08,14.43,45.74,14.3"/>
			<path clip-path="url(#SVGID_4_)" fill="#FFFFFF" d="M47.03,25.15c-0.02-0.06-0.11-0.11-0.28-0.13c0,0.05,0,0.1,0,0.15l0.18-0.06
				L47.03,25.15z"/>
			<path clip-path="url(#SVGID_4_)" fill="#FFFFFF" d="M47.49,24.16c0.61-0.14,1.04-0.1,1.5,0.14c0.45,0.23,0.56,0.12,0.02-0.28
				c-0.54-0.4-0.66-0.03-0.47-0.69c0.19-0.65,0.43-1.83-0.08-3.12c-0.24-0.6-1.04-2.23-1.8-2.63c-0.07-0.04-0.27-0.12-0.13,0.05
				c0.2,0.25,1.29,1.86,1.6,2.81c0.33,1.03,0.38,2.01,0.21,2.63s-0.47,0.87-0.83,0.87c-0.36,0-0.69,0.17-0.69-0.65
				c0-0.83,0.08-2.07-0.36-3.13c-0.44-1.06-0.98-1.78-1.1-2.22c-0.12-0.44-0.37-1.64-0.91-2.32c-0.39-0.49-0.62-0.86-0.61-1.32
				c-0.1,0.04-0.23,0.08-0.4,0.11l-0.06,0.01c0,0.07-0.05,0.15-0.16,0.23c-0.35,0.23-0.45,0.16-0.77,0.37s-0.93,0.56-1.33,0.94
				c-0.4,0.38-0.49,0.4-0.98,0.42c-0.49,0.02-0.8-0.49-1.01-0.72c-0.21-0.23-0.19-0.37-0.44-0.65c-0.26-0.28-0.28-0.21-0.33,0.09
				c-0.05,0.3-0.4,1.08-0.7,1.59c-0.3,0.52-0.32,1.15-0.28,1.59c0.05,0.44-0.07,0.49-0.42,1.01c-0.35,0.52-0.94,2.04-1.03,2.53
				c-0.09,0.49-0.21,1.5-0.16,2.08c0.05,0.58-0.12,0.7-0.54,0.3s-0.56-0.84-0.54-1.43c0.02-0.5,0.09-0.85,0.15-1.04
				c0.06-0.19,0-0.31-0.13-0.08c-0.29,0.5-0.3,1.36-0.23,1.66c0.07,0.3,0.09,0.84,0.86,1.57c0.77,0.72,1.9,1.73,2.83,2.41
				c0.93,0.68,1.27,1.52-0.12,2.13c0.87,1.17,1.34,1.78,0.96,2.55c0.77-0.44,0.48-1.49,0.1-1.77c-0.37-0.28-0.15-0.5,0.18-0.28
				c0.33,0.21,0.44,0.63,1.73,0.61c1.29-0.02,2.67-0.15,3.45-1.28s0.92-0.18,0.73,0.48c-0.19,0.66-0.65,2.13,0.08,1.99
				c0.09-0.87,0.31-1.62,0.31-2.55c0-0.93,0.09-1.39,0.02-2.75c-0.07-1.31,0.49-1.4,1.08-1.4l0.08,0
				C46.76,24.6,46.98,24.27,47.49,24.16"/>
			<path clip-path="url(#SVGID_4_)" fill="#F6D330" d="M38.9,12.2l0.02-0.03l-0.22,0.17C38.77,12.35,38.84,12.31,38.9,12.2"/>
			<path clip-path="url(#SVGID_4_)" fill="#F6D330" d="M39.62,12c0.12-0.14,0.33-0.15,0.5-0.12c0.01,0,0.04,0.05-0.02,0.07
				c-0.06,0.02-0.12,0-0.16,0.02c-0.05,0.02-0.05,0.06-0.06,0.09c-0.02,0.08-0.09,0.19-0.2,0.14C39.59,12.18,39.57,12.05,39.62,12
				 M41.03,11.87c0.16,0,0.52-0.08,0.43,0.18c-0.04,0.08-0.15,0.05-0.21,0.02c-0.11-0.05-0.23-0.05-0.31-0.15
				C40.91,11.86,40.99,11.87,41.03,11.87 M43.83,14.3c0-0.18,0.04-0.37,0.12-0.58c0.03-0.08,0.06-0.16,0.07-0.23
				c0.02-0.08,0.04-0.17,0.05-0.25c0.03-0.39-0.19-0.54-0.61-0.66c-0.5-0.15-1.16-0.35-1.42-0.66c-0.13-0.02-0.35-0.07-0.69-0.25
				c-0.04,0.09-0.2-0.06-0.44-0.07c-0.33-0.02-0.23-0.05-0.56-0.02c-0.18,0.01-0.23-0.05-0.23-0.16c-0.13,0.05-0.28,0.12-0.4,0.17
				c-0.04,0.17-0.1,0.22-0.35,0.39c-0.3,0.21-0.42,0.4-0.77,0.63c-0.05,0.03-0.1,0.08-0.14,0.12c-0.24,0.26-0.31,0.67-0.07,0.79
				c0.28,0.14,0.31,0.12,0.54,0.47l0.03,0.04c0.24,0.32,0.64,0.47,1.59,0.31c0.98-0.16,1.39-0.4,2.13-0.66
				c0.34-0.12,0.39-0.15,0.43-0.21c0.01-0.02,0.03-0.05,0.05-0.08c0.02-0.03,0.04-0.05,0.06-0.08c0.1-0.12,0.25-0.07,0.3,0.02
				c0.03,0.05,0.03,0.1,0.01,0.15c-0.02,0.04-0.06,0.08-0.1,0.11c-0.28,0.19-0.91,0.37-1.38,0.54c-0.47,0.16-1.01,0.63-1.99,0.59
				c-0.98-0.05-0.3-0.02-0.61-0.05c-0.31-0.02-0.44,0.02-0.12,0.26c0.33,0.23,0.31,0.31,0.59,0.4s0.65,0.1,1.1-0.07
				c0.45-0.16,1.57-0.66,1.92-0.89c0.23-0.16,0.44-0.07,0.44,0.08l0.06-0.01C43.61,14.37,43.74,14.33,43.83,14.3"/>
			<path clip-path="url(#SVGID_4_)" fill="#FFFFFF" d="M41.97,11.8c-0.19-0.37-0.07-1.12,0.35-1.31c0.42-0.18,1.12,0.07,1.15,0.61
				c0.02,0.54-0.23,0.82-0.16,0.93c0.07,0.12,0.44,0.31,0.63,0.1s0.23-0.87,0.05-1.47c-0.19-0.61-0.28-1.03-0.96-1.17
				c-0.68-0.14-0.98-0.1-1.31,0.33s-0.47,1.1-0.37,1.59c0.03,0.14,0.03,0.22,0.01,0.26c0.34,0.17,0.56,0.23,0.69,0.25
				C42.01,11.88,41.98,11.84,41.97,11.8"/>
			<path clip-path="url(#SVGID_4_)" fill="#FFFFFF" d="M39.34,11.49c0,0.08,0.12,0.04,0.13,0.02c0.09-0.16-0.02-0.35-0.06-0.54
				c-0.04-0.1-0.1-0.21-0.2-0.28c-0.01-0.01-0.04,0.01-0.05,0.01c-0.15,0.01-0.09,0.12-0.08,0.22
				C39.28,11.03,39.3,11.29,39.34,11.49"/>
			<path clip-path="url(#SVGID_4_)" fill="#FFFFFF" d="M40.11,11.03c-0.02-0.35-0.07-1.08-0.56-1.36c-0.49-0.28-1.33,0.05-1.31,1.22
				c0.02,0.87,0.24,1.4,0.45,1.44l0.22-0.17c0.21-0.38,0.09-0.18-0.14-0.37c-0.23-0.18-0.4-0.96-0.14-1.19
				c0.26-0.23,0.56-0.23,0.73-0.1c0.17,0.14,0.42,0.61,0.37,0.91c-0.01,0.06-0.02,0.11-0.03,0.15c0.12-0.06,0.27-0.12,0.4-0.17
				C40.11,11.31,40.12,11.18,40.11,11.03"/>
			<path clip-path="url(#SVGID_4_)" fill="#FFFFFF" d="M42.65,10.78c0.16,0.01,0.38,0.29,0.4,0.62c0,0.05,0.14,0.05,0.17,0
				c0.08-0.13,0.02-0.28-0.01-0.43c-0.03-0.13-0.18-0.26-0.31-0.32c-0.08-0.04-0.17-0.06-0.29-0.04
				C42.58,10.62,42.48,10.77,42.65,10.78"/>
			<path clip-path="url(#SVGID_4_)" fill="#F6D330" d="M48.6,26.93c-0.5,0.09-1-0.07-1.44-0.72c-0.19-0.27-0.32-0.57-0.38-0.84
				c-0.03,0-0.06,0-0.09,0c-0.38-0.02-0.77,0.12-0.8,1.08c-0.02,0.96,0,0.87,0.16,1.73s0.19,1.12,0.05,2.08
				C46.05,30.67,45.99,31,46,31.29c0.01,0.38,0.12,0.7,0.49,1.03c0.63,0.59,1.59,0.42,2.08,0.05c0.49-0.37,1.43-1.24,2.27-1.52
				c0.84-0.28,1.73-0.49,2.2-0.96c0.47-0.47,0.35-0.8-0.14-1.05c-0.49-0.26-0.96-0.14-1.33-0.56c-0.37-0.42-0.56-1.36-0.42-1.85
				c0.05-0.17,0.1-0.26,0.15-0.28c-0.14-0.27-0.53-0.41-0.79-0.44l-0.05-0.01C49.95,26.2,49.28,26.81,48.6,26.93"/>
			<path clip-path="url(#SVGID_4_)" fill="#F6D330" d="M32.88,26.05c-0.09,0.28-0.14,1.05-0.86,1.17c-0.72,0.12-0.89-0.05-1.34-0.05
				c-0.45,0-0.63,0.3-0.4,0.82c0.23,0.52,0.49,1.05,0.45,1.5c-0.05,0.44-0.1,0.61-0.42,1.03c-0.33,0.42-0.28,0.63,0.3,0.77
				c0.59,0.14,1.64,0.42,2.62,0.66c0.98,0.23,1.06,0.23,2.76,0.68c1.44,0.37,2-0.13,2.22-0.87c0.04-0.15,0.08-0.29,0.1-0.44
				c0.14-0.96-0.52-1.87-1.12-2.79s-1.26-1.96-2.06-2.92c-0.66-0.79-1.09-0.98-1.44-0.9c-0.08,0.02-0.15,0.04-0.22,0.08
				c-0.18,0.1-0.29,0.14-0.37,0.11c-0.18,0.13-0.32,0.31-0.32,0.53c0,0.02,0,0.04,0,0.07C32.92,25.37,32.95,25.85,32.88,26.05"/>
			<path clip-path="url(#SVGID_4_)" fill="#F6D330" d="M47.03,25.15l-0.1-0.03l-0.18,0.06c0.01,0.07,0.01,0.13,0.03,0.19
				C46.96,25.35,47.07,25.24,47.03,25.15"/>
			<path clip-path="url(#SVGID_4_)" d="M48.57,25.73c-0.01-0.04-0.01-0.1-0.01-0.18v-0.03l0.01-0.69l0.21-0.12l-0.01,0.32l0.24-0.08
				l0,0.08l-0.24,0.08l-0.01,0.34c0,0.02,0,0.05,0,0.08c0,0.03,0,0.08,0.01,0.1c0.01,0.03,0.05,0.04,0.09,0.02
				c0.06-0.02,0.1-0.08,0.12-0.12c0.02-0.04,0.02-0.04,0.02-0.04s0.01,0,0.01,0.01c0,0.01,0,0.02,0,0.03
				c-0.02,0.07-0.1,0.21-0.24,0.26C48.7,25.83,48.6,25.82,48.57,25.73 M48.26,25.97c-0.07,0.02-0.16,0.03-0.19-0.05
				c-0.03-0.08,0.03-0.37,0.02-0.46c0-0.01,0-0.01,0-0.02c0-0.01-0.01-0.03-0.03-0.03c-0.01-0.01-0.03-0.01-0.04,0
				c-0.01,0-0.03,0.01-0.04,0.02c-0.07,0.06-0.11,0.21-0.13,0.29c-0.02,0.1-0.03,0.24-0.04,0.38l-0.2,0.07l0.01-0.76l0.14-0.04
				l0.08-0.03l0,0.05l-0.02,0.32h0c0.02-0.08,0.06-0.19,0.11-0.29c0.05-0.1,0.11-0.16,0.19-0.19c0.08-0.03,0.16,0,0.18,0.08
				c0.01,0.03,0.01,0.11,0,0.19c-0.01,0.12-0.03,0.26-0.02,0.29c0.01,0.03,0.05,0.05,0.1,0.04c0.07-0.02,0.09-0.11,0.12-0.12
				c0.02-0.01,0.01,0,0.01,0.01C48.5,25.72,48.42,25.92,48.26,25.97 M45.94,14.87c-0.14,0.32-0.3,0.13-0.55-0.08
				c-0.14-0.11-0.22-0.15-0.38-0.52c-0.12-0.3-0.07-0.6,0.08-0.42c0.15,0.18,0.31,0.31,0.64,0.44
				C46.07,14.43,46.08,14.55,45.94,14.87 M42.61,10.61c0.11-0.01,0.2,0,0.29,0.04c0.13,0.06,0.28,0.19,0.31,0.32
				c0.04,0.16,0.09,0.3,0.01,0.43c-0.03,0.05-0.16,0.05-0.17,0c-0.02-0.33-0.24-0.61-0.4-0.62C42.49,10.78,42.58,10.62,42.61,10.61
				 M43,7.78c0.04-0.05,0.11-0.07,0.11-0.12c0.04-0.18,0.01-0.34,0.08-0.51c0.07-0.19,0.3-0.15,0.44-0.03
				c0.15,0.12,0.32,0.22,0.41,0.39c0.04,0.05,0.03,0.12-0.01,0.15c-0.15,0.1-0.34-0.01-0.48,0.07c-0.18,0.1-0.43,0.37-0.57,0.23
				C42.96,7.93,42.95,7.84,43,7.78 M35.8,19.34c-0.18,0.13-0.35,0.48-0.47,0.33s0.18-0.3,0.27-0.48c0.08-0.15,0.05-0.33,0.16-0.44
				c0.04-0.04,0.21-0.08,0.23,0.04C36.03,18.99,35.96,19.2,35.8,19.34 M39.17,10.7c0.01,0,0.04-0.03,0.05-0.01
				c0.09,0.07,0.16,0.18,0.2,0.28c0.04,0.19,0.15,0.38,0.06,0.54c-0.01,0.02-0.13,0.06-0.13-0.02c-0.04-0.2-0.06-0.46-0.26-0.57
				C39.07,10.82,39.02,10.71,39.17,10.7 M53.06,28.62c-0.56-0.35-0.89-0.56-1.24-1.01c-0.35-0.44-0.37-0.77-0.37-1.12
				c0-0.23-0.07-0.4-0.15-0.35c-0.05,0.02-0.1,0.11-0.15,0.28c-0.14,0.49,0.05,1.43,0.42,1.85c0.38,0.42,0.84,0.3,1.33,0.56
				c0.49,0.26,0.61,0.58,0.14,1.05c-0.46,0.47-1.36,0.68-2.2,0.96c-0.84,0.28-1.78,1.15-2.27,1.52c-0.49,0.37-1.45,0.54-2.08-0.05
				c-0.36-0.33-0.48-0.65-0.49-1.03c-0.01-0.29,0.05-0.62,0.11-1.03c0.14-0.96,0.12-1.21-0.05-2.08c-0.16-0.87-0.19-0.77-0.16-1.73
				c0.02-0.96,0.42-1.1,0.8-1.08c0.03,0,0.06,0,0.09,0c-0.01-0.06-0.02-0.13-0.03-0.19c0-0.05-0.01-0.1,0-0.15l-0.08,0
				c-0.58,0-1.15,0.09-1.08,1.4c0.07,1.36-0.02,1.81-0.02,2.75s-0.21,1.68-0.31,2.55c-0.72,0.14-0.26-1.34-0.08-1.99
				c0.18-0.65,0.04-1.6-0.73-0.48s-2.16,1.25-3.45,1.28c-1.29,0.02-1.41-0.4-1.73-0.61c-0.33-0.21-0.55,0-0.18,0.28
				c0.38,0.28,0.67,1.33-0.1,1.77c0.38-0.77-0.09-1.38-0.96-2.55c1.38-0.61,1.06-1.45,0.12-2.13s-2.06-1.68-2.83-2.41
				c-0.77-0.72-0.8-1.27-0.86-1.57c-0.07-0.3-0.06-1.17,0.23-1.66c0.14-0.23,0.2-0.1,0.13,0.08c-0.06,0.18-0.13,0.54-0.15,1.04
				c-0.02,0.59,0.12,1.03,0.54,1.43c0.42,0.4,0.59,0.28,0.54-0.3s0.07-1.59,0.16-2.08c0.09-0.49,0.68-2.01,1.03-2.53
				c0.35-0.52,0.46-0.56,0.42-1.01c-0.05-0.45-0.02-1.08,0.28-1.59s0.66-1.29,0.7-1.59s0.07-0.37,0.33-0.09
				c0.26,0.28,0.23,0.42,0.44,0.65s0.52,0.75,1.01,0.72s0.59-0.05,0.98-0.42c0.4-0.37,1.01-0.72,1.33-0.94s0.42-0.14,0.77-0.37
				c0.11-0.08,0.16-0.16,0.16-0.23c0-0.15-0.21-0.23-0.44-0.08c-0.35,0.23-1.47,0.72-1.92,0.89s-0.82,0.16-1.1,0.07
				c-0.28-0.1-0.26-0.16-0.59-0.4c-0.33-0.23-0.18-0.28,0.12-0.26c0.3,0.02-0.37,0,0.61,0.05c0.98,0.05,1.52-0.42,1.99-0.59
				s1.1-0.35,1.38-0.54c0.04-0.03,0.08-0.06,0.1-0.11c0.02-0.05,0.02-0.1-0.01-0.15c-0.05-0.1-0.2-0.14-0.3-0.02
				c-0.02,0.02-0.04,0.05-0.06,0.08c-0.02,0.04-0.04,0.06-0.05,0.08c-0.04,0.06-0.09,0.1-0.43,0.21c-0.74,0.26-1.15,0.49-2.13,0.66
				c-0.94,0.16-1.35,0.01-1.59-0.31l-0.03-0.04c-0.23-0.35-0.26-0.33-0.54-0.47c-0.24-0.12-0.17-0.53,0.07-0.79
				c0.04-0.05,0.09-0.09,0.14-0.12c0.35-0.23,0.47-0.42,0.77-0.63c0.24-0.17,0.31-0.22,0.35-0.39c0.01-0.04,0.02-0.09,0.03-0.15
				c0.05-0.3-0.21-0.77-0.37-0.91c-0.16-0.14-0.47-0.14-0.73,0.1c-0.26,0.23-0.09,1.01,0.14,1.19c0.23,0.18,0.35-0.01,0.14,0.37
				L38.9,12.2c-0.06,0.11-0.13,0.15-0.2,0.14c-0.21-0.04-0.44-0.58-0.45-1.44c-0.02-1.17,0.82-1.5,1.31-1.22
				c0.49,0.28,0.54,1.01,0.56,1.36c0.01,0.16-0.01,0.28,0,0.38c0.01,0.12,0.05,0.18,0.23,0.16c0.33-0.02,0.23,0,0.56,0.02
				c0.23,0.02,0.39,0.16,0.44,0.07c0.02-0.04,0.01-0.11-0.01-0.26c-0.1-0.49,0.05-1.17,0.37-1.59s0.63-0.47,1.31-0.33
				c0.68,0.14,0.77,0.56,0.96,1.17c0.19,0.61,0.14,1.26-0.05,1.47c-0.18,0.21-0.56,0.02-0.63-0.1s0.19-0.4,0.16-0.93
				s-0.72-0.8-1.15-0.61c-0.42,0.19-0.54,0.93-0.35,1.31c0.02,0.04,0.04,0.08,0.07,0.11c0.26,0.31,0.92,0.52,1.42,0.66
				c0.42,0.12,0.64,0.27,0.61,0.66c-0.01,0.08-0.02,0.17-0.05,0.25c-0.02,0.07-0.04,0.15-0.08,0.23c-0.08,0.21-0.12,0.4-0.12,0.58
				c-0.01,0.46,0.22,0.83,0.61,1.32c0.54,0.68,0.8,1.87,0.91,2.32c0.11,0.44,0.66,1.17,1.1,2.22c0.45,1.05,0.36,2.3,0.36,3.13
				c0,0.83,0.33,0.65,0.69,0.65s0.66-0.25,0.83-0.87c0.17-0.63,0.12-1.6-0.21-2.63c-0.31-0.96-1.4-2.56-1.6-2.81
				c-0.14-0.17,0.06-0.08,0.13-0.05c0.76,0.4,1.56,2.04,1.8,2.63c0.51,1.29,0.27,2.47,0.08,3.12c-0.19,0.65-0.08,0.28,0.47,0.69
				c0.55,0.41,0.44,0.52-0.02,0.28s-0.89-0.28-1.5-0.14c-0.5,0.11-0.72,0.45-0.74,0.87c0.17,0.01,0.26,0.07,0.28,0.13
				c0.03,0.09-0.08,0.2-0.25,0.22c0.06,0.28,0.19,0.57,0.38,0.84c0.44,0.65,0.95,0.81,1.44,0.72c0.68-0.13,1.35-0.73,1.85-1.24
				l0.17-0.18c0.84-0.89,0.66-1.71,0.33-3.44c-0.33-1.73-1.03-3.16-2.15-4.57c-1.12-1.4-1.55-2.34-2.2-3.56
				c-0.65-1.22-0.47-3.56-0.8-5.33c-0.33-1.78-1.94-3.14-4.52-3.09c-2.57,0.05-3.82,1.45-3.72,4.63c0.05,1.59,0.09,2.3,0.14,3.51
				s0.21,1.08-0.35,1.85c-0.56,0.77-0.21,0.33-1.01,1.47c-0.8,1.14-1.21,1.41-1.68,2.74c-0.47,1.33-0.87,2.2-1.31,3
				c-0.44,0.8-0.4,1.15-0.37,1.68c0.01,0.3,0.04,0.44,0.13,0.48c0.09,0.04,0.18-0.01,0.37-0.11c0.07-0.04,0.14-0.06,0.22-0.08
				c0.36-0.08,0.79,0.11,1.44,0.9c0.8,0.96,1.45,2.01,2.06,2.92c0.61,0.91,1.26,1.82,1.12,2.78c-0.02,0.15-0.05,0.3-0.1,0.45
				C37.99,32.5,37.43,33,36,32.63c-1.71-0.45-1.78-0.45-2.76-0.68c-0.98-0.23-2.04-0.52-2.62-0.66c-0.58-0.14-0.63-0.35-0.3-0.77
				c0.33-0.42,0.37-0.59,0.42-1.03c0.05-0.44-0.21-0.98-0.45-1.5c-0.23-0.51-0.05-0.82,0.4-0.82c0.44,0,0.61,0.16,1.34,0.05
				c0.72-0.12,0.77-0.89,0.86-1.17c0.07-0.2,0.04-0.68-0.1-0.56c-0.06,0.05-0.13,0.2-0.23,0.52c-0.33,1.08-1.1,0.91-1.92,0.91
				c-0.82,0-0.93,0.89-0.63,1.75c0.3,0.87-0.05,1.52-0.18,1.94c-0.14,0.42-0.21,0.94,0.86,1.17c1.08,0.23,0.12,0.07,1.9,0.42
				c1.78,0.35,2.41,0.8,3.6,1.19c1.19,0.4,1.43,0,2.06-0.52c0.63-0.52,1.1-0.75,2.5-0.77c1.4-0.02,3.2,0,3.74,0.02
				c0.54,0.02,0.65-0.05,0.89,0.42c0.34,0.68,0.87,0.96,2.01,0.96c1.14,0,1.47-0.52,2.06-1.1c0.59-0.59,1.55-1.14,2.13-1.38
				c0.58-0.23,0.99-0.52,1.68-1.01C53.96,29.54,53.62,28.98,53.06,28.62"/>
			<path clip-path="url(#SVGID_4_)" d="M39.67,12.21c0.11,0.05,0.18-0.06,0.2-0.14c0.01-0.04,0.02-0.08,0.06-0.09
				c0.04-0.01,0.11,0,0.16-0.02c0.05-0.02,0.04-0.07,0.02-0.07c-0.17-0.04-0.38-0.02-0.5,0.12C39.57,12.05,39.59,12.18,39.67,12.21"
				/>
			<path clip-path="url(#SVGID_4_)" d="M41.25,12.07c0.06,0.02,0.17,0.06,0.21-0.02c0.08-0.26-0.27-0.18-0.43-0.18
				c-0.04,0-0.12-0.01-0.08,0.05C41.02,12.02,41.14,12.02,41.25,12.07"/>
			<path clip-path="url(#SVGID_4_)" d="M48.79,25.8c0.14-0.05,0.22-0.19,0.24-0.26c0-0.01,0.01-0.02,0.01-0.03
				c0-0.01-0.01-0.01-0.01-0.01s-0.01,0.02-0.02,0.04c-0.01,0.02-0.06,0.09-0.12,0.12c-0.04,0.01-0.08,0-0.09-0.02
				c-0.01-0.03-0.01-0.06-0.01-0.1c0-0.04,0-0.05,0-0.08l0.01-0.34l0.24-0.08l0-0.08l-0.24,0.08l0.01-0.32l-0.21,0.12l-0.01,0.69
				v0.03c0,0.08-0.01,0.15,0.01,0.18C48.61,25.82,48.7,25.83,48.79,25.8"/>
			<path clip-path="url(#SVGID_4_)" d="M48.49,25.71c-0.02,0.01-0.05,0.1-0.12,0.12c-0.05,0.01-0.08,0.01-0.1-0.04
				c-0.01-0.05,0.01-0.17,0.02-0.29c0.01-0.08,0.01-0.16,0-0.19c-0.02-0.08-0.11-0.1-0.18-0.08c-0.08,0.02-0.14,0.1-0.19,0.19
				c-0.05,0.09-0.08,0.21-0.11,0.29h0l0.02-0.32l0-0.05l-0.08,0.03l-0.14,0.04l-0.01,0.76l0.2-0.07c0-0.13,0.01-0.28,0.04-0.38
				c0.02-0.08,0.06-0.23,0.13-0.29c0.01-0.01,0.02-0.02,0.04-0.02c0.01-0.01,0.03-0.01,0.04,0c0.01,0.01,0.02,0.02,0.03,0.03
				c0,0.01,0,0.01,0,0.02c0.01,0.09-0.04,0.39-0.02,0.46c0.02,0.07,0.12,0.07,0.19,0.05c0.16-0.05,0.25-0.24,0.24-0.26
				C48.49,25.7,48.5,25.71,48.49,25.71"/>
		</g>
	</g>
</g>
<g>
	<path fill="#8B8D8F" d="M71.14,24.77h-5.46c-0.16,0-0.24-0.08-0.24-0.24V14.08c0-0.16,0.08-0.24,0.24-0.24h0.77
		c0.16,0,0.24,0.08,0.24,0.24v9.42c0,0.1,0.06,0.15,0.17,0.15h4.28c0.16,0,0.24,0.08,0.24,0.25v0.63
		C71.38,24.69,71.3,24.77,71.14,24.77z"/>
</g>
<g>
	<path fill="#8B8D8F" d="M74.44,14.08v10.46c0,0.16-0.08,0.24-0.24,0.24h-0.76c-0.16,0-0.24-0.08-0.24-0.24V14.08
		c0-0.16,0.08-0.24,0.24-0.24h0.76C74.36,13.84,74.44,13.92,74.44,14.08z"/>
	<path fill="#8B8D8F" d="M78.2,24.77h-0.75c-0.16,0-0.24-0.08-0.24-0.24V14.08c0-0.16,0.08-0.24,0.24-0.24h0.7
		c0.14,0,0.23,0.04,0.27,0.14l4.69,8.25h0.07v-8.14c0-0.16,0.08-0.24,0.24-0.24h0.75c0.16,0,0.24,0.08,0.24,0.24v10.46
		c0,0.16-0.08,0.24-0.24,0.24h-0.63c-0.13,0-0.24-0.07-0.36-0.22l-4.68-8.16h-0.07v8.14C78.43,24.69,78.35,24.77,78.2,24.77z"/>
	<path fill="#8B8D8F" d="M92.9,13.84h0.76c0.16,0,0.24,0.07,0.24,0.22v8.19c0,0.79-0.22,1.41-0.66,1.85s-1.05,0.66-1.84,0.66h-1.89
		c-0.78,0-1.4-0.22-1.84-0.66C87.22,23.66,87,23.05,87,22.25v-8.18c0-0.16,0.08-0.24,0.24-0.24H88c0.16,0,0.24,0.08,0.24,0.24v8.13
		c0,0.99,0.47,1.48,1.41,1.48h1.6c0.95,0,1.43-0.49,1.43-1.48v-8.13C92.68,13.92,92.75,13.84,92.9,13.84z"/>
	<path fill="#8B8D8F" d="M96.74,24.77h-0.88c-0.08,0-0.13-0.03-0.16-0.08c-0.03-0.05-0.03-0.11,0.01-0.18l2.98-5.46l-2.82-4.96
		c-0.05-0.07-0.05-0.13-0.02-0.18c0.03-0.05,0.09-0.08,0.17-0.08h0.85c0.18,0,0.31,0.08,0.37,0.24l2.28,4.18h0.07l2.24-4.18
		c0.09-0.16,0.21-0.24,0.37-0.24h0.88c0.08,0,0.13,0.03,0.16,0.08c0.03,0.05,0.03,0.11-0.01,0.18l-2.84,4.95l2.96,5.47
		c0.05,0.07,0.05,0.13,0.03,0.18c-0.03,0.05-0.08,0.08-0.16,0.08h-0.9c-0.16,0-0.27-0.07-0.32-0.22l-2.43-4.56H99.5l-2.41,4.56
		C97,24.7,96.89,24.77,96.74,24.77z"/>
</g>
</svg>
