<svg xmlns="http://www.w3.org/2000/svg" xmlns:xlink="http://www.w3.org/1999/xlink" width="138" height="38" viewBox="0 0 138 38"><defs><clipPath id="a"><rect width="59.293" height="15.345" fill="none"/></clipPath><clipPath id="b"><rect width="18.438" height="22.617" fill="none"/></clipPath></defs><rect width="138" height="38" rx="5" fill="#fff"/><g transform="translate(82.424 19.222)"><g transform="translate(-29.647 -7.673)" clip-path="url(#a)"><path d="M14.883,15.1H13.229V9q0-3.373-2.381-3.373a2.23,2.23,0,0,0-1.014.232,2.571,2.571,0,0,0-.8.628,2.929,2.929,0,0,0-.529.9,3.018,3.018,0,0,0-.187,1.058V15.1H6.659V8.6a3.7,3.7,0,0,0-.573-2.15,1.932,1.932,0,0,0-1.7-.827,2.251,2.251,0,0,0-1.058.254,2.694,2.694,0,0,0-.838.683,3.293,3.293,0,0,0-.551.97,3.171,3.171,0,0,0-.2,1.092V15.1H.088V7.232q0-.64-.022-1.334T0,4.454H1.478V6.2h.154A3.6,3.6,0,0,1,4.939,4.233a3.03,3.03,0,0,1,1.841.573A3.1,3.1,0,0,1,7.893,6.372h.044A4.07,4.07,0,0,1,9.4,4.774a3.878,3.878,0,0,1,2.04-.541,3.012,3.012,0,0,1,2.5,1.2,5.311,5.311,0,0,1,.937,3.341V15.1Zm8.6,0-.154-1.367h-.066a3.622,3.622,0,0,1-3.219,1.609,3.478,3.478,0,0,1-1.257-.22,2.883,2.883,0,0,1-.992-.628,3.044,3.044,0,0,1-.661-.959,2.964,2.964,0,0,1-.242-1.213A3.255,3.255,0,0,1,18.5,9.381a8.906,8.906,0,0,1,4.674-1V8.136q0-2.623-2.447-2.624a4.767,4.767,0,0,0-2.69.772l-.4-1.147a6.035,6.035,0,0,1,3.329-.9q3.88,0,3.88,4.255v4.08q0,.771.033,1.4A9.709,9.709,0,0,0,25,15.1H23.483ZM23.2,9.591h-.331q-4.278,0-4.278,2.514a1.908,1.908,0,0,0,.529,1.478,1.885,1.885,0,0,0,1.323.485,2.977,2.977,0,0,0,1-.176,2.881,2.881,0,0,0,.882-.5,2.539,2.539,0,0,0,.628-.782,2.186,2.186,0,0,0,.242-1.036ZM34.685,6.129A4.621,4.621,0,0,0,32.436,5.6a3.865,3.865,0,0,0-1.61.32,3.4,3.4,0,0,0-1.191.882,4.008,4.008,0,0,0-.75,1.334,5.133,5.133,0,0,0-.265,1.675,5.013,5.013,0,0,0,.276,1.7,3.8,3.8,0,0,0,.772,1.312,3.454,3.454,0,0,0,1.179.838,3.761,3.761,0,0,0,1.522.3,5.675,5.675,0,0,0,2.36-.529l.33,1.278a6.64,6.64,0,0,1-3,.617,5.565,5.565,0,0,1-2.117-.386,4.656,4.656,0,0,1-1.632-1.1,4.874,4.874,0,0,1-1.047-1.709A6.436,6.436,0,0,1,26.9,9.9,6.218,6.218,0,0,1,27.309,7.6a5.322,5.322,0,0,1,1.136-1.786A5.1,5.1,0,0,1,30.2,4.651a5.916,5.916,0,0,1,2.26-.419A5.428,5.428,0,0,1,35.1,4.8l-.419,1.324Zm14.6,1.389a10.058,10.058,0,0,1-.474,3.175,7.416,7.416,0,0,1-1.345,2.47,6.048,6.048,0,0,1-2.095,1.609,6.356,6.356,0,0,1-2.723.573,6.018,6.018,0,0,1-4.675-2.128,7.234,7.234,0,0,1-1.334-2.381A9.25,9.25,0,0,1,36.162,7.8a9.687,9.687,0,0,1,.5-3.164,7.443,7.443,0,0,1,1.378-2.47A6.188,6.188,0,0,1,42.822,0a6.3,6.3,0,0,1,2.656.551,5.8,5.8,0,0,1,2.04,1.544,7.147,7.147,0,0,1,1.3,2.381,9.588,9.588,0,0,1,.463,3.042M47.5,7.607a8.239,8.239,0,0,0-.353-2.459,6.6,6.6,0,0,0-.981-1.984,4.6,4.6,0,0,0-1.5-1.323,3.958,3.958,0,0,0-1.929-.474,4.146,4.146,0,0,0-1.974.474,4.5,4.5,0,0,0-1.522,1.323,6.5,6.5,0,0,0-.982,2.029A8.941,8.941,0,0,0,37.9,7.762a8.175,8.175,0,0,0,.353,2.436,6.432,6.432,0,0,0,.982,1.974,4.7,4.7,0,0,0,1.51,1.323,3.963,3.963,0,0,0,1.94.485,4.069,4.069,0,0,0,1.974-.485,4.573,4.573,0,0,0,1.522-1.345,6.5,6.5,0,0,0,.97-2.018A8.893,8.893,0,0,0,47.5,7.607m11.8,3.506a4.162,4.162,0,0,1-.353,1.731,3.746,3.746,0,0,1-1,1.334,4.555,4.555,0,0,1-1.577.849,6.761,6.761,0,0,1-2.073.3,6.206,6.206,0,0,1-3.638-.948l.463-1.389a6.06,6.06,0,0,0,3.285.926,3.488,3.488,0,0,0,2.36-.727,2.441,2.441,0,0,0,.838-1.94,2.553,2.553,0,0,0-.651-1.819,5.782,5.782,0,0,0-2.15-1.268Q50.98,6.726,50.98,3.97a3.67,3.67,0,0,1,1.3-2.844A4.384,4.384,0,0,1,53.747.31,5.7,5.7,0,0,1,55.588.024a6.171,6.171,0,0,1,3.131.706L58.212,2.1a4.94,4.94,0,0,0-2.69-.683,3.2,3.2,0,0,0-2.073.64,2.071,2.071,0,0,0-.794,1.7,2.662,2.662,0,0,0,.143.9,2.166,2.166,0,0,0,.474.75,3.737,3.737,0,0,0,.893.672,12.834,12.834,0,0,0,1.422.672,10.182,10.182,0,0,1,1.7.849,5.173,5.173,0,0,1,1.158.981,3.314,3.314,0,0,1,.651,1.158,4.543,4.543,0,0,1,.2,1.376Z" fill="#333"/></g></g><g transform="translate(30.742 18.361)"><g transform="translate(-9.219 -11.308)" clip-path="url(#b)"><path d="M10.173,1.968A4.842,4.842,0,0,1,13.725,0a4.828,4.828,0,0,1-1.169,3.615A3.819,3.819,0,0,1,9.188,5.2a4.2,4.2,0,0,1,.985-3.232m-.8,4.521c.764,0,2.183-1.051,4.03-1.051A5.047,5.047,0,0,1,17.837,7.7a4.91,4.91,0,0,0-2.446,4.285,5.036,5.036,0,0,0,3.047,4.6s-2.13,6-5.007,6c-1.322,0-2.349-.89-3.741-.89-1.419,0-2.827.924-3.744.924C3.319,22.617,0,16.93,0,12.358,0,7.861,2.809,5.5,5.445,5.5c1.713,0,3.042.988,3.933.988Z" transform="translate(0 0)" fill="#999"/></g></g></svg>