<svg xmlns="http://www.w3.org/2000/svg" width="145.591" height="40.07" viewBox="0 0 145.591 40.07"><defs><style>.a{fill:#fff;}</style></defs><g transform="translate(72.795 20.035)"><g transform="translate(-72.795 -20.035)"><path class="a" d="M0,29.691l5.337-9.153L17.238,0h.119l.514.929,10,17.257c.138.237.316.455.514.731l.257-.415L38.963.692,39.378,0h.079L52.345,22.219l4.25,7.373L50.547,40.07h-.079c-.178-.257-.277-.415-.4-.593L39.832,21.764a6.8,6.8,0,0,0-.494-.652L28.8,39.358c-.119.2-.237.415-.376.692h-.237A10.754,10.754,0,0,0,27.655,39L17.969,22.3l-.712-1.245c-.3.474-.514.791-.712,1.127q-3.914,6.879-7.868,13.739c-.791,1.364-1.522,2.768-2.293,4.151H6.128c-.909-1.581-1.819-3.183-2.748-4.744s-2.135-3.558-3.2-5.337ZM33.032,29.1l-4.685-8.065L23.682,29.1ZM17.277,19.037l4.645-8.026H12.632ZM6.187,21.013,1.581,29.019h9.251ZM17.257,1.9,12.632,9.923h9.291ZM45.881,29.019h9.271l-4.626-7.986ZM34.772,10.991l4.665,8.046,4.645-8.046Zm-6.4,27.181,4.665-8.085h-9.35ZM39.437,1.917,34.772,9.963H44.1Zm11.09,36.235,4.645-8.026H45.862ZM16.447,19.57l-4.7-8.1-4.685,8.1Zm-9.39.949,4.685,8.065,4.665-8.065ZM44.972,28.6l4.665-8.065H40.327Zm0-17.139-4.645,8.046h9.311Zm-34.1,18.621H1.542l4.665,8.065ZM33.9,28.6l4.665-8.085h-9.33Zm-11.07-.02,4.645-8.046H18.167ZM27.5,19.531l-4.685-8.065L18.147,19.55Zm11.09,0L33.9,11.465,29.237,19.55Z"/><g transform="translate(64.938 3.756)"><path class="a" d="M336.221,19.5l-1.364,3.756-1.384-3.736H331.2v7.275l2.1-.04V24.62l.1-.02.731,1.917h1.483l.751-2,.1.02v2.273h2.056V19.5Z" transform="translate(-330.666 -19.401)"/><path class="a" d="M424.535,147.7l-2.273.02-1.344,3.736-1.384-3.736H417.3l.02,7.294H419.3v-2.352h.119l.751,2.036h1.5l.751-2.056.119.04v2.333h2.076l-.079-7.314Z" transform="translate(-399.746 -122.259)"/><path class="a" d="M473.861,147.7l-1.344,3.716-1.384-3.716H468.82l-.02.652.04,4.982.02,1.245.04.435h2.036v-2.431h.059l.771,2.115h1.5l.751-2.036.1.02v2.313h2V147.7Z" transform="translate(-441.066 -122.259)"/><path class="a" d="M336.619,87.3l.2-.316a2,2,0,0,0-1.048-2.926,2.293,2.293,0,0,0-.712-.158h-3.143l-.514.04v7.275l.435.04h2.847a4.567,4.567,0,0,0,.83-.1,2.194,2.194,0,0,0,1.819-1.917A2.076,2.076,0,0,0,336.619,87.3Zm-3.1-1.581h.949c.217.02.415.1.435.356s-.138.4-.435.435a7.909,7.909,0,0,1-.969,0Zm1.6,3.341c-.356.336-.692.376-1.6.237a3.231,3.231,0,0,1-.04-.435c0-.138.02-.277.02-.494.4,0,.731-.02,1.087,0s.553.217.534.712Z" transform="translate(-330.827 -71.071)"/><path class="a" d="M710.335,83v2.076l-.1.988L708.457,82.9H706.5l.059,7.314h2.016l.1-3.1,1.8,3.1h1.957V82.94l-2.1.059Z" transform="translate(-631.777 -70.268)"/><path class="a" d="M416.2,88.357a4.626,4.626,0,0,0-.02-3.677,3.36,3.36,0,0,0-5.594-.83,3.874,3.874,0,0,0-.83,2.688c0,.217-.02.455,0,.672a3.659,3.659,0,0,0,.1.573,3.227,3.227,0,0,0,3.084,2.59A3.012,3.012,0,0,0,416.2,88.357Zm-4.033-.514a3.2,3.2,0,0,1,.02-2.629,1.008,1.008,0,0,1,.949-.633,1.028,1.028,0,0,1,.969.593,3.52,3.52,0,0,1,.356,1.384,10.854,10.854,0,0,1-.3,1.265,1.048,1.048,0,0,1-1.977.04Z" transform="translate(-393.688 -70.111)"/><path class="a" d="M590.7,83.1v2.629l-1.759-.02V83.12L586.9,83.1l.02,7.314h2.036V87.627h1.7l.119,2.768h2l-.059-7.294Z" transform="translate(-535.82 -70.429)"/><path class="a" d="M507.942,90.794l-2.965-4.033,1.5-1.621,1.5-1.641h-2.728l-1.9,2.1V83.5H501.3l.04,7.334,2.016-.02v-.593l.02-1.463.257-.415,1.74,2.451Z" transform="translate(-467.141 -70.75)"/><path class="a" d="M377.93,147.68c-.712,0-1.364-.02-2.076.02v4.408a2.769,2.769,0,0,1-.079.672.656.656,0,0,1-.712.553.866.866,0,0,1-.929-.81,3.808,3.808,0,0,1-.02-.474c0-1.265-.02-2.511-.02-3.776,0-.178-.04-.356-.04-.553h-2.016a1.318,1.318,0,0,0-.059.217c0,1.562-.02,3.143.02,4.7a2.451,2.451,0,0,0,1.9,2.412,3.993,3.993,0,0,0,2.372-.059,2.174,2.174,0,0,0,1.443-1.364,4.369,4.369,0,0,0,.277-1.324c.04-1.4.02-2.787.02-4.191Q377.98,147.9,377.93,147.68Z" transform="translate(-363.381 -122.239)"/><path class="a" d="M331.524,149.067a1.609,1.609,0,0,1,1.463.771l1.759-.553c-.81-2.392-3.637-2.471-5-1.562a2,2,0,0,0,.158,3.519,11.936,11.936,0,0,0,1.206.474l.969.376c.217.1.415.217.415.494s-.316.376-.672.4a1.717,1.717,0,0,1-1.522-.909,4.784,4.784,0,0,0-1.8.652c.751,2.313,3.875,2.649,5.4,1.483a2.148,2.148,0,0,0-.2-3.479,10.651,10.651,0,0,0-1.147-.514c-.336-.138-.692-.217-1.048-.336s-.455-.178-.514-.455C331.228,149.087,331.228,149.107,331.524,149.067Z" transform="translate(-328.5 -121.847)"/><path class="a" d="M498.728,25.191h1.937l.514,1.4h2.234L500.7,19.3h-2.056L497.3,22.957,496,26.614h2.214Zm.949-3.519.573,1.779h-1.107l.553-1.779Z" transform="translate(-462.889 -19.241)"/><path class="a" d="M569.372,26.294,566.644,19h-2.036L561.9,26.373h2.254l.514-1.463H566.6l.514,1.423Zm-4.309-3.1.514-1.661h.1l.514,1.641Z" transform="translate(-515.762 -19)"/><path class="a" d="M630.069,83.1,627.4,90.414h2.234l.514-1.443h1.917l.514,1.423h2.254L632.1,83.1Zm.474,4.151.554-1.759.554,1.759Z" transform="translate(-568.314 -70.429)"/><path class="a" d="M383.5,19.32h-2.016L378.8,26.654h2.234l.514-1.443h1.937l.514,1.4h2.234L383.5,19.3Zm-1.542,4.151.494-1.581h.1l.514,1.581Z" transform="translate(-368.857 -19.241)"/><path class="a" d="M547.061,88.7a2.353,2.353,0,0,0,.534-1.147L545.717,87a5.874,5.874,0,0,1-.376.652,1.133,1.133,0,0,1-1.957-.138,2.787,2.787,0,0,1,.02-2.708,1.1,1.1,0,0,1,1.878-.138l.376.514,1.463-.455.316-.138a2.826,2.826,0,0,0-.87-1.4,3.379,3.379,0,0,0-5.456,1.562,4.764,4.764,0,0,0-.1,2.491,3.408,3.408,0,0,0,6.049,1.463Z" transform="translate(-498.907 -69.823)"/><path class="a" d="M460.542,89.959a3.282,3.282,0,0,0,1.68-2.076l-.969-.3-.949-.257c-.1.2-.158.336-.237.474a1.226,1.226,0,0,1-1.107.672,1.147,1.147,0,0,1-1.048-.751,2.708,2.708,0,0,1-.237-1.641,3.083,3.083,0,0,1,.316-.988,1.111,1.111,0,0,1,1.878-.119l.376.494,1.8-.553c-.04-.119-.04-.178-.059-.237a3.326,3.326,0,0,0-5.318-1.166c-1.443,1.285-1.443,4.408-.257,5.713A3.6,3.6,0,0,0,460.542,89.959Z" transform="translate(-430.435 -70.073)"/><path class="a" d="M549,147.279V149.1h1.937v5.5h2.115v-5.5h1.878v-1.9l-5.93.079Z" transform="translate(-505.412 -121.858)"/><path class="a" d="M461.617,21.338l.059,5.436h2.056l.04-.593V21.872l.04-.554,1.858-.079V19.5l-5.97.04.02,1.8Z" transform="translate(-433.764 -19.401)"/><path class="a" d="M676.1,84.819l.791.1v3.5l-.771.079v1.8h3.716V88.5l-.771-.1V84.858l.771-.1V83H676.1v1.819Z" transform="translate(-607.387 -70.349)"/><path class="a" d="M622.956,24.515l-.751-.1.059-3.558.692-.1V19l-3.756.04V20.8l.791.1v3.519l-.771.1.02,1.759h3.716V24.515Z" transform="translate(-561.735 -19)"/><path class="a" d="M521.065,149.519l.751-.059V147.7h-3.7v1.779l.731.059-.02,3.578-.731.059v1.858l3.736-.059v-1.8l-.771-.079v-3.578Z" transform="translate(-480.62 -122.259)"/><path class="a" d="M379.82,90.935V89.2h-3l-.059-5.5H374.7v7.255l5.12-.02Z" transform="translate(-365.567 -70.91)"/><path class="a" d="M431.979,26.635V24.876h-3.024L428.9,19.4h-2.1l.04,7.275,5.14-.04Z" transform="translate(-407.368 -19.321)"/><path class="a" d="M686.688,34.594c.1-.474.376-.85.3-1.344l-1.048-.178-.237.316a6.192,6.192,0,0,1-.87-1.206c.455-.217.593.158.85.356l.514-.217.356-.178a1.562,1.562,0,0,0-1.7-1.186c-1.166.079-1.6.83-1.147,1.9a.15.15,0,0,1-.02.079l-.376.4a1.472,1.472,0,0,0,.811,2.451,2.392,2.392,0,0,0,1.66-.217c.554.336,1.127.119,1.68.178l.059-.119Zm-2.333-.02a.573.573,0,0,1,.138-.692l.573.672C684.692,34.752,684.692,34.752,684.355,34.574Z" transform="translate(-612.855 -28.584)"/><path class="a" d="M644.859,49.241h1.581V47.6l-1.641.04.059,1.6Z" transform="translate(-582.274 -41.946)"/><path class="a" d="M604.241,49.481l-.02-1.581H602.6v1.581Z" transform="translate(-548.416 -42.187)"/></g></g></g></svg>