<svg xmlns="http://www.w3.org/2000/svg" width="31.41" height="20.94" viewBox="0 0 31.41 20.94"><defs><style>.a{fill:#cf142b;}.b{fill:#fff;}.c{fill:#e60d2e;}.d,.h{fill:#96877d;}.e{fill:#ccc;}.f{fill:#d0d0d0;}.g{fill:none;stroke:#96877d;stroke-width:0.514px;}.h{stroke:#000;stroke-width:0.203px;}</style></defs><rect class="a" width="31.41" height="20.94"/><rect class="b" width="15.689" height="20.94"/><g transform="translate(0.775 0.78)"><path class="c" d="M22.222,24.338v1.586h1.586a.569.569,0,0,0,.529.529v1.586h1.586V26.453a.569.569,0,0,0,.529-.529h1.586V24.338H26.451a.569.569,0,0,0-.529-.529V22.223H24.337v1.586a.569.569,0,0,0-.529.529H22.222Z" transform="translate(-22.222 -22.223)"/><path class="d" d="M25.254,27.367v1.375H26.84a.569.569,0,0,0,.529.529v1.586h1.375V29.27a.569.569,0,0,0,.529-.529h1.586V27.367H29.272a.569.569,0,0,0-.529-.529V25.252H27.369v1.586a.569.569,0,0,0-.529.529Z" transform="translate(-25.148 -25.146)"/><path class="e" d="M26.77,28.884v1.269h1.586a.569.569,0,0,0,.529.529v1.586h1.269V30.681a.569.569,0,0,0,.529-.529h1.586V28.884H30.682a.569.569,0,0,0-.529-.529V26.769H28.885v1.586a.569.569,0,0,0-.529.529Z" transform="translate(-26.611 -26.61)"/><g transform="translate(1.67 1.67)"><path class="d" d="M70.577,70.13a.33.33,0,1,1-.393.056A.286.286,0,0,1,70.577,70.13Z" transform="translate(-70.072 -70.074)"/><path class="f" d="M71.143,75.577l.037-.037.15.075-.075-.15.037-.037.15.3-.3-.15Z" transform="translate(-71.106 -75.241)"/><path class="f" d="M77.572,72.253l.037-.037.224.224-.037.037Z" transform="translate(-77.31 -72.141)"/></g><g transform="translate(4.146 1.67) rotate(90)"><path class="d" d="M.5.056A.286.286,0,0,1,.449.449.286.286,0,0,1,.056.5.286.286,0,0,1,.112.112.286.286,0,0,1,.5.056Z" transform="translate(0 0)"/><path class="f" d="M0,.15.037.112l.15.075L.112.037.15,0,.3.3,0,.15Z" transform="translate(0.037 0.187)"/><path class="f" d="M0,.037.037,0,.262.224.224.262Z" transform="translate(0.262 0.075)"/></g><g transform="translate(4.146 4.146) rotate(180)"><path class="d" d="M.5.056A.286.286,0,0,1,.449.449.286.286,0,0,1,.056.5.286.286,0,0,1,.112.112.286.286,0,0,1,.5.056Z" transform="translate(0 0)"/><path class="f" d="M0,.15.037.112l.15.075L.112.037.15,0,.3.3,0,.15Z" transform="translate(0.037 0.187)"/><path class="f" d="M0,.037.037,0,.262.224.224.262Z" transform="translate(0.262 0.075)"/></g><g transform="translate(1.67 4.146) rotate(-90)"><path class="d" d="M.5.056A.286.286,0,0,1,.449.449.286.286,0,0,1,.056.5.286.286,0,0,1,.112.112.286.286,0,0,1,.5.056Z" transform="translate(0 0)"/><path class="f" d="M0,.15.037.112l.15.075L.112.037.15,0,.3.3,0,.15Z" transform="translate(0.037 0.187)"/><path class="f" d="M0,.037.037,0,.262.224.224.262Z" transform="translate(0.262 0.075)"/></g><g transform="translate(1.797 1.797)"><ellipse class="g" cx="1.11" cy="1.11" rx="1.11" ry="1.11"/><ellipse class="g" cx="0.846" cy="0.846" rx="0.846" ry="0.846" transform="translate(0.264 0.264)"/></g><g transform="translate(1.828 1.839)"><circle cx="0.053" cy="0.053" r="0.053" transform="translate(0.604 1.915)"/><circle cx="0.053" cy="0.053" r="0.053" transform="translate(1.45 1.915)"/><path d="M101.138,130.175v.055h-.071c-.07,0-.07.055,0,.055h.071v.055c0,.057.062.064.066,0l0-.06h.07c.07,0,.07-.055,0-.055h-.07v-.055a.036.036,0,1,0-.07,0Z" transform="translate(-100.093 -128.208)"/><path d="M74.654,76.261l.073-.017-.008-.034a.025.025,0,0,0-.009-.016.035.035,0,0,0-.022,0v-.005l.063-.015v.005a.038.038,0,0,0-.015.007.018.018,0,0,0-.006.009.031.031,0,0,0,0,.015l.008.034.058-.014.018-.006a.012.012,0,0,0,0-.007.027.027,0,0,0,0-.013l0-.007h.005l.019.079h-.005l0-.007a.02.02,0,0,0-.011-.015.043.043,0,0,0-.022,0l-.119.028-.018.006a.013.013,0,0,0,0,.007.026.026,0,0,0,0,.013l0,.007h-.005l-.033-.138.04-.011v0a.058.058,0,0,0-.017.013.028.028,0,0,0-.006.014.064.064,0,0,0,0,.022l.01.041Zm-.047-.328a.086.086,0,0,1,.032-.062.1.1,0,0,1,.072-.023.1.1,0,0,1,.07.031.091.091,0,0,1-.007.132.1.1,0,0,1-.074.023A.1.1,0,0,1,74.628,76,.091.091,0,0,1,74.607,75.933Zm.01,0a.05.05,0,0,0,.017.042A.107.107,0,0,0,74.7,76a.113.113,0,0,0,.073-.016.049.049,0,0,0,.021-.039.055.055,0,0,0-.018-.045.1.1,0,0,0-.065-.021.115.115,0,0,0-.074.015A.052.052,0,0,0,74.617,75.936Zm.275-.347-.018.047-.106.029,0,.011v0l0,0,.052.02a.039.039,0,0,0,.022,0,.02.02,0,0,0,.011-.013l0-.007,0,0-.029.076,0,0,0-.007a.019.019,0,0,0,0-.019.044.044,0,0,0-.018-.01l-.115-.044a.039.039,0,0,0-.022,0,.021.021,0,0,0-.012.013l0,.007,0,0,.025-.065a.165.165,0,0,1,.02-.04.051.051,0,0,1,.024-.017.042.042,0,0,1,.03,0,.044.044,0,0,1,.024.022.065.065,0,0,1,0,.04l.065-.017a.1.1,0,0,0,.032-.013.058.058,0,0,0,.016-.021Zm-.139.091,0,0v0a.062.062,0,0,0,0-.043.038.038,0,0,0-.023-.024.039.039,0,0,0-.031,0,.04.04,0,0,0-.021.024.125.125,0,0,0-.005.022Zm.4-.63.037.048,0,0a.082.082,0,0,0-.035-.018.06.06,0,0,0-.046.01.062.062,0,0,0-.031.054.1.1,0,0,0,.018.057.115.115,0,0,0,.036.036.074.074,0,0,0,.041.013.066.066,0,0,0,.035-.01.077.077,0,0,0,.016-.013.081.081,0,0,0,.012-.017l-.03-.046a.051.051,0,0,0-.012-.015.015.015,0,0,0-.009,0,.039.039,0,0,0-.015.007l0,0,.062-.04,0,0,0,0a.016.016,0,0,0-.009.014.049.049,0,0,0,.009.019l.032.049a.141.141,0,0,1-.02.028.139.139,0,0,1-.027.022.1.1,0,0,1-.089.016.094.094,0,0,1-.051-.04.107.107,0,0,1-.006-.1.1.1,0,0,1,.035-.037l.017-.009.024-.007.01,0a.006.006,0,0,0,0,0,.019.019,0,0,0,0-.009Zm.31.021-.071.019,0,.032a.047.047,0,0,0,0,.017.01.01,0,0,0,.006.006.036.036,0,0,0,.018,0v.005l-.058.015v-.005a.032.032,0,0,0,.013-.009.086.086,0,0,0,.008-.031l.024-.168h0l.1.136a.072.072,0,0,0,.02.02.03.03,0,0,0,.019,0v.005l-.072.019v-.005a.028.028,0,0,0,.014-.008.01.01,0,0,0,0-.009.058.058,0,0,0-.01-.017Zm-.006-.009L75.41,75l-.012.083Zm.336,0h0l-.018.051-.147-.006V75.1h.007a.019.019,0,0,0,.018-.007.045.045,0,0,0,0-.021l0-.123a.039.039,0,0,0,0-.022.021.021,0,0,0-.016-.007h-.007v-.005l.086,0v.005a.053.053,0,0,0-.021,0,.017.017,0,0,0-.009.007.061.061,0,0,0,0,.021l0,.119a.039.039,0,0,0,0,.016.01.01,0,0,0,.005,0l.022,0h.014a.1.1,0,0,0,.031,0,.04.04,0,0,0,.017-.011.094.094,0,0,0,.016-.025Zm.253.068,0,0-.032.044-.14-.046,0,0,.007,0a.019.019,0,0,0,.019,0,.045.045,0,0,0,.009-.019l.039-.117a.039.039,0,0,0,0-.022.021.021,0,0,0-.014-.011l-.007,0,0,0,.082.027,0,0a.053.053,0,0,0-.021,0,.017.017,0,0,0-.01,0,.061.061,0,0,0-.009.02l-.038.113a.039.039,0,0,0,0,.016.01.01,0,0,0,0,.006l.02.008.013,0a.1.1,0,0,0,.03.007.04.04,0,0,0,.019-.006.094.094,0,0,0,.022-.02Zm.2.108-.06-.043-.028.017a.048.048,0,0,0-.013.011.01.01,0,0,0,0,.009.036.036,0,0,0,.012.014l0,0-.049-.035,0,0a.032.032,0,0,0,.016,0,.086.086,0,0,0,.029-.013l.145-.089,0,0-.037.167a.072.072,0,0,0,0,.029.03.03,0,0,0,.011.016l0,0-.061-.043,0,0a.028.028,0,0,0,.015.006.01.01,0,0,0,.008,0,.059.059,0,0,0,.007-.019Zm0-.011.018-.081-.071.044.053.038Zm.226.042.031.041-.045.178.088-.065q.014-.01.015-.016a.021.021,0,0,0-.005-.017l0-.005,0,0,.039.053,0,0,0-.005a.019.019,0,0,0-.016-.009.043.043,0,0,0-.018.01l-.129.1,0,0,.048-.192-.094.07q-.014.01-.015.016a.021.021,0,0,0,.005.017l0,.005,0,0-.039-.053,0,0,0,.005a.019.019,0,0,0,.016.01.043.043,0,0,0,.018-.01l.106-.079a.087.087,0,0,0,0-.018.046.046,0,0,0,0-.014.045.045,0,0,0-.006-.011l0,0Zm.24.442-.041.017,0-.005a.054.054,0,0,0,.014-.01A.028.028,0,0,0,76.7,75.7a.04.04,0,0,0,0-.019l-.009-.025-.137.048a.039.039,0,0,0-.019.011.021.021,0,0,0,0,.017l0,.006,0,0-.027-.076,0,0,0,.006a.019.019,0,0,0,.013.014.043.043,0,0,0,.02,0l.137-.048-.008-.022a.063.063,0,0,0-.008-.017.026.026,0,0,0-.014-.008.042.042,0,0,0-.021,0l0-.005.043-.013.052.146Zm-.151.337,0-.051.085-.069v-.016s0,0,0,0l-.055,0a.039.039,0,0,0-.022.005.02.02,0,0,0-.005.016v.007h-.005l0-.081h.005v.007a.019.019,0,0,0,.009.017.044.044,0,0,0,.021,0l.123-.006a.039.039,0,0,0,.022-.005.021.021,0,0,0,.005-.017v-.007h.005l0,.069a.165.165,0,0,1,0,.045.051.051,0,0,1-.015.025A.042.042,0,0,1,76.71,76a.044.044,0,0,1-.031-.01.064.064,0,0,1-.02-.034L76.607,76a.1.1,0,0,0-.024.024.058.058,0,0,0-.007.026h-.005Zm.091-.14s0,0,0,0v0a.062.062,0,0,0,.014.04.038.038,0,0,0,.031.012.039.039,0,0,0,.028-.013.04.04,0,0,0,.01-.03.123.123,0,0,0,0-.022l-.079,0Zm.052.391-.017.064h-.005v0a.029.029,0,0,0,0-.011.042.042,0,0,0-.006-.015.126.126,0,0,0-.015-.019l-.058-.063-.046-.012a.038.038,0,0,0-.022,0,.022.022,0,0,0-.01.015l0,.006h-.005l.02-.078h.005l0,.007a.019.019,0,0,0,0,.018.043.043,0,0,0,.019.008l.044.011.09-.03.02-.008a.05.05,0,0,0,.012-.011.019.019,0,0,0,0-.008h.005l-.021.079h-.005v0a.025.025,0,0,0,0-.013.01.01,0,0,0-.008-.008.044.044,0,0,0-.02,0l-.069.023.047.051a.043.043,0,0,0,.017.013H76.7l.006,0a.028.028,0,0,0,0-.011h.005Z" transform="translate(-74.607 -74.918)"/></g><g transform="translate(2.191 2.158)"><path class="h" d="M122.85,110.125a.171.171,0,0,1,.049,0s0,.013-.005.017a.128.128,0,0,0,.041,0l-.019.013a.057.057,0,0,1,.026.016.083.083,0,0,1-.038,0,.057.057,0,0,1,.006.027.1.1,0,0,1-.059-.039" transform="translate(-121.529 -109.214)"/><path class="h" d="M118.347,108.872c-.011.026-.088-.022-.088-.022a.137.137,0,0,0,.085.06" transform="translate(-117.099 -107.985)"/><path class="h" d="M90.016,117.627h.9l.07-.055-.116-.063-.179-.061-.072-.039-.132.007-.111.059-.152.018-.036.041-.113.009-.177,0,.3.046-.243-.013.063.054Z" transform="translate(-89.731 -116.246)"/><path class="h" d="M101.729,106.685c-.113-.061-.146.089-.195.125.066.011.115-.051.172-.08.043.116.11.039.11.039s.07.111.164.061a.05.05,0,0,0,.054,0s.034.006.041-.009c.018.006.038-.016.038-.016s.039,0,.046-.02c.058.01.134-.118.134-.118l.023-.045.034-.007s0-.022-.016-.021c0-.013-.012-.021-.029-.018,0-.008-.009-.014-.009-.014-.032.008-.034.089-.034.089s-.056.043-.077.054c0-.046-.079-.11-.063-.139s.067.046.111.032a.126.126,0,0,0,.068-.116.791.791,0,0,0-.043-.08l-.029,0-.025-.061s-.053.034-.052.064.055.055.055.055a.085.085,0,0,1-.061.011c0,.03.036.025.05.025a.068.068,0,0,0,.029.034s.013.034-.021.03-.076-.083-.125-.046.023.111.023.111a.184.184,0,0,0-.073.086c-.111-.094-.177-.05-.3-.025Z" transform="translate(-100.958 -105.563)"/><path class="h" d="M101.822,108.656c.046.044.014.117.032.131s.046-.007.046-.007a.326.326,0,0,0,.136-.014c.038.021.023-.01.046-.009.021.053.089.043.089.043a.515.515,0,0,0-.1-.082.323.323,0,0,1-.132.018c-.017,0-.006-.024-.014-.036.032-.031.007-.109-.011-.138C101.843,108.514,101.758,108.6,101.822,108.656Z" transform="translate(-101.213 -107.694)"/><path class="h" d="M86.021,106.577c-.058.016-.16-.076-.207-.04s-.025.121.006.164-.045.057-.066.082.006.051.006.051l.021.014,0,.032.011.038s.01.009.014,0c.01.01,0,.038.025.042a.149.149,0,0,1,.006-.068s.042,0,.053-.015-.01-.058-.01-.058h.013a.071.071,0,0,1-.019-.039s.059-.019.058-.063-.1-.092-.061-.115.106.066.163.024.02,0,.02,0S86.079,106.562,86.021,106.577Z" transform="translate(-85.721 -105.745)"/><path class="h" d="M85.606,87.8c-.078-.033-.238-.035-.327-.079a.062.062,0,0,0-.058.046c-.041,0-.069.062-.063.075-.074-.03-.109.088-.085.112-.063,0-.056.084-.062.106-.02.049,0,.066.045.048.006.021,0,.033-.021.038.11.126.172-.078.269-.077a.345.345,0,0,0,.168-.095l.047.006Z" transform="translate(-85.004 -87.589)"/><ellipse class="h" cx="0.115" cy="0.115" rx="0.115" ry="0.115" transform="translate(0.587)"/><path class="h" d="M93.742,87.793a.263.263,0,0,1-.2-.184c.067-.261.41-.125.44-.322a.592.592,0,0,1,.088-.367.159.159,0,0,1,.077-.054.068.068,0,0,1,0,.046,1.225,1.225,0,0,1,.188.029.08.08,0,0,1,.011.063c0,.019-.025.014-.025.014a.068.068,0,0,1-.068.02.214.214,0,0,1-.088.027s.124.131.1.172a.267.267,0,0,1,.064.07.4.4,0,0,0,.113-.086c.049,0,.13.051.17.057l.1.08s-.059.038-.084-.013c-.031,0-.1-.071-.19-.048a.206.206,0,0,1-.093.139.246.246,0,0,1,.131.016c.048.04.118.095.118.095l.063.107s-.057.01-.079-.064c-.021.06-.022-.037-.107-.082a.065.065,0,0,1-.061-.013.557.557,0,0,1-.22.043,1.74,1.74,0,0,0-.168.1c-.062.028-.08.014-.08.014l-.05,0c-.007.03,0,.076-.03.084.017.019-.013.1-.043.113.014.051.056.067.1.093a.064.064,0,0,1,.064.005.326.326,0,0,1,.052.089.25.25,0,0,1-.07,0c-.017-.007-.018-.025-.038-.02-.121-.108-.185-.065-.2-.089s.029-.091.016-.132Z" transform="translate(-93.242 -86.769)"/><path class="h" d="M90.967,99.6c.006-.008.051.009.051.009l.081.051.164.106.058.085-.1-.034-.145-.125-.078-.051S90.96,99.6,90.967,99.6Z" transform="translate(-90.758 -99.053)"/><path class="h" d="M113.41,107.346c-.057-.014-.2.156-.2.156l.105.114A.437.437,0,0,1,113.41,107.346Z" transform="translate(-112.229 -106.534)"/><path class="h" d="M91.937,86.393a.121.121,0,0,0,.007.152c0,.049.045.146.077.156a.85.85,0,0,0,.232.034.244.244,0,0,0,.125.209.039.039,0,0,0,.007.028c.007.01.042.011.043.006a.115.115,0,0,0,.094.021c.005-.009-.108-.088-.134-.112a.693.693,0,0,1-.072-.2.213.213,0,0,0-.151-.065l0-.13.005-.147-.052-.027a.062.062,0,0,0,.016-.011c.013.005.036-.02.039-.027s.023,0,.025,0,0-.031.008-.044c.039-.034-.006-.107-.066-.109s-.072.071-.071.076c.006.023,0,.034,0,.039a.159.159,0,0,1-.025.018.1.1,0,0,0-.073,0c-.04.016-.085.037-.088.063a.082.082,0,0,0-.054.046c-.016,0-.037.01-.072.066-.062.027-.065.159-.065.159a.113.113,0,0,0-.017.037c0,.013.006.025.014.022s.012.016.017.013a.02.02,0,0,0,.021.012c0,.006.024,0,.026,0s0-.035,0-.037.022.013.028.009,0-.017,0-.022-.02-.009-.024-.03a.1.1,0,0,1,.011-.05s.067-.053.075-.1c.051,0,.077-.039.092-.056Z" transform="translate(-91.448 -86.055)"/><path class="h" d="M95.679,86.2c.015-.037.071-.034.071-.034s.02-.052.094-.021c.028-.022.1.009.1.009a.081.081,0,0,1,.064-.033.078.078,0,0,1,.074.08c-.037.009-.1-.03-.149-.019a.323.323,0,0,0-.091.056C95.8,86.241,95.751,86.195,95.679,86.2Z" transform="translate(-95.307 -86.047)"/><path class="h" d="M99.664,89.688c.017-.01.058-.028.086-.006a.469.469,0,0,0,.074.061l.051.021.023.014-.015.233c-.047-.048-.091-.057-.125-.114-.018-.024,0-.083-.036-.122s-.065-.065-.058-.089Z" transform="translate(-99.151 -89.476)"/><path class="h" d="M103.2,92.029s.027-.005.034,0,.018.006.021.014.017.008.017.016.013.02.013.02l-.009.013a.04.04,0,0,1-.011-.02c-.006,0-.021-.006-.024-.016a.021.021,0,0,1-.02-.016C103.211,92.043,103.2,92.029,103.2,92.029Z" transform="translate(-102.565 -91.75)"/><path class="h" d="M105.6,87.47c-.015-.017-.042,0-.042,0l-.072.123-.031.026,0,.1.026.09-.009.07a.175.175,0,0,0,.04-.053.281.281,0,0,0-.013-.077.127.127,0,0,1,0-.1c.026-.068.085-.124.1-.167Z" transform="translate(-104.739 -87.344)"/><path class="h" d="M105.2,90.868a.63.63,0,0,1-.294.216c-.051.012-.032-.118-.032-.118l-.013,0s-.028.127.039.129a.621.621,0,0,0,.322-.23H105.2Z" transform="translate(-104.16 -90.631)"/><path class="h" d="M106.574,110.65a.037.037,0,0,1-.039,0,.053.053,0,0,0-.043-.029s-.02-.058-.052-.041c0-.03-.039-.014-.039-.014s0-.043-.041-.038c.013-.05-.055-.046-.055-.046s0-.056-.1-.045c.219-.1.392.154.392.154" transform="translate(-105.461 -109.495)"/><path class="h" d="M118.99,117.77s.051.057.077.057.029-.055.029-.055.008.024.021.018a.021.021,0,0,0,.016.021s-.046.106-.175.005" transform="translate(-117.773 -116.594)"/><path class="h" d="M107.576,118.044l-.018.073s-.023.021-.016.025.043-.007.043-.007a.18.18,0,0,0,.073-.023.048.048,0,0,0,.038.029.035.035,0,0,0,0-.018.049.049,0,0,0,.023,0s.007-.021-.009-.029c0-.015.009-.029-.018-.027-.02.021-.07.046-.082.038s.049-.036.032-.072" transform="translate(-106.755 -116.847)"/></g></g></svg>