<?xml version="1.0" encoding="utf-8"?>
<!-- Generator: Adobe Illustrator 24.0.2, SVG Export Plug-In . SVG Version: 6.00 Build 0)  -->
<svg version="1.1" id="Layer_1" xmlns="http://www.w3.org/2000/svg" xmlns:xlink="http://www.w3.org/1999/xlink" x="0px" y="0px"
	 viewBox="0 0 129.15 37.56" enable-background="new 0 0 129.15 37.56" xml:space="preserve">
<g transform="translate(-34.277 -12.72)">
	<path fill="#EBFFFB" d="M108.33,21.63l-3.76,19.06h-5.86l1.69-8.69l-5.37,6.97h-2.83l-2.94-6.86l-1.72,8.58h-5.85l3.81-19.06h5.23
		l4.14,10.13l7.98-10.13H108.33z"/>
	<path fill="#EBFFFB" d="M126.92,32.37c0.46,0.66,0.69,1.45,0.67,2.25c0.08,1.86-0.88,3.62-2.49,4.55
		c-1.96,1.09-4.17,1.62-6.41,1.52h-11l3.81-19.06h10.1c1.78-0.11,3.55,0.3,5.09,1.18c1.13,0.74,1.79,2.01,1.74,3.36
		c0.02,1.01-0.3,2-0.9,2.82c-0.65,0.85-1.52,1.5-2.51,1.89C125.78,31.2,126.43,31.72,126.92,32.37z M120.62,35.75
		c0.4-0.31,0.63-0.79,0.6-1.29c0.02-0.36-0.15-0.71-0.45-0.93c-0.33-0.23-0.73-0.34-1.13-0.33h-4.14l-0.6,3h4.14
		C119.6,36.23,120.15,36.07,120.62,35.75L120.62,35.75z M116.92,26.12l-0.57,2.83h3.27c1.42,0,2.13-0.55,2.13-1.66
		c0.02-0.35-0.15-0.68-0.44-0.87c-0.38-0.22-0.81-0.33-1.25-0.3L116.92,26.12z"/>
	<path fill="#EBFFFB" d="M163.42,21.63l-9.92,19.06h-6.89l-1.09-10.05L140.3,40.7h-6.89l-2.28-19.06h6.35l1.23,10.86l5.67-10.86
		h5.91l1.09,11.03l5.75-11.03H163.42z"/>
	<g transform="translate(34.277 12.72)">
		<g transform="translate(-23.827 -2.671)">
			<path fill="none" d="M42.83,25.04l-2.58,13.24c-0.13,0.68,0.31,1.34,0.99,1.47c0.28,0.05,0.57,0.01,0.82-0.12l12.75-6.62
				c0.62-0.32,0.86-1.08,0.54-1.69c-0.1-0.19-0.25-0.36-0.43-0.47l-10.17-6.63c-0.58-0.38-1.36-0.21-1.74,0.37
				C42.92,24.73,42.86,24.89,42.83,25.04z"/>
			<path fill="#7EFAFF" d="M44.93,27.33l-1.73,8.9l8.57-4.45L44.93,27.33 M44.06,24.03c0.23,0,0.47,0.06,0.68,0.2l10.17,6.63
				c0.81,0.53,0.75,1.72-0.11,2.17l-12.75,6.62c-0.19,0.1-0.39,0.14-0.58,0.14c-0.74,0-1.39-0.68-1.23-1.5l2.57-13.24
				C42.95,24.42,43.49,24.03,44.06,24.03z"/>
		</g>
		<g transform="translate(-21.876 -12.72)">
			<path fill="none" d="M44.26,28.36l12.78-6.63c0.62-0.32,0.86-1.08,0.53-1.7c-0.1-0.19-0.25-0.35-0.43-0.47l-10.2-6.63
				c-0.58-0.38-1.36-0.21-1.74,0.37c-0.09,0.14-0.15,0.29-0.18,0.45L42.45,27c-0.13,0.68,0.31,1.34,0.99,1.47
				C43.72,28.53,44.01,28.49,44.26,28.36z"/>
			<path fill="#13ABC4" d="M45.39,24.95l8.6-4.46l-6.86-4.46L45.39,24.95 M43.68,28.5c-0.74,0-1.39-0.68-1.23-1.5l2.58-13.27
				c0.12-0.62,0.66-1.02,1.23-1.02c0.23,0,0.47,0.06,0.68,0.2l10.2,6.63c0.81,0.53,0.75,1.72-0.11,2.17l-12.78,6.63
				C44.07,28.46,43.87,28.5,43.68,28.5z"/>
		</g>
		<g transform="translate(-31.544 -7.698)">
			<path fill="none" d="M34.15,19.39l-2.58,13.26c-0.13,0.68,0.31,1.34,0.99,1.47c0.28,0.05,0.57,0.01,0.82-0.12l12.74-6.64
				c0.62-0.32,0.85-1.08,0.53-1.7c-0.1-0.19-0.25-0.35-0.43-0.47l-10.16-6.62c-0.58-0.38-1.36-0.22-1.74,0.37
				C34.24,19.08,34.18,19.23,34.15,19.39z"/>
			<path fill="#EBFFFB" d="M36.25,21.68l-1.73,8.91l8.56-4.46L36.25,21.68 M35.38,18.37c0.23,0,0.47,0.06,0.68,0.21l10.16,6.62
				c0.8,0.53,0.75,1.72-0.11,2.17L33.38,34c-0.19,0.1-0.39,0.14-0.58,0.14c-0.74,0-1.39-0.68-1.23-1.5l2.58-13.26
				C34.27,18.76,34.81,18.37,35.38,18.37z"/>
		</g>
		<g transform="translate(-28.934 -12.508)">
			<path fill="none" d="M35.05,21.9l10.19,6.64c0.58,0.38,1.36,0.21,1.74-0.37c0.09-0.14,0.15-0.29,0.18-0.44l2.59-13.27
				c0.13-0.68-0.31-1.34-0.99-1.47c-0.28-0.05-0.57-0.01-0.82,0.12l-12.78,6.64c-0.62,0.32-0.85,1.08-0.53,1.69
				C34.72,21.62,34.87,21.78,35.05,21.9z"/>
			<path fill="#7EFAFF" d="M45.06,25.44l1.74-8.93l-8.6,4.46L45.06,25.44 M45.92,28.75c-0.23,0-0.47-0.06-0.68-0.2L35.05,21.9
				c-0.8-0.53-0.75-1.72,0.11-2.17l12.78-6.63c0.19-0.1,0.39-0.14,0.58-0.14c0.74,0,1.39,0.68,1.23,1.5l-2.59,13.27
				C47.03,28.35,46.49,28.75,45.92,28.75z"/>
		</g>
		<g transform="translate(-30.882 -2.463)">
			<path fill="none" d="M32.86,33.19l10.2,6.63c0.58,0.38,1.36,0.21,1.74-0.37c0.09-0.14,0.15-0.29,0.18-0.45l2.57-13.25
				c0.13-0.68-0.31-1.34-0.99-1.47c-0.28-0.05-0.57-0.01-0.82,0.12l-12.77,6.62c-0.62,0.32-0.86,1.07-0.54,1.69
				C32.53,32.9,32.68,33.07,32.86,33.19z"/>
			<path fill="#13ABC4" d="M42.87,36.72l1.73-8.91l-8.59,4.45L42.87,36.72 M43.74,40.02c-0.23,0-0.47-0.06-0.68-0.2l-10.2-6.63
				c-0.81-0.52-0.75-1.72,0.11-2.17l12.77-6.62c0.19-0.1,0.39-0.14,0.58-0.14c0.74,0,1.39,0.68,1.23,1.5L44.97,39
				C44.85,39.63,44.31,40.02,43.74,40.02z"/>
		</g>
		<g transform="translate(-21.218 -7.483)">
			<path fill="none" d="M43.73,27.55l10.18,6.64c0.58,0.38,1.36,0.21,1.74-0.37c0.09-0.14,0.15-0.29,0.18-0.44l2.6-13.26
				c0.13-0.68-0.31-1.34-0.99-1.47c-0.28-0.05-0.57-0.01-0.82,0.12l-12.78,6.63c-0.62,0.32-0.86,1.08-0.54,1.69
				C43.4,27.27,43.55,27.44,43.73,27.55z"/>
			<path fill="#EBFFFB" d="M53.73,31.09l1.75-8.92l-8.59,4.46L53.73,31.09 M54.59,34.39c-0.23,0-0.47-0.06-0.68-0.2l-10.18-6.64
				c-0.81-0.53-0.75-1.72,0.11-2.17l12.77-6.63c0.19-0.1,0.39-0.14,0.58-0.14c0.74,0,1.39,0.68,1.23,1.5l-2.6,13.27
				C55.71,34,55.17,34.39,54.59,34.39z"/>
		</g>
	</g>
</g>
</svg>
