<svg id="Layer_1" data-name="Layer 1" xmlns="http://www.w3.org/2000/svg" width="250px" viewBox="0 0 300 100"><path d="M19.56,42.24c2.09.16,4.77-.74,6,1.45,5.72,7,11.11,14.15,17,21.1V42.33c2.51,1.83,5.45,3.35,5.74,6.35-.1,8.83.23,17.65-.13,26.47-2.19-.11-4.84.68-6.11-1.59C36.3,66.31,31,59.48,25.18,52.18v23C23,74,19.7,72.85,19.35,70.32,19.51,61,19,51.53,19.56,42.24Z"/><path d="M253.4,69.15c6.28-.34,12.74.78,18.86-.58,3-1.39,2.95-5.62-.86-6-3.73-.64-7.49-1.13-11.21-1.86-7.68-1.08-10.11-11.53-4.35-16.38,4.36-4.12,11.09-1.67,16.52-2.42,3.26,0,5.43,2.86,6.83,5.62,0,0-12-.15-17.76.69-3.08,1-3.24,5.81.38,6.31,4.22.7,8.45,1.52,12.68,2.09,9.69,1.49,8.19,16.94-.79,18.19-4.78.1-9.57.08-14.36.14C256.34,74.76,254,71.74,253.4,69.15Z"/><path d="M133.13,74.6c-6.59-4.27-4.81-8.65-5.4-15.28-2.08,3.65-3.91,7.44-5.83,11.17a3.16,3.16,0,0,1-5.89,0c-2.14-3.69-3.54-7.92-6.24-11.23V74.83c-2.85-2.3-5.36-4.3-5.31-8.12.07-5.59,0-16.61,0-16.61s5.63-1.11,7,1.52c2.58,4.77,4.86,9.33,7.43,14.2,2.72-4.6,5-9.41,7.47-14.15C127.56,49,133,50.06,133,50.06Z"/><path d="M188.31,70.23c4.55-.08,8.87.16,13.22-.08,2.21-.41,4.09-3.41,1.18-4.36-5.43-1.39-14.49-.5-14.94-8.05.36-9,7.92-7.54,14.44-7.71,3.08-.23,4.28,2.15,5.93,4.39-4.51.54-8.83-.09-13.3.45A2.38,2.38,0,0,0,193,57.33c0,3.21,8.33,2.59,10.84,3.53,8.53.86,7,14-1.35,14C197.44,74.18,190.11,77,188.31,70.23Z"/><path d="M67.6,74.69V50.18c3.89-.27,7.71-.06,11.59-.12a7,7,0,0,1,6.17,4.55H73.16v5.55h7.72v4.4H73.16a41.59,41.59,0,0,0,0,5.7c5.73.09,8.69-1,12.36,4l-.16.38Z"/><path d="M152.27,50.06c4,0,7.42.07,11.25,0,3.29-.21,5,1.87,6.91,4.52H158v5.56h7.67v4.46h-7.68v5.67c5.43.08,9-1,12.3,4.2-1.43.43-14.89.57-18,.19C152.27,66.57,152.27,58.46,152.27,50.06Z"/><path d="M229,50.48c2.33,1.46,5,3.33,5.24,6-.1,5.94-.13,17.81-.13,17.81H229Z"/><path d="M149,29.06c-.11-.63-.2-1.1-.3-1.66l-1.38-.11c-.14,1.05-.21,1.38-1.29,1.95V24.77c1.46-.46.77,1.05,1.37,1.43h1.27l.35-1.54c.29,0,.68,0,.71.11C150,26,150.68,28.82,149,29.06Z"/><path d="M152.28,24.75h3.41c-.51,1.17-1.63.32-2.25,1.12.84.39,1.06.5,2.06,1-1,.46-1.37.19-2,1l2.41.55c-1.27,1.08-2.41.45-3.62.65Z"/><path d="M141.43,29V25.83L140,25a8.33,8.33,0,0,1,3.75-.31l.13.37-1.07.68c-.17,1-.35,2.17-.57,3.29A5.92,5.92,0,0,1,141.43,29Z"/></svg>