<svg xmlns="http://www.w3.org/2000/svg" xmlns:xlink="http://www.w3.org/1999/xlink" width="187.12" height="62.373" viewBox="0 0 187.12 62.373"><defs><style>.a{fill:none;}.b{clip-path:url(#a);}.c{opacity:0;}.d{fill:#fff;}.e{fill:#050505;}.f{fill:#8247e5;}</style><clipPath id="a"><rect class="a" width="187.12" height="62.373"/></clipPath></defs><g transform="translate(93.56 31.187)"><g class="b" transform="translate(-93.56 -31.187)"><g class="c"><g class="b"><rect class="d" width="187.12" height="62.373"/></g></g><path class="e" d="M113.11,38.6a6.175,6.175,0,0,1,2.433,2.682,8.732,8.732,0,0,1,.936,4.117,7.672,7.672,0,0,1-1,4.054,5.8,5.8,0,0,1-2.744,2.557,8.67,8.67,0,0,1-4.054.936,6.362,6.362,0,0,1-2.433-.5,4.927,4.927,0,0,1-2.058-1.247V59.3H99.7V37.972h3.93L104,39.718a8.607,8.607,0,0,1,5.551-2.121,6.237,6.237,0,0,1,3.618,1m-2.495,9.668a3.618,3.618,0,0,0,1.185-2.807,4.117,4.117,0,0,0-1.123-2.869,3.431,3.431,0,0,0-2.682-1.123,4.241,4.241,0,0,0-2.245.561,3.618,3.618,0,0,0-1.5,1.559v3.493a3.306,3.306,0,0,0,1.247,1.622,3.992,3.992,0,0,0,2.183.624,4.117,4.117,0,0,0,2.869-1.123" transform="translate(-37.514 -14.145)"/><path class="e" d="M130.188,41.378a7.3,7.3,0,0,1,2.869-2.682,9.294,9.294,0,0,1,4.241-1,8.42,8.42,0,0,1,4.241,1,7.36,7.36,0,0,1,3.8,6.674,7.3,7.3,0,0,1-1,3.93,6.736,6.736,0,0,1-2.807,2.744,9.107,9.107,0,0,1-4.241,1,9.294,9.294,0,0,1-4.241-.936,6.8,6.8,0,0,1-2.869-2.682,8.483,8.483,0,0,1,0-8.046m4.616,6.8A2.994,2.994,0,0,0,137.3,49.3a3.243,3.243,0,0,0,2.495-1.123,4.241,4.241,0,0,0,.936-2.807,4.054,4.054,0,0,0-.936-2.807,3.243,3.243,0,0,0-2.557-1.185,3.368,3.368,0,0,0-2.495,1.123,4.429,4.429,0,0,0-.936,2.869,3.992,3.992,0,0,0,1,2.807" transform="translate(-48.604 -14.183)"/><rect class="e" width="4.553" height="25.66" transform="translate(99.548 12.787)"/><path class="e" d="M186.516,38.9l-9.231,21.02h-4.366l3.431-7.547L169.8,38.9h5.177l3.742,8.42,3.742-8.42h4.054" transform="translate(-63.89 -14.637)"/><path class="e" d="M213.876,38.486V52.645a6.237,6.237,0,0,1-1.185,3.68,7.859,7.859,0,0,1-3.119,2.557,9.855,9.855,0,0,1-4.3.936,11.539,11.539,0,0,1-3.056-.374,13.908,13.908,0,0,1-2.121-.936,14.346,14.346,0,0,1-1.934-1.5l2.682-3.119a7.61,7.61,0,0,0,1.934,1.435,5.551,5.551,0,0,0,2.433.561,4.865,4.865,0,0,0,2.869-.873,2.807,2.807,0,0,0,1.185-2.433v-2A5.115,5.115,0,0,1,207.2,52.4a7.235,7.235,0,0,1-3.306.686,6.612,6.612,0,0,1-3.618-1,7.422,7.422,0,0,1-2.682-2.744,7.984,7.984,0,0,1-1-3.8,7.485,7.485,0,0,1,1-3.93,7.859,7.859,0,0,1,2.744-2.807,6.362,6.362,0,0,1,3.493-1,9.73,9.73,0,0,1,3.119.5,4.678,4.678,0,0,1,2.121,1.31l.5-1.123Zm-4.616,8.732V43.663a3.368,3.368,0,0,0-1.5-1.622,4.865,4.865,0,0,0-2.433-.624,4.117,4.117,0,0,0-2.807,1.123,3.618,3.618,0,0,0-1.185,2.807,3.992,3.992,0,0,0,1.185,2.869,3.8,3.8,0,0,0,2.807,1.185,4.433,4.433,0,0,0,3.93-2.183" transform="translate(-73.973 -14.223)"/><path class="e" d="M229.794,41.34a7.485,7.485,0,0,1,2.869-2.744,9.294,9.294,0,0,1,4.241-1,8.42,8.42,0,0,1,4.241,1,7.235,7.235,0,0,1,2.807,2.744,8.046,8.046,0,0,1,1,3.93,7.3,7.3,0,0,1-1,3.93,6.362,6.362,0,0,1-2.807,2.744,9.106,9.106,0,0,1-4.241,1,9.294,9.294,0,0,1-4.241-.936,6.8,6.8,0,0,1-2.869-2.682,7.734,7.734,0,0,1-1-4.117,7.36,7.36,0,0,1,1-3.8m4.553,6.8a2.994,2.994,0,0,0,2.495,1.123,3.243,3.243,0,0,0,2.495-1.123,4.242,4.242,0,0,0,.936-2.807,4.054,4.054,0,0,0-.936-2.807,3.244,3.244,0,0,0-2.495-1.123,3.368,3.368,0,0,0-2.495,1.123,3.867,3.867,0,0,0-1.06,2.744,4.928,4.928,0,0,0,1,2.807" transform="translate(-86.086 -14.145)"/><path class="e" d="M272.223,38.883a3.992,3.992,0,0,1,1.435,3.056V52.605h-4.616V43.623q-.125-2.121-2.121-2.121a2.807,2.807,0,0,0-2.495,1.5,7.048,7.048,0,0,0-.936,3.742v5.863H259V38.446h4.117l.312,2.245a5.863,5.863,0,0,1,2.183-2.183,6.362,6.362,0,0,1,3.306-.811,4.865,4.865,0,0,1,3.368,1.185" transform="translate(-97.453 -14.183)"/><path class="f" d="M49.373,31.7a2.682,2.682,0,0,0-2.682,0l-6.113,3.618-4.054,2.308-6.113,3.618a2.682,2.682,0,0,1-2.682,0l-4.865-2.807a2.682,2.682,0,0,1-1.31-2.245V30.576a2.557,2.557,0,0,1,1.31-2.245l4.74-2.744a2.682,2.682,0,0,1,2.682,0l4.74,2.744a2.682,2.682,0,0,1,1.31,2.245v3.618l4.117-2.433V28.206a2.557,2.557,0,0,0-1.31-2.245l-8.67-5.177a2.682,2.682,0,0,0-2.682,0L18.81,25.9a2.557,2.557,0,0,0-1.31,2.245V38.56a2.557,2.557,0,0,0,1.31,2.245l8.982,5.177a2.682,2.682,0,0,0,2.682,0l6.05-3.493,4.117-2.433,6.113-3.493a2.682,2.682,0,0,1,2.682,0l4.74,2.744a2.682,2.682,0,0,1,1.31,2.245V47.1a2.557,2.557,0,0,1-1.31,2.245l-4.74,2.807a2.682,2.682,0,0,1-2.682,0l-4.74-2.744a2.682,2.682,0,0,1-1.31-2.245V43.55l-4.179,2.433V49.6a2.557,2.557,0,0,0,1.31,2.245l8.982,5.115a2.682,2.682,0,0,0,2.682,0l8.982-5.177a2.682,2.682,0,0,0,1.31-2.245V39.183a2.557,2.557,0,0,0-1.31-2.245Z" transform="translate(-6.585 -7.685)"/></g></g></svg>