<svg xmlns="http://www.w3.org/2000/svg" width="80" height="80" viewBox="0 0 80 80"><g transform="translate(-600 -1609)"><rect width="80" height="80" transform="translate(600 1609)" fill="#f9f9f9" opacity="0"/><g transform="translate(600 1609.044)"><path d="M-5,101.542a9.555,9.555,0,0,1,3.118-5.07Q17,77.649,35.827,58.779c2.058-2.059,4.467-2.858,7.247-1.872a7.668,7.668,0,0,1,2.714,1.75q8.751,8.636,17.405,17.37a6.653,6.653,0,0,1-.019,9.862Q43.81,105.274,24.432,124.646A8.122,8.122,0,0,1,20.3,126.84H18.581a9.538,9.538,0,0,1-4.994-3.1q-7.673-7.757-15.43-15.432A9.544,9.544,0,0,1-5,103.259Zm24.386,22.242a4.628,4.628,0,0,0,2.823-1.448q19.318-19.322,38.637-38.644a3.509,3.509,0,0,0,.012-5.478q-8.6-8.622-17.223-17.223a3.507,3.507,0,0,0-5.479-.008Q18.828,80.294-.478,99.63a4.634,4.634,0,0,0-1.075,1.594,3.526,3.526,0,0,0,1.1,3.942Q8.125,113.7,16.67,122.272a2.812,2.812,0,0,0,.639.567C17.988,123.182,18.692,123.473,19.386,123.784Z" transform="translate(5 -46.884)" fill="#2ad46f"/><path d="M366.57-5a46.756,46.756,0,0,1,4.754,1.4A24.914,24.914,0,0,1,383.612,7.322a19.4,19.4,0,0,1,2.517,7.07,1.218,1.218,0,0,0,.118.284v1.405c-.641,1.351-1.9,1.707-2.742.731a2.132,2.132,0,0,1-.454-1.124c-.449-4.595-2.667-8.3-5.82-11.507a19.605,19.605,0,0,0-10.437-5.833c-.356-.068-.722-.079-1.083-.119-1.055-.118-1.644-.561-1.78-1.337-.148-.846.214-1.4,1.233-1.894Z" transform="translate(-306.291 5)" fill="#2ad46f"/><path d="M365.994,56.675a10.576,10.576,0,0,1,5.265,2.149,12.766,12.766,0,0,1,5.205,7.615,5.139,5.139,0,0,1,.064,1.77,1.355,1.355,0,0,1-1.368,1.166,1.434,1.434,0,0,1-1.539-.956,5.124,5.124,0,0,1-.217-1.06,9.9,9.9,0,0,0-7.855-7.513,1.657,1.657,0,0,1-1.655-1.705C363.944,57.209,364.709,56.624,365.994,56.675Z" transform="translate(-306.285 -47.041)" fill="#2ad46f"/><path d="M225.473,151.134a12.788,12.788,0,1,1-12.747-12.811A12.8,12.8,0,0,1,225.473,151.134Zm-12.839-9.594a9.589,9.589,0,1,0,9.621,9.6A9.6,9.6,0,0,0,212.634,141.54Z" transform="translate(-167.899 -115.941)" fill="#2ad46f"/><path d="M80.2,322.829a3.185,3.185,0,1,1-3.211,3.131A3.2,3.2,0,0,1,80.2,322.829Z" transform="translate(-64.186 -271.634)" fill="#2ad46f"/><path d="M144.758,387.281a3.164,3.164,0,0,1-3.119,3.223,3.193,3.193,0,1,1,3.119-3.223Z" transform="translate(-115.998 -323.352)" fill="#2ad46f"/><path d="M131.261,277.93a3.18,3.18,0,1,1,3.243-3.1A3.192,3.192,0,0,1,131.261,277.93Z" transform="translate(-107.33 -228.381)" fill="#2ad46f"/><path d="M189.7,336.178a3.18,3.18,0,1,1,6.361.036,3.18,3.18,0,0,1-6.361-.036Z" transform="translate(-159.293 -280.208)" fill="#2ad46f"/><path d="M264.438,199.929a3.163,3.163,0,0,1,3.174,3.162,3.21,3.21,0,0,1-3.22,3.216,3.247,3.247,0,0,1-3.157-3.222A3.207,3.207,0,0,1,264.438,199.929Z" transform="translate(-219.66 -167.927)" fill="#2ad46f"/></g></g></svg>