<svg id="Sign_in" data-name="Sign in" xmlns="http://www.w3.org/2000/svg" xmlns:xlink="http://www.w3.org/1999/xlink" width="58" height="58" viewBox="0 0 58 58">
  <defs>
    <clipPath id="clip-path">
      <ellipse id="Ellipse_2261" data-name="Ellipse 2261" cx="19" cy="19" rx="19" ry="19" transform="translate(1697.627 23.627)" fill="#c1c1c1"/>
    </clipPath>
  </defs>
  <g id="avatar" transform="translate(-1687.627 -13.627)">
    <g id="Rectangle_10006" data-name="Rectangle 10006" transform="translate(1687.627 13.627)" fill="#fff" stroke="#707070" stroke-width="1" opacity="0">
      <rect width="58" height="58" stroke="none"/>
      <rect x="0.5" y="0.5" width="57" height="57" fill="none"/>
    </g>
    <g id="Ellipse_2260" data-name="Ellipse 2260" transform="translate(1697.627 23.627)" fill="#171a1f" stroke="#c1c1c1" stroke-width="1">
      <ellipse cx="19" cy="19" rx="19" ry="19" stroke="none"/>
      <ellipse cx="19" cy="19" rx="18.5" ry="18.5" fill="none"/>
    </g>
    <g id="Mask_Group_81" data-name="Mask Group 81" clip-path="url(#clip-path)">
      <g id="Rectangle_1201" data-name="Rectangle 1201" transform="translate(1707.627 43.627)" fill="#181b1f" stroke="#c1c1c1" stroke-width="1">
        <path d="M8,0h3a8,8,0,0,1,8,8V19a0,0,0,0,1,0,0H0a0,0,0,0,1,0,0V8A8,8,0,0,1,8,0Z" stroke="none"/>
        <path d="M8,.5h3A7.5,7.5,0,0,1,18.5,8V18a.5.5,0,0,1-.5.5H1A.5.5,0,0,1,.5,18V8A7.5,7.5,0,0,1,8,.5Z" fill="none"/>
      </g>
      <g id="Ellipse_2259" data-name="Ellipse 2259" transform="translate(1710.627 31.627)" fill="#181b1f" stroke="#c1c1c1" stroke-width="1">
        <ellipse cx="6.5" cy="7" rx="6.5" ry="7" stroke="none"/>
        <ellipse cx="6.5" cy="7" rx="6" ry="6.5" fill="none"/>
      </g>
    </g>
    <g id="Ellipse_2262" data-name="Ellipse 2262" transform="translate(1697.627 23.627)" fill="none" stroke="#c1c1c1" stroke-width="1">
      <ellipse cx="19" cy="19" rx="19" ry="19" stroke="none"/>
      <ellipse cx="19" cy="19" rx="18.5" ry="18.5" fill="none"/>
    </g>
  </g>
</svg>
