<svg xmlns="http://www.w3.org/2000/svg" xmlns:xlink="http://www.w3.org/1999/xlink" width="187.119" height="62.373" viewBox="0 0 187.119 62.373"><defs><style>.a{fill:none;}.b{clip-path:url(#a);}.c{opacity:0;}.d{fill:#fff;}.e{fill:#0a0a0a;}.e,.g{fill-rule:evenodd;}.f{clip-path:url(#c);}.g{fill:#2ea836;}</style><clipPath id="a"><rect class="a" width="187.119" height="62.373"/></clipPath><clipPath id="c"><rect class="a" width="44.347" height="44.484"/></clipPath></defs><g transform="translate(93.559 31.186)"><g class="b" transform="translate(-93.559 -31.186)"><g class="c"><g class="b"><rect class="d" width="187.119" height="62.373"/></g></g><path class="e" d="M120.621,41.814a7.921,7.921,0,0,0,3.368.561c3.992.062,5.426,1,5.426,3.306a3.368,3.368,0,0,1-.374,1.559,4.241,4.241,0,0,1-1.372,1.372,6.355,6.355,0,0,1-3.555.686c-1.684,0-4.179-.561-5.364-1.746a.811.811,0,0,1-.249-.5.559.559,0,0,1,.624-.624.624.624,0,0,1,.5.187,5.847,5.847,0,0,0,4.428,1.5c1.934,0,4.117-.873,4.117-2.495a1.372,1.372,0,0,0-.686-1.435,7.13,7.13,0,0,0-3.555-.624c-3.867-.062-5.177-.936-5.177-3.056s2.058-3.68,5.239-3.68a7.111,7.111,0,0,1,4.74,1.559.667.667,0,0,1-.374,1.123.686.686,0,0,1-.5-.187,5.364,5.364,0,0,0-3.8-1.31,6.736,6.736,0,0,0-1.622.187,5.863,5.863,0,0,0-1.559.686,1.809,1.809,0,0,0-.811,1.622,1.247,1.247,0,0,0,.624,1.31m37.361.374v6.237a.657.657,0,1,1-1.31,0V42.313c0-2.807-1.185-4.241-3.493-4.241s-3.8,1.809-3.8,4.74v5.676a.657.657,0,1,1-1.31,0V42.313c0-2.807-1.185-4.241-3.493-4.241s-3.8,1.809-3.8,4.74v5.676a.624.624,0,0,1-.686.686c-.437,0-.624-.249-.624-.686V37.7a.662.662,0,0,1,.624-.748.624.624,0,0,1,.686.748v1.31h.062a4.366,4.366,0,0,1,3.992-2.183A4.032,4.032,0,0,1,149,39.382h.062a4.616,4.616,0,0,1,4.428-2.557c3.056,0,4.616,1.871,4.616,5.3m16.03.873a5.024,5.024,0,1,0-10.042,0,5.021,5.021,0,1,0,10.042,0m-10.042-5.364v1.746h.062a5.489,5.489,0,0,1,.873-1.123,6.549,6.549,0,0,1,1.5-1,5.988,5.988,0,0,1,2.744-.5,6.113,6.113,0,0,1,4.428,1.746A6.237,6.237,0,0,1,175.384,43a7.423,7.423,0,0,1-.561,2.807,5.925,5.925,0,0,1-5.551,3.368,6.362,6.362,0,0,1-2.744-.5,5.489,5.489,0,0,1-2.433-2.121h-.062v6.487a.657.657,0,1,1-1.31,0V37.7a.624.624,0,0,1,.686-.748c.437,0,.624.249.624.748m16.591-5.614V48.426a.624.624,0,0,1-.686.686c-.437,0-.624-.249-.624-.686V32.084a.608.608,0,0,1,.624-.686.624.624,0,0,1,.686.686m5.115,10.229h9.98a5.052,5.052,0,0,0-9.98,0M196.154,43.5H185.613c.187,2.744,2.121,4.553,5.177,4.553a5.115,5.115,0,0,0,4.117-1.871.561.561,0,0,1,.5-.249.624.624,0,0,1,.686.686.561.561,0,0,1-.187.437,6.487,6.487,0,0,1-5.052,2.183,6.674,6.674,0,0,1-4.74-1.746A6.05,6.05,0,0,1,184.366,43a6.424,6.424,0,0,1,.561-2.807,6.05,6.05,0,0,1,5.8-3.431,5.887,5.887,0,0,1,6.237,5.925.748.748,0,0,1-.811.748m14.159,4.553a.749.749,0,0,1,.249.561.608.608,0,0,1-.686.624.686.686,0,0,1-.561-.249L204.7,43.872l-4.616,5.052a.624.624,0,0,1-1.123-.374.561.561,0,0,1,.187-.437l4.74-5.052-4.616-4.927a.811.811,0,0,1-.25-.561.608.608,0,0,1,.686-.624.686.686,0,0,1,.561.249l4.491,4.927,4.491-4.927a.621.621,0,1,1,.936.811L205.635,43Z" transform="translate(-44.588 -11.813)"/><g transform="translate(21.269 8.982)"><g class="f"><path class="g" d="M53.893,22.455l5.239-4.117L47.407,21.021Zm4.054.936,2-3.992-4.428,3.493Zm3.119.686V19.961L59.257,23.7l1.871.437Zm3.742.811L62.376,19.9v4.428Zm-14.159.125,2-1.5-5.551-1.247ZM72.98,26.759,63.561,19.4l2.869,5.925Zm-24.824.249,1.435-1.185L46.284,23.2l1.871,3.742Zm7.235,1.746,2.058-4.179-3.181-.686-2.557,2ZM68.3,29l4.366-1-5.489-1.247Zm-23.14.374,1.934-1.559-2-3.992v5.551Zm17.215.936,4.553-1-1.435-2.869-3.181-.686Zm-3.929.873,2.62-.561V25.387l-2.433-.561L56.326,29.5Zm11.165.624,3.306-2.62-4.117.936ZM55.2,31.874l1.684-.374-1.06-.811Zm-4.241.936,2.62-.561,1.185-2.37L50.65,26.634l-1.934,1.5Zm10.1.374v-1.31l-1.31.312Zm-15.905.936,4.553-1-2.058-4.179-2.557,2Zm-6.487.312,5.177-4.054V23.765L38.612,34.431Zm13.535.748.748-1.5-1.31.312Zm19.148,0,2.433-4.99L70.235,33l1.123,2.245Zm-31.873.249,4.428-1V31.936Zm25.074.437,4.117-3.243-1.06-2.183-5.177,1.185v2.62Zm-2.121,1.622,1.06-.811-1.06-.811v1.622Zm-18.525.062V35.678l-4.117.936Zm6.424,1.435,1.123-2.308-1.185-2.37L45.1,35.429v2.433Zm18.9.5,1.435-2.869-1.435-2.869-3.68,2.869Zm-16.279.062-.748-1.5-.561,1.185ZM58.2,40.731l2.869-2.245v-3.68L58.135,32.5l-3.68.811-1.622,3.306,1.622,3.306,3.68.811Zm-14.283.561V38.8l-4.491-.936Zm17.215.125v-1.31l-1.31,1.06ZM74.975,42.54V30.751l-2.932,5.925Zm-19.148.125,1.06-.811L55.2,41.417Zm11.726.249,1.06-2.183L64.5,37.487l-2.121,1.622v2.62Zm6.237.249-2.433-4.99-1.123,2.183Zm-.811.936-3.306-2.62-.811,1.684Zm-25.261.249,2.058-4.179-4.553-1v3.181Zm19.46,2.245,5.489-1.247-4.428-1Zm-16.529.125,4.117-3.243L53.582,41.1l-2.62-.561-2.308,4.678,1.934,1.5Zm11.726,1,3.181-.686,1.435-2.869-4.553-1v4.616Zm-3.68.748,2.433-.561V42.727l-2.62-.561-2.121,1.622Zm-4.428,1,3.181-.686L55.39,44.6l-3.68,2.869Zm-10.354.062V42.976L38.674,38.86l5.239,10.666Zm1.31,0,1.871-3.992-2-1.559v5.551Zm1.185.561,3.181-2.62-1.5-1.185Zm.686,1,5.489-1.247-2-1.559Zm13.972,2.308V49.213L59.2,49.65Zm1.31,0,2.433-4.99-2.433.561Zm-2.433.561-2-3.992-2.433.561,4.428,3.493Zm3.618,0,9.418-7.36L66.43,48.028,63.5,53.954Zm-4.428,1-5.239-4.117L47.407,52.27Zm2.62,3.992a2.807,2.807,0,0,1-2.183-1.06,2.744,2.744,0,0,1-.624-1.684L46.97,53.517a2.745,2.745,0,0,1-.748.936,2.807,2.807,0,0,1-3.929-.437,2.682,2.682,0,0,1,.437-3.867l-5.3-10.791H36.8a2.807,2.807,0,0,1-2.183-1,2.682,2.682,0,0,1,.437-3.867A2.807,2.807,0,0,1,36.8,33.87h.624l5.3-10.728-.437-.437a2.682,2.682,0,0,1,.437-3.867,2.807,2.807,0,0,1,3.929.437l.312.5,11.976-2.62a2.682,2.682,0,0,1,1.06-2.121,2.807,2.807,0,0,1,3.929.437,2.682,2.682,0,0,1,.312,2.869l9.605,7.485a2.807,2.807,0,0,1,3.93.437,2.682,2.682,0,0,1-.437,3.867,2.807,2.807,0,0,1-1.123.5V42.664a2.807,2.807,0,0,1,1.559.936,2.682,2.682,0,0,1-.437,3.867,2.871,2.871,0,0,1-3.493.062l-9.605,7.485a2.682,2.682,0,0,1-.811,3.306,2.807,2.807,0,0,1-1.746.624" transform="translate(-34.059 -14.409)"/></g></g><path class="g" d="M144.764,34.361a2.682,2.682,0,1,0-3.368,2.557v11.6a.608.608,0,0,0,.624.686.624.624,0,0,0,.686-.686V36.98a2.682,2.682,0,0,0,2.058-2.62" transform="translate(-52.452 -11.906)"/></g></g></svg>