<svg xmlns="http://www.w3.org/2000/svg" xmlns:xlink="http://www.w3.org/1999/xlink" width="187.12" height="62.373" viewBox="0 0 187.12 62.373"><defs><style>.a{fill:none;}.b{clip-path:url(#a);}.c{opacity:0;}.d{fill:#fff;}.e{fill:#f21e02;}</style><clipPath id="a"><rect class="a" width="187.12" height="62.373"/></clipPath></defs><g transform="translate(93.56 31.187)"><g class="b" transform="translate(-93.56 -31.187)"><g class="c"><g class="b"><rect class="d" width="187.12" height="62.373"/></g></g><path class="e" d="M40.8,46.356V30.7H57.391c.062.249.062,15.281,0,15.656Zm3.181-6.612V43.3h1.684a1.435,1.435,0,0,0,.748-.187.873.873,0,0,0,.312-1.247l-.312-.312-.249-.125.187-.125a.748.748,0,0,0,.374-.686.811.811,0,0,0-.811-.811H43.981Zm8.67.062-1.559,3.555h.686l.249-.624a.249.249,0,0,1,.249-.187h1.372a.249.249,0,0,1,.312.187l.249.561H54.9l-1.5-3.493Zm-1.06-6.3v3.555h.686V36h1.372A1.123,1.123,0,0,0,54.4,34.63a1.06,1.06,0,0,0-.873-1.06A9.606,9.606,0,0,0,51.591,33.507Zm-5.115.374a1.746,1.746,0,0,0-.811-.312,1.934,1.934,0,0,0-1.185.125.912.912,0,0,0,0,1.684l.624.249.5.187a.387.387,0,0,1-.187.748,1.5,1.5,0,0,1-.936-.187l-.5-.312-.125.249-.125.249a2.121,2.121,0,0,0,1.5.561h.561l.437-.249a.936.936,0,0,0,.125-1.31l-.249-.249-.873-.374-.437-.249a.312.312,0,0,1-.062-.437l.187-.125h.374l.936.249Z" transform="translate(-15.352 -11.551)"/><rect class="e" width="4.616" height="15.674" transform="translate(17.776 19.149)"/><rect class="e" width="16.591" height="2.657" transform="translate(25.448 37.861)"/><path class="e" d="M57.491,68.17H40.9V65.8H57.429v.312Z" transform="translate(-15.389 -24.758)"/><path class="e" d="M75.4,59.373V52.7h2.994a3.181,3.181,0,0,1,1.5.312,1.559,1.559,0,0,1,.624,2.121l-.25.374-.561.374h.187A1.7,1.7,0,0,1,80.078,59a2.5,2.5,0,0,1-1.185.312H75.4Zm1.31-1.123h1.746a1.435,1.435,0,0,0,.748-.187.811.811,0,0,0,.437-.748.686.686,0,0,0-.437-.686l-.624-.125H76.71Zm0-2.869h2.183a.748.748,0,0,0,.5-.811.686.686,0,0,0-.561-.686H76.71Z" transform="translate(-28.371 -19.828)"/><path class="e" d="M181.073,59.336H179.7l-.561-1.372h-3.306l-.561,1.372H173.9l2.932-6.736h1.185c.187,0,.187.125.249.249l1.06,2.37,1.622,3.68.187.437M178.7,56.841l-1.185-2.807c-.374,1-.811,1.871-1.185,2.807Z" transform="translate(-65.433 -19.792)"/><path class="e" d="M132.562,52h1.247v2.807h.062l.125-.125a2.245,2.245,0,0,1,2.557-.561,1.622,1.622,0,0,1,1,1.5c.062,1.185,0,2.308,0,3.493h-1.31V56.3a1.06,1.06,0,0,0-.686-1.123,1.31,1.31,0,0,0-1.5.374,1.5,1.5,0,0,0-.312,1q0,1.123,0,2.183v.374H132.5Z" transform="translate(-49.855 -19.566)"/><path class="e" d="M118.027,59.173h-1.435c-.062,0-.187-.125-.249-.187l-1.06-1.746-.125-.187-.748.686a.437.437,0,0,0-.062.312v1.185H113.1V52h1.247a5.177,5.177,0,0,1,.062,1c0,.312,0,.686,0,1v2.058l.249-.187,1.684-1.684a.561.561,0,0,1,.5-.187h1.185l-1.934,2Z" transform="translate(-42.556 -19.566)"/><path class="e" d="M230.005,56.671l-.437-.873a4.241,4.241,0,0,1,1.372-.561,3.68,3.68,0,0,1,1.435-.062,1.746,1.746,0,0,1,1.684,1.809h0c.062,1.06,0,2.121,0,3.181v.125h-1.185v-.5l-.187.125a2.308,2.308,0,0,1-2.308.312,1.559,1.559,0,0,1-.936-2h0a1.372,1.372,0,0,1,1.06-.873l1.06-.125h1.247a.873.873,0,0,0-.686-1h-.187a2.682,2.682,0,0,0-1.5.312Zm2.62,1.5h-1.746a.561.561,0,0,0-.437.624.624.624,0,0,0,.561.561,1.559,1.559,0,0,0,1.185-.187.873.873,0,0,0,.437-1.06Z" transform="translate(-86.297 -20.744)"/><path class="e" d="M146.461,57.255a.873.873,0,0,0-.624-1h-.187a2.62,2.62,0,0,0-1.435.249l-.374.187a4.24,4.24,0,0,1-.437-.873,4.179,4.179,0,0,1,2-.624,3.306,3.306,0,0,1,1.123.125,1.622,1.622,0,0,1,1.247,1.5v3.493a3.618,3.618,0,0,1-1.247,0v-.5l-.187.125a2.308,2.308,0,0,1-2.245.312,1.559,1.559,0,0,1-.936-1.934,1.372,1.372,0,0,1,.873-.873,3.119,3.119,0,0,1,1.185-.187h1.31Zm0,.936h-1.809a.561.561,0,0,0-.374.686.686.686,0,0,0,.5.5,1.559,1.559,0,0,0,1.185-.125.873.873,0,0,0,.5-1.06" transform="translate(-53.837 -20.766)"/><path class="e" d="M97.422,57.736a2.495,2.495,0,0,1-2.37,2.62h-.437a2.62,2.62,0,0,1-2-.873,2.37,2.37,0,0,1-.561-1.185,2.557,2.557,0,0,1,1.809-3.056h.062a3.181,3.181,0,0,1,1.559,0,2.433,2.433,0,0,1,1.934,2.495m-4.179,0h.062v.249a1.435,1.435,0,0,0,2.62.686,1.746,1.746,0,0,0,.187-1.435,1.451,1.451,0,0,0-2.682-.187,4.368,4.368,0,0,0-.187.686" transform="translate(-34.612 -20.749)"/><path class="e" d="M254.638,60.436a2.744,2.744,0,0,1-2.121-.873,2.37,2.37,0,0,1-.561-1.185,2.557,2.557,0,0,1,1.185-2.807,3.119,3.119,0,0,1,3.368.25,2.37,2.37,0,0,1,.811,1.435,2.557,2.557,0,0,1-1.871,3.119H254.7Zm1.435-2.62v-.249a1.435,1.435,0,0,0-1.123-1.31,1.372,1.372,0,0,0-1.622.873,1.809,1.809,0,0,0-.062,1.123,1.435,1.435,0,0,0,1.684,1.06h.25a1.435,1.435,0,0,0,.873-1.435Z" transform="translate(-94.775 -20.767)"/><path class="e" d="M206.238,60.429a2.745,2.745,0,0,1-2.121-.873,2.37,2.37,0,0,1-.561-1.185,2.557,2.557,0,0,1,1.185-2.807,3.056,3.056,0,0,1,3.368.25,2.37,2.37,0,0,1,.811,1.435,2.557,2.557,0,0,1-1.934,3.119h-.748Zm-1.435-2.62h.062v.249a1.435,1.435,0,0,0,2.62.686,1.746,1.746,0,0,0,.187-1.435,1.451,1.451,0,0,0-2.682-.187A4.3,4.3,0,0,0,204.8,57.809Z" transform="translate(-76.564 -20.76)"/><path class="e" d="M160.442,60.279h-1.185a46.441,46.441,0,0,1,0-5.115H160.5v.873l.125-.125a2.121,2.121,0,0,1,2.37-.686,1.622,1.622,0,0,1,1.247,1.435,4.679,4.679,0,0,1,.062.748v2.932h-1.247v-2.37a5.611,5.611,0,0,0-.062-.686,1,1,0,0,0-1-.936,1.234,1.234,0,0,0-1.435,1.31q0,1.123,0,2.245Z" transform="translate(-59.896 -20.735)"/><path class="e" d="M268.39,60.269h-1.247V57.4a1.06,1.06,0,0,0-1.06-1.123h-.437a1.247,1.247,0,0,0-1,1.185v2.744H263.4V55.154h1.247V55.9h.062l.125-.125a2.245,2.245,0,0,1,2.557-.5,1.747,1.747,0,0,1,1,1.5,6.865,6.865,0,0,1,0,.748v2.744" transform="translate(-99.109 -20.724)"/><path class="e" d="M199.017,55.523l-.437.873-.312-.125a2.931,2.931,0,0,0-1.06-.312h-.5a.425.425,0,0,0-.125.811l.561.187.936.312.437.249a1.435,1.435,0,0,1,.187,2l-.312.312a2.869,2.869,0,0,1-1.746.312,3.056,3.056,0,0,1-1.559-.561l-.187-.187.437-.873a2.807,2.807,0,0,0,1.185.561h.873a.446.446,0,0,0,.125-.873l-.748-.312-.811-.312a1.247,1.247,0,0,1-.748-1.185,1.372,1.372,0,0,1,.686-1.31,2.807,2.807,0,0,1,2.121-.249,2.5,2.5,0,0,1,1.06.5" transform="translate(-73.334 -20.594)"/><path class="e" d="M186.6,59.736l.437-.811.936.437a2.245,2.245,0,0,0,1.06.125h.312a.374.374,0,0,0,.187-.561l-.125-.187-.374-.187-1-.312-.748-.374a1.435,1.435,0,0,1-.062-2l.249-.187a2.557,2.557,0,0,1,1.809-.312l1.123.312.374.187-.437.873-.624-.249-.811-.187h-.5a.374.374,0,0,0-.187.5l.125.187.437.187.811.249.5.249a1.31,1.31,0,0,1,.749,1.247,1.372,1.372,0,0,1-.749,1.31,2.807,2.807,0,0,1-1.684.312,3.181,3.181,0,0,1-1.746-.686" transform="translate(-70.211 -20.816)"/><path class="e" d="M28.5,63.32V60.7h4.616a16.529,16.529,0,0,1,0,2.682Z" transform="translate(-10.724 -22.839)"/><path class="e" d="M218.92,56.082l-.748.686a1.809,1.809,0,0,0-1.622-.5,1.247,1.247,0,0,0-.811.5,1.579,1.579,0,1,0,2.495,1.934l.748.624-.437.437a2.932,2.932,0,0,1-3.618-.062,2.37,2.37,0,0,1-.686-1.185,3.119,3.119,0,0,1,.062-1.746,2.308,2.308,0,0,1,1.435-1.5,2.994,2.994,0,0,1,2.495.125,1.684,1.684,0,0,1,.686.624" transform="translate(-80.576 -20.716)"/><path class="e" d="M126.855,56.082l-.748.686c-1-.686-1.871-.748-2.433-.062a1.558,1.558,0,1,0,2.433,1.934l.748.624a2.121,2.121,0,0,1-1.06.873,3.119,3.119,0,0,1-2.058.062,2.37,2.37,0,0,1-1.746-2.183,3.056,3.056,0,0,1,.125-1.247,2.308,2.308,0,0,1,1.435-1.5,2.994,2.994,0,0,1,2.495.125,1.871,1.871,0,0,1,.748.624" transform="translate(-45.894 -20.716)"/><path class="e" d="M107.361,56.154l-.748.748c-1-.686-1.871-.748-2.433-.062a1.746,1.746,0,0,0,.062,2.183,1.684,1.684,0,0,0,2.37-.249l.748.624-.312.374a2.869,2.869,0,0,1-3.93-.125,2.433,2.433,0,0,1-.561-1.185,2.744,2.744,0,0,1,.624-2.433,2.947,2.947,0,0,1,3.8-.125l.312.312" transform="translate(-38.563 -20.788)"/><path class="e" d="M91.985,39.262h.624a48.312,48.312,0,0,1-1.871,5.052h-.624l-.748-2.121c-.249-.686-.5-1.372-.811-2.058l-1.5,4.117h-.686L84.5,39.2h.686l1.5,4.3h.062l1.5-4.241h.686l1.5,4.241h.062Z" transform="translate(-31.795 -14.75)"/><path class="e" d="M28.5,68.18V65.872c.249-.062,4.241-.062,4.616,0v2.37Z" transform="translate(-10.724 -24.768)"/><path class="e" d="M127.4,36.6h2.869a2.557,2.557,0,0,1,1.31.374,1.871,1.871,0,0,1,.873,1.123,2.744,2.744,0,0,1,0,1.5,2.121,2.121,0,0,1-1.934,1.5h-2.433v2.121H127.4Zm.686,3.867h2.37a1.5,1.5,0,0,0,.936-.437,1.622,1.622,0,0,0,.437-1.372,1.31,1.31,0,0,0-.873-1.31l-1-.187h-1.871Z" transform="translate(-47.936 -13.771)"/><path class="e" d="M242.343,58.415l.249.873a2,2,0,0,1-2.183.187,1.372,1.372,0,0,1-.624-1.185V55.67H239.1v-.936h.686V53.3h1.247v1.372h1.435v.936H241.1V58.1c0,.811.187.5.561.5l.686-.187" transform="translate(-89.965 -20.055)"/><path class="e" d="M74.6,42.362l.312-.561.312.249a3.056,3.056,0,0,0,2.495.624l.561-.187a1,1,0,0,0,.374-1.372l-.187-.249-.624-.374-1.372-.561-.873-.437a1.622,1.622,0,0,1-.312-2.245l.374-.374A2.994,2.994,0,0,1,77.22,36.5a3.867,3.867,0,0,1,2.121.624l-.249.5-1.247-.437a2.37,2.37,0,0,0-1.5.125.873.873,0,0,0-.561,1.06,1,1,0,0,0,.5.686l.686.312,1.185.437.686.312a1.684,1.684,0,0,1,.374,2.37l-.437.437a2.557,2.557,0,0,1-1,.374,3.742,3.742,0,0,1-2.932-.811l-.249-.125" transform="translate(-28.069 -13.733)"/><path class="e" d="M171.447,43.073h-.624V40.017a1.31,1.31,0,0,0-.873-1.31,1.871,1.871,0,0,0-1.06-.062,1.622,1.622,0,0,0-1.247,1.247,2.557,2.557,0,0,0-.062.624v2.495h-.624c-.062-.249-.125-6.612,0-7.111h.624v3.119l.187-.249a1.684,1.684,0,0,1,.811-.686,2.62,2.62,0,0,1,1.622-.062,1.622,1.622,0,0,1,1.31,1.559v3.368h-.062" transform="translate(-62.793 -13.508)"/><path class="e" d="M88.547,59.173H87.3V52h1.247Z" transform="translate(-32.848 -19.566)"/><path class="e" d="M142.615,41.857a2.557,2.557,0,1,1-2.557-2.557h.062a2.433,2.433,0,0,1,2.495,2.37v.187m-.686-.125a4.055,4.055,0,0,0-.062-.5,1.746,1.746,0,0,0-1.684-1.372,1.809,1.809,0,0,0-1.871,1.247,2.308,2.308,0,0,0-.062,1.185,1.871,1.871,0,0,0,2.183,1.559l.686-.249a1.934,1.934,0,0,0,.873-1.809Z" transform="translate(-51.737 -14.787)"/><path class="e" d="M103.9,43.626l.187-.312.125-.125a2.682,2.682,0,0,0,1.185.561,2,2,0,0,0,1-.062l.312-.125a.686.686,0,0,0,.187-.936l-.187-.187-.748-.312-1.123-.437a1.185,1.185,0,0,1-.686-1.5,1.123,1.123,0,0,1,.561-.686,2.557,2.557,0,0,1,1.809-.249,2.183,2.183,0,0,1,.936.374l-.249.437-.936-.312a1.809,1.809,0,0,0-1,0,.686.686,0,0,0-.5.561.624.624,0,0,0,.374.686l.624.249,1.123.437a1.247,1.247,0,0,1,.686,1.559,1.123,1.123,0,0,1-.561.686,2.62,2.62,0,0,1-2.121.187,2.121,2.121,0,0,1-1-.561" transform="translate(-39.094 -14.747)"/><path class="e" d="M161.418,39.668l-.249.5-.249-.125a2.433,2.433,0,0,0-1.185-.249l-.624.125a.624.624,0,0,0-.312.811l.187.249.5.249.811.249.561.249a1.26,1.26,0,0,1,0,2.245,2.744,2.744,0,0,1-3.056-.5l.249-.437.249.187a2.433,2.433,0,0,0,1.684.437l.437-.125a.686.686,0,0,0,.5-.686.624.624,0,0,0-.374-.624l-.437-.187-.811-.249-.561-.249a1.185,1.185,0,0,1-.624-1.185,1.06,1.06,0,0,1,.686-1,2.807,2.807,0,0,1,2.62.187" transform="translate(-59.375 -14.718)"/><path class="e" d="M111.8,43.692l.249-.437.249.187a2.433,2.433,0,0,0,1.684.437l.5-.125a.686.686,0,0,0,.374-.936l-.249-.312-.5-.249-1-.312-.437-.187a1.247,1.247,0,0,1,.062-2.183,2.869,2.869,0,0,1,2.62.249l-.249.437-.249-.125a2.5,2.5,0,0,0-1.435-.249.811.811,0,0,0-.686.437.561.561,0,0,0,.187.748l.561.312,1,.312.5.249a1.31,1.31,0,0,1-.062,2.245,2.932,2.932,0,0,1-2.994-.374v-.125" transform="translate(-42.067 -14.813)"/><path class="e" d="M224.5,55.2h1.185c.062.249.062,4.678,0,5.115H224.5Z" transform="translate(-84.472 -20.77)"/><path class="e" d="M153.8,55.2h1.185c.062.249.062,4.678,0,5.115H153.8Z" transform="translate(-57.87 -20.77)"/><path class="e" d="M247.3,55.2h1.185v5.115H247.3Z" transform="translate(-93.051 -20.77)"/><rect class="e" width="0.624" height="7.123" transform="translate(92.874 22.454)"/><path class="e" d="M154.618,44.352h-.561a45.408,45.408,0,0,1,0-5.052h.624Z" transform="translate(-57.939 -14.787)"/><rect class="e" width="0.624" height="5.021" transform="translate(62.436 24.513)"/><path class="e" d="M247.848,51.7a.748.748,0,0,1,.686.748h0a.686.686,0,0,1-.686.748h-.062a.686.686,0,0,1-.686-.686h0a.749.749,0,0,1,.686-.748h0" transform="translate(-92.975 -19.453)"/><path class="e" d="M153.581,52.348a.686.686,0,0,1,.686-.748h.062a.686.686,0,0,1,.686.748h0a.748.748,0,1,1-1.435,0h0Z" transform="translate(-57.776 -19.415)"/><path class="e" d="M224.3,52.348a.748.748,0,1,1,.748.748h-.062a.686.686,0,0,1-.686-.686h0" transform="translate(-84.397 -19.415)"/><rect class="e" width="2.245" height="0.449" transform="translate(74.973 26.446)"/><path class="e" d="M154.736,36.772a.469.469,0,0,1-.936.062h0a.437.437,0,0,1,.5-.437h0a.437.437,0,0,1,.437.437h0Z" transform="translate(-57.87 -13.693)"/><path class="e" d="M100.773,36.737a.441.441,0,1,1-.873,0,.437.437,0,0,1,.437-.437h.062a.437.437,0,0,1,.437.374h0" transform="translate(-37.589 -13.658)"/><path class="e" d="M47,49.436V48.5h1.06a.468.468,0,0,1,0,.936H47" transform="translate(-17.685 -18.249)"/><path class="e" d="M47,47.073V46.2h1a.374.374,0,0,1,.374.374h0a.437.437,0,0,1-.374.437H47" transform="translate(-17.685 -17.384)"/><path class="e" d="M60.647,47.9H59.4l.624-1.5Z" transform="translate(-22.35 -17.459)"/><path class="e" d="M59.2,36.2h.936a.561.561,0,0,1,.561.624h0a.624.624,0,0,1-.561.624H59.2Z" transform="translate(-22.275 -13.621)"/></g></g></svg>