<svg xmlns="http://www.w3.org/2000/svg" width="80" height="80" viewBox="0 0 80 80"><g transform="translate(-1200 -1204)"><rect width="80" height="80" transform="translate(1200 1204)" fill="#f9f9f9" opacity="0"/><g transform="translate(1208.504 1216.568)"><path d="M10.311,10.876h48.13a3.438,3.438,0,0,0,0-6.876H10.311a3.438,3.438,0,0,0,0,6.876Zm52.117,6.188a3.43,3.43,0,0,0-3.369-2.75H9.693a3.43,3.43,0,0,0-3.369,2.75L2.886,34.253a3.454,3.454,0,0,0,3.369,4.125h.619V55.567a3.448,3.448,0,0,0,3.438,3.438h27.5a3.448,3.448,0,0,0,3.438-3.438V38.378H55V55.567a3.438,3.438,0,0,0,6.876,0V38.378H62.5a3.454,3.454,0,0,0,3.369-4.125ZM34.376,52.13H13.749V38.378H34.376Z" transform="translate(-2.821 -4)" fill="none" stroke="#2ad46f" stroke-linejoin="round" stroke-width="3"/></g></g></svg>