<svg xmlns="http://www.w3.org/2000/svg" xmlns:xlink="http://www.w3.org/1999/xlink" width="32" height="32" viewBox="0 0 32 32"><defs><style>.a{fill:#fff;stroke:#707070;}.a,.c{opacity:0;}.b{clip-path:url(#a);}.d{fill:rgba(255,255,255,0);}.e{fill:#ff007a;}</style><clipPath id="a"><rect class="a" width="32" height="32"/></clipPath></defs><g class="b"><g class="c"><rect class="d" width="32" height="32"/></g><g transform="translate(4.051 1.629)"><path class="e" d="M11.5,23.569a1.092,1.092,0,0,0-.106-.609,2.673,2.673,0,0,0-1.02-1.006,2.349,2.349,0,0,1-1.218-1.589A2.834,2.834,0,0,1,9.6,18.6a5.445,5.445,0,0,0,.636-2.317c.053-.622.119-.861.291-1.059a1.125,1.125,0,0,1,.808-.344,2.675,2.675,0,0,0,1.6-.662,1.425,1.425,0,0,0,.5-1.073l.013-.344-.172-.225C12.594,11.77,3.1,1.23,3.06,1.23a7.164,7.164,0,0,0,.5.636c3.218,3.959,6.753,8.925,7.323,9.719.04.053.053.079.066.093.3.424.556.742.755.98.424.53.556.689.291.834a1.18,1.18,0,0,1-.622.159,1.083,1.083,0,0,1-.7-.3c-.132-.132-1.086-1.523-2.37-3.536C7.324,8.288,6.5,7,6.477,6.977a31.823,31.823,0,0,0,1.735,3.178c1.112,2.026,1.88,3.509,1.88,3.615,0,.2-.053.291-.291.569a3.331,3.331,0,0,0-.7,1.986,6.256,6.256,0,0,1-1.655,3.39,7.3,7.3,0,0,0-.927,1.311A2.427,2.427,0,0,0,6.225,22.2a3.907,3.907,0,0,0,.185,1.457,5.047,5.047,0,0,0,.7,1.39,3.046,3.046,0,0,1,.53,1.086c0,.119.026.119.556,0a5.686,5.686,0,0,0,2.86-1.417A1.414,1.414,0,0,0,11.5,23.569Zm-3.456-.755a.429.429,0,0,1-.636.2c-.119-.093-.132-.238-.026-.41s.093-.238-.04-.318c-.079-.04-.119-.079-.119-.146,0-.212.384-.291.622-.132A.624.624,0,0,1,8.039,22.814Z" transform="translate(-3.06 -1.23)"/><path class="e" d="M13.254,7.632A14.317,14.317,0,0,1,14.671,9.3c1.43,1.88,2.026,2.41,3.231,2.807a9.439,9.439,0,0,0,2.675.41,4.455,4.455,0,0,1,2.41.516,2.368,2.368,0,0,1,.7.742l.119.2-.026-.212a6.045,6.045,0,0,0-1.417-2.82l-.132-.159-.066.3c-.172.781-.543,1.337-.887,1.337a.444.444,0,0,1-.4-.252c-.079-.185-.066-.252.04-.463a2.548,2.548,0,0,0,.159-1.6,2.148,2.148,0,0,0-.093-.41,5.683,5.683,0,0,0-1.059-.622,8.073,8.073,0,0,0-4.674-.583l-.384.066-.265-.3A5.958,5.958,0,0,0,11.6,6.215a4.98,4.98,0,0,0-1.377-.132c-.146.026-.132.026.172.079A5.029,5.029,0,0,1,13.254,7.632Z" transform="translate(-0.767 0.339)"/><path class="e" d="M18.258,8.489c.887.53,1.033.834,1.033,2.119a2.392,2.392,0,0,1-.079.914c-.106.252-.093.3.026.079a3.257,3.257,0,0,0,.318-1.5c0-.437.013-.53.079-.583s.079-.066.185-.013a11.259,11.259,0,0,1,1.165.927l.252.238-.252-.331a10.47,10.47,0,0,0-.847-.94c-.689-.715-.755-.808-.847-1.47a2.923,2.923,0,0,1,.053-1.3A.614.614,0,0,0,19.4,6.41a.858.858,0,0,0-.119.238,3.81,3.81,0,0,0-.265,1.271c-.026.358-.04.49-.079.5-.066.026-.146,0-.662-.2a8.221,8.221,0,0,0-1.231-.358,3.084,3.084,0,0,0,.4.2A8.065,8.065,0,0,1,18.258,8.489Z" transform="translate(1.473 0.449)"/><path class="e" d="M12.784,11.294c.358.026.463-.079.3-.318A6.365,6.365,0,0,1,12.506,9.9c-.04-.132-.146-.543-.225-.9-.265-1.218-.516-1.695-1.1-2.052a3.639,3.639,0,0,0-.94-.358l-.132-.013-.026.3A5.31,5.31,0,0,0,11,10.049,2.957,2.957,0,0,0,12.784,11.294Z" transform="translate(-0.786 0.504)"/><path class="e" d="M23.693,15.772a4.278,4.278,0,0,0-3.125-3.43,12.544,12.544,0,0,0-2.225-.477c-1.814-.265-2.476-.477-3.059-.94a1.912,1.912,0,0,0-.252-.185,2.935,2.935,0,0,0-.013.463c0,1.721,1.02,2.741,3.92,3.92a11.562,11.562,0,0,1,3.3,1.695,2.36,2.36,0,0,1,.847,1.655c0,.119.026.2.053.185a3.7,3.7,0,0,0,.477-1.059A6.516,6.516,0,0,0,23.693,15.772Z" transform="translate(0.818 1.853)"/><path class="e" d="M16.047,17.58c-.146.04-.742.159-1.311.252a7.658,7.658,0,0,0-2.185.583,3.01,3.01,0,0,0-.781.477c.013.013.093-.013.185-.04a9.017,9.017,0,0,1,2.476-.41c.437-.026.94-.053,1.1-.079a3.429,3.429,0,0,0,2.185-.967,2.6,2.6,0,0,0,.609-.98,1.782,1.782,0,0,0,.106-.795,1.985,1.985,0,0,0-.106-.821,2.758,2.758,0,0,0-.463-.861l-.132-.159.079.225a5.563,5.563,0,0,1,.146.622A2.537,2.537,0,0,1,16.047,17.58Z" transform="translate(-0.236 2.838)"/><path class="e" d="M21.336,16.978a7.365,7.365,0,0,0-2.317-1.735c-.94-.516-1.3-.728-1.483-.847a.717.717,0,0,0-.2-.106c-.026,0-.053.066-.079.146a3.425,3.425,0,0,0,.265,2.4,14.234,14.234,0,0,0,1.165,1.92,10.272,10.272,0,0,1,1.179,2.119,2.928,2.928,0,0,1-.132,2.291c-.079.172-.146.318-.119.318a1.654,1.654,0,0,0,.3-.159,4.322,4.322,0,0,0,2.105-2.82,5.54,5.54,0,0,0,.066-1.748A3.578,3.578,0,0,0,21.336,16.978Z" transform="translate(1.507 3.004)"/><path class="e" d="M18.1,23.617a1.971,1.971,0,0,1-.636-1.165c-.026-.093-.093-.49-.146-.9a4.3,4.3,0,0,0-.662-2,3.174,3.174,0,0,0-1.841-1.192,5.953,5.953,0,0,0-1.88-.079,7.794,7.794,0,0,0-3.628,1.761l-.318.278.278.04a3.846,3.846,0,0,1,2.873,1.5,2.332,2.332,0,0,0,1.271.874,1.364,1.364,0,0,0,1.655-.795,1.533,1.533,0,0,0-.026-1.006,1.039,1.039,0,0,0-1.563-.331.54.54,0,0,0,.185.953c.093.026.093.013-.026-.04a.386.386,0,0,1-.265-.4.633.633,0,0,1,.967-.477.7.7,0,0,1,.477.715.891.891,0,0,1-1.006.9,1.549,1.549,0,0,1-.834-.437,1.123,1.123,0,0,1,.371-1.735,1.741,1.741,0,0,1,1.695.159c.6.4.847.755,1.364,1.947.172.384.384.821.477.967a2.087,2.087,0,0,0,1.774,1.1A2.138,2.138,0,0,0,19.7,24a2.2,2.2,0,0,0,.636-.424.736.736,0,0,0-.252.079A2.11,2.11,0,0,1,18.1,23.617Z" transform="translate(-1.137 4.284)"/><path class="e" d="M12.373,11.769a1.5,1.5,0,0,0-.9-.079,1.317,1.317,0,0,0-.795.874,1.29,1.29,0,0,0,.066.795c.159.212.3.265.715.265.795,0,1.483-.344,1.563-.781A1.125,1.125,0,0,0,12.373,11.769Zm.04.649a.772.772,0,0,1-.543.238c-.291,0-.6-.212-.6-.4,0-.384.6-.583.993-.331C12.479,12.06,12.532,12.246,12.413,12.418Z" transform="translate(-0.6 2.148)"/></g></g></svg>
