<svg xmlns="http://www.w3.org/2000/svg" xmlns:xlink="http://www.w3.org/1999/xlink" width="138" height="38" viewBox="0 0 138 38"><defs><style>.a{fill:none;}.b{fill:#fff;}.c{fill:#585858;}.d{clip-path:url(#a);}</style><clipPath id="a"><rect class="a" width="90.262" height="19.304"/></clipPath></defs><rect class="b" width="138" height="38" rx="5"/><g transform="translate(24.25 9.738)"><path class="c" d="M8.943,10.181v7.647L19.519,19.3V10.181ZM0,10.071v6.523l7.982,1.1V10.071ZM0,2.755V9.278H7.982v-7.6ZM19.519,0,8.943,1.521V9.211H19.519Z"/><g class="d"><path class="c" d="M114,17h1.52l2.348,8.4a11.618,11.618,0,0,1,.358,1.785c.827-3.438,1.945-6.787,2.884-10.181h1.319c.693,2.424,1.342,4.848,2.012,7.272a22,22,0,0,1,.693,2.909c.738-3.416,1.789-6.787,2.638-10.181h1.5c-1.073,3.9-2.214,7.779-3.309,11.68h-1.61c-.8-2.8-1.587-5.6-2.392-8.4a7.111,7.111,0,0,1-.224-1.388,11.573,11.573,0,0,1-.224,1.212c-.8,2.843-1.632,5.686-2.415,8.55h-1.61L114,17" transform="translate(-88.511 -13.254)"/><path class="c" d="M186.2,14.671a.882.882,0,1,1,0,.22m.2,3h1.342v8.374H186.4" transform="translate(-144.568 -10.837)"/><path class="c" d="M204.364,32.534a3.243,3.243,0,0,1,3.98-1.344,3.032,3.032,0,0,1,1.61,2.865c.067,1.829.022,3.658.022,5.509h-1.342c-.022-1.763.045-3.526-.022-5.289a2.1,2.1,0,0,0-1.386-2.138,2.357,2.357,0,0,0-2.862,2.2c-.045,1.741,0,3.482-.022,5.223H203V31.19h1.342c0,.441,0,.9-.022,1.344" transform="translate(-157.612 -24.138)"/><path class="c" d="M247.866,13.922h1.342V26.263h-1.342c0-.441,0-.9-.045-1.344a3.417,3.417,0,0,1-5.031.815,4.492,4.492,0,0,1-1.319-3.68,4.941,4.941,0,0,1,1.543-3.636c1.073-.881,3.89-1.08,4.874.6-.022-1.7,0-3.394,0-5.113m-2.907,4.892a2.6,2.6,0,0,0-2.012,2.138,4.764,4.764,0,0,0,.559,3.614,2.457,2.457,0,0,0,3.555.088,3.3,3.3,0,0,0,.783-2.336,3.958,3.958,0,0,0-.514-2.6,2.365,2.365,0,0,0-2.37-.881" transform="translate(-187.475 -10.837)"/><path class="c" d="M286.958,31a4.388,4.388,0,0,1,3.421.926,4.92,4.92,0,0,1,1.252,3.68,4.463,4.463,0,0,1-1.342,3.2c-1.833,1.631-5.232,1.278-6.395-.97a5.052,5.052,0,0,1,.939-5.928,4.561,4.561,0,0,1,2.1-.881m-.246,1.19c-1.968.6-2.3,3.129-1.7,4.8a2.667,2.667,0,0,0,3.779,1.454,2.839,2.839,0,0,0,1.431-2.4,4.271,4.271,0,0,0-.783-3.217,2.571,2.571,0,0,0-2.75-.639" transform="translate(-219.994 -24.148)"/><path class="c" d="M322.9,31.922h1.409c.559,2.005,1.1,3.989,1.655,5.994a6.069,6.069,0,0,1,.2,1.146c.626-2.4,1.431-4.76,2.146-7.14h1.23c.626,2.38,1.386,4.716,1.9,7.118.514-2.38,1.274-4.738,1.856-7.1l1.341-.044c-.85,2.8-1.677,5.6-2.527,8.374h-1.386c-.6-2.27-1.386-4.5-1.878-6.787-.581,2.292-1.386,4.518-2.057,6.787h-1.341c-.85-2.8-1.7-5.575-2.527-8.374" transform="translate(-250.704 -24.87)"/><path class="c" d="M381.338,30.926a5.8,5.8,0,0,1,2.482.331c.224.419.045.948.112,1.41a3.289,3.289,0,0,0-3.264-.353,1.115,1.115,0,0,0-.045,1.9c.984.617,2.214.793,3.085,1.587a2.255,2.255,0,0,1-.4,3.328,5.428,5.428,0,0,1-4.583.11c0-.485,0-.992-.022-1.476a3.7,3.7,0,0,0,3.667.639,1.125,1.125,0,0,0,.112-1.873c-.984-.705-2.325-.815-3.175-1.7a2.164,2.164,0,0,1,.246-3.129,4.294,4.294,0,0,1,1.789-.749" transform="translate(-294.028 -24.094)"/></g></g></svg>